SplineFontDB: 3.0
FontName: Hippopotame
FullName: Hippopotame
FamilyName: Hippopotame
Weight: Book
Copyright: Copyright (c) 2017, Roi of the Suisse
Version: 001.000
ItalicAngle: 0
UnderlinePosition: -150
UnderlineWidth: 50
Ascent: 800
Descent: 200
InvalidEm: 0
sfntRevision: 0x00010000
LayerCount: 2
Layer: 0 1 "Arri+AOgA-re" 1
Layer: 1 1 "Avant" 0
XUID: [1021 19 -336474234 643]
StyleMap: 0x0000
FSType: 0
OS2Version: 4
OS2_WeightWidthSlopeOnly: 0
OS2_UseTypoMetrics: 1
CreationTime: 1493120502
ModificationTime: 1584474771
PfmFamily: 17
TTFWeight: 400
TTFWidth: 5
LineGap: 90
VLineGap: 0
Panose: 2 0 5 3 0 0 0 0 0 0
OS2TypoAscent: 800
OS2TypoAOffset: 0
OS2TypoDescent: -200
OS2TypoDOffset: 0
OS2TypoLinegap: 90
OS2WinAscent: 786
OS2WinAOffset: 0
OS2WinDescent: 200
OS2WinDOffset: 0
HheadAscent: 786
HheadAOffset: 0
HheadDescent: -200
HheadDOffset: 0
OS2SubXSize: 650
OS2SubYSize: 699
OS2SubXOff: 0
OS2SubYOff: 140
OS2SupXSize: 650
OS2SupYSize: 699
OS2SupXOff: 0
OS2SupYOff: 479
OS2StrikeYSize: 49
OS2StrikeYPos: 258
OS2CapHeight: 611
OS2XHeight: 335
OS2Vendor: 'PfEd'
OS2CodePages: 00000001.00000000
OS2UnicodeRanges: 00000007.00000000.00000000.00000000
MarkAttachClasses: 1
DEI: 91125
ShortTable: cvt  2
  33
  633
EndShort
ShortTable: maxp 16
  1
  0
  186
  128
  5
  0
  0
  2
  0
  1
  1
  0
  64
  46
  0
  0
EndShort
LangName: 1033 "" "" "Regular" "FontForge 2.0 : Hippopotame : 7-6-2017"
GaspTable: 1 65535 2 0
Encoding: UnicodeBmp
UnicodeInterp: none
NameList: AGL For New Fonts
DisplaySize: -48
AntiAlias: 1
FitToEm: 0
WinInfo: 0 30 11
BeginChars: 65537 189

StartChar: .notdef
Encoding: 65536 -1 0
Width: 364
Flags: W
LayerCount: 2
Fore
SplineSet
33 0 m 1,0,-1
 33 666 l 1,1,-1
 298 666 l 1,2,-1
 298 0 l 1,3,-1
 33 0 l 1,0,-1
66 33 m 1,4,-1
 265 33 l 1,5,-1
 265 633 l 1,6,-1
 66 633 l 1,7,-1
 66 33 l 1,4,-1
EndSplineSet
EndChar

StartChar: uni0000
Encoding: 0 -1 1
AltUni2: 000000.ffffffff.0
Width: 397
Flags: W
LayerCount: 2
Fore
SplineSet
139 19 m 0,0,1
 132 -6 132 -6 144 -24 c 128,-1,2
 156 -42 156 -42 174 -42 c 0,3,4
 213 -42 213 -42 228 29 c 0,5,6
 237 71 237 71 196 71 c 0,7,8
 182 71 182 71 164 57 c 128,-1,9
 146 43 146 43 139 19 c 0,0,1
20 422 m 0,10,11
 20 443 20 443 31 471.5 c 128,-1,12
 42 500 42 500 63.5 529 c 128,-1,13
 85 558 85 558 124 578 c 128,-1,14
 163 598 163 598 210 598 c 0,15,16
 294 598 294 598 333.5 566 c 128,-1,17
 373 534 373 534 373 465 c 0,18,19
 373 420 373 420 357 381.5 c 128,-1,20
 341 343 341 343 318 316.5 c 128,-1,21
 295 290 295 290 272 267 c 128,-1,22
 249 244 249 244 233 219 c 128,-1,23
 217 194 217 194 217 170 c 0,24,25
 217 154 217 154 208.5 144 c 128,-1,26
 200 134 200 134 190 134 c 0,27,28
 166 134 166 134 156.5 137.5 c 128,-1,29
 147 141 147 141 146 144.5 c 128,-1,30
 145 148 145 148 147.5 162 c 128,-1,31
 150 176 150 176 150 186 c 0,32,33
 150 216 150 216 166 246.5 c 128,-1,34
 182 277 182 277 205 301.5 c 128,-1,35
 228 326 228 326 251.5 349.5 c 128,-1,36
 275 373 275 373 291 398 c 128,-1,37
 307 423 307 423 307 446 c 0,38,39
 307 488 307 488 282 512.5 c 128,-1,40
 257 537 257 537 207 537 c 0,41,42
 152 537 152 537 126.5 509.5 c 128,-1,43
 101 482 101 482 84 434 c 0,44,45
 78 417 78 417 80.5 405 c 128,-1,46
 83 393 83 393 79.5 386 c 128,-1,47
 76 379 76 379 61 379 c 0,48,49
 45 379 45 379 37 379.5 c 128,-1,50
 29 380 29 380 25 384.5 c 128,-1,51
 21 389 21 389 20 390.5 c 128,-1,52
 19 392 19 392 19.5 404.5 c 128,-1,53
 20 417 20 417 20 422 c 0,10,11
EndSplineSet
EndChar

StartChar: uni000D
Encoding: 13 13 2
Width: 397
Flags: W
LayerCount: 2
Fore
SplineSet
139 19 m 0,0,1
 132 -6 132 -6 144 -24 c 128,-1,2
 156 -42 156 -42 174 -42 c 0,3,4
 213 -42 213 -42 228 29 c 0,5,6
 237 71 237 71 196 71 c 0,7,8
 182 71 182 71 164 57 c 128,-1,9
 146 43 146 43 139 19 c 0,0,1
20 422 m 0,10,11
 20 443 20 443 31 471.5 c 128,-1,12
 42 500 42 500 63.5 529 c 128,-1,13
 85 558 85 558 124 578 c 128,-1,14
 163 598 163 598 210 598 c 0,15,16
 294 598 294 598 333.5 566 c 128,-1,17
 373 534 373 534 373 465 c 0,18,19
 373 420 373 420 357 381.5 c 128,-1,20
 341 343 341 343 318 316.5 c 128,-1,21
 295 290 295 290 272 267 c 128,-1,22
 249 244 249 244 233 219 c 128,-1,23
 217 194 217 194 217 170 c 0,24,25
 217 154 217 154 208.5 144 c 128,-1,26
 200 134 200 134 190 134 c 0,27,28
 166 134 166 134 156.5 137.5 c 128,-1,29
 147 141 147 141 146 144.5 c 128,-1,30
 145 148 145 148 147.5 162 c 128,-1,31
 150 176 150 176 150 186 c 0,32,33
 150 216 150 216 166 246.5 c 128,-1,34
 182 277 182 277 205 301.5 c 128,-1,35
 228 326 228 326 251.5 349.5 c 128,-1,36
 275 373 275 373 291 398 c 128,-1,37
 307 423 307 423 307 446 c 0,38,39
 307 488 307 488 282 512.5 c 128,-1,40
 257 537 257 537 207 537 c 0,41,42
 152 537 152 537 126.5 509.5 c 128,-1,43
 101 482 101 482 84 434 c 0,44,45
 78 417 78 417 80.5 405 c 128,-1,46
 83 393 83 393 79.5 386 c 128,-1,47
 76 379 76 379 61 379 c 0,48,49
 45 379 45 379 37 379.5 c 128,-1,50
 29 380 29 380 25 384.5 c 128,-1,51
 21 389 21 389 20 390.5 c 128,-1,52
 19 392 19 392 19.5 404.5 c 128,-1,53
 20 417 20 417 20 422 c 0,10,11
EndSplineSet
EndChar

StartChar: uni0009
Encoding: 9 9 3
Width: 397
Flags: W
LayerCount: 2
Fore
SplineSet
139 19 m 0,0,1
 132 -6 132 -6 144 -24 c 128,-1,2
 156 -42 156 -42 174 -42 c 0,3,4
 213 -42 213 -42 228 29 c 0,5,6
 237 71 237 71 196 71 c 0,7,8
 182 71 182 71 164 57 c 128,-1,9
 146 43 146 43 139 19 c 0,0,1
20 422 m 0,10,11
 20 443 20 443 31 471.5 c 128,-1,12
 42 500 42 500 63.5 529 c 128,-1,13
 85 558 85 558 124 578 c 128,-1,14
 163 598 163 598 210 598 c 0,15,16
 294 598 294 598 333.5 566 c 128,-1,17
 373 534 373 534 373 465 c 0,18,19
 373 420 373 420 357 381.5 c 128,-1,20
 341 343 341 343 318 316.5 c 128,-1,21
 295 290 295 290 272 267 c 128,-1,22
 249 244 249 244 233 219 c 128,-1,23
 217 194 217 194 217 170 c 0,24,25
 217 154 217 154 208.5 144 c 128,-1,26
 200 134 200 134 190 134 c 0,27,28
 166 134 166 134 156.5 137.5 c 128,-1,29
 147 141 147 141 146 144.5 c 128,-1,30
 145 148 145 148 147.5 162 c 128,-1,31
 150 176 150 176 150 186 c 0,32,33
 150 216 150 216 166 246.5 c 128,-1,34
 182 277 182 277 205 301.5 c 128,-1,35
 228 326 228 326 251.5 349.5 c 128,-1,36
 275 373 275 373 291 398 c 128,-1,37
 307 423 307 423 307 446 c 0,38,39
 307 488 307 488 282 512.5 c 128,-1,40
 257 537 257 537 207 537 c 0,41,42
 152 537 152 537 126.5 509.5 c 128,-1,43
 101 482 101 482 84 434 c 0,44,45
 78 417 78 417 80.5 405 c 128,-1,46
 83 393 83 393 79.5 386 c 128,-1,47
 76 379 76 379 61 379 c 0,48,49
 45 379 45 379 37 379.5 c 128,-1,50
 29 380 29 380 25 384.5 c 128,-1,51
 21 389 21 389 20 390.5 c 128,-1,52
 19 392 19 392 19.5 404.5 c 128,-1,53
 20 417 20 417 20 422 c 0,10,11
EndSplineSet
EndChar

StartChar: uni000A
Encoding: 10 10 4
Width: 397
Flags: W
LayerCount: 2
Fore
SplineSet
139 19 m 0,0,1
 132 -6 132 -6 144 -24 c 128,-1,2
 156 -42 156 -42 174 -42 c 0,3,4
 213 -42 213 -42 228 29 c 0,5,6
 237 71 237 71 196 71 c 0,7,8
 182 71 182 71 164 57 c 128,-1,9
 146 43 146 43 139 19 c 0,0,1
20 422 m 0,10,11
 20 443 20 443 31 471.5 c 128,-1,12
 42 500 42 500 63.5 529 c 128,-1,13
 85 558 85 558 124 578 c 128,-1,14
 163 598 163 598 210 598 c 0,15,16
 294 598 294 598 333.5 566 c 128,-1,17
 373 534 373 534 373 465 c 0,18,19
 373 420 373 420 357 381.5 c 128,-1,20
 341 343 341 343 318 316.5 c 128,-1,21
 295 290 295 290 272 267 c 128,-1,22
 249 244 249 244 233 219 c 128,-1,23
 217 194 217 194 217 170 c 0,24,25
 217 154 217 154 208.5 144 c 128,-1,26
 200 134 200 134 190 134 c 0,27,28
 166 134 166 134 156.5 137.5 c 128,-1,29
 147 141 147 141 146 144.5 c 128,-1,30
 145 148 145 148 147.5 162 c 128,-1,31
 150 176 150 176 150 186 c 0,32,33
 150 216 150 216 166 246.5 c 128,-1,34
 182 277 182 277 205 301.5 c 128,-1,35
 228 326 228 326 251.5 349.5 c 128,-1,36
 275 373 275 373 291 398 c 128,-1,37
 307 423 307 423 307 446 c 0,38,39
 307 488 307 488 282 512.5 c 128,-1,40
 257 537 257 537 207 537 c 0,41,42
 152 537 152 537 126.5 509.5 c 128,-1,43
 101 482 101 482 84 434 c 0,44,45
 78 417 78 417 80.5 405 c 128,-1,46
 83 393 83 393 79.5 386 c 128,-1,47
 76 379 76 379 61 379 c 0,48,49
 45 379 45 379 37 379.5 c 128,-1,50
 29 380 29 380 25 384.5 c 128,-1,51
 21 389 21 389 20 390.5 c 128,-1,52
 19 392 19 392 19.5 404.5 c 128,-1,53
 20 417 20 417 20 422 c 0,10,11
EndSplineSet
EndChar

StartChar: exclam
Encoding: 33 33 6
Width: 259
Flags: W
LayerCount: 2
Fore
SplineSet
81 10 m 0,0,1
 74 -15 74 -15 86 -33 c 128,-1,2
 98 -51 98 -51 116 -51 c 0,3,4
 155 -51 155 -51 170 20 c 0,5,6
 179 62 179 62 138 62 c 0,7,8
 124 62 124 62 106 48 c 128,-1,9
 88 34 88 34 81 10 c 0,0,1
160 267 m 0,10,11
 167 185 167 185 163 155.5 c 128,-1,12
 159 126 159 126 131 123 c 0,13,14
 114 123 114 123 107 124.5 c 128,-1,15
 100 126 100 126 93 136.5 c 128,-1,16
 86 147 86 147 83 168 c 0,17,18
 81 180 81 180 81.5 196.5 c 128,-1,19
 82 213 82 213 82.5 239.5 c 128,-1,20
 83 266 83 266 81 320 c 0,21,22
 77 435 77 435 77 472 c 0,23,24
 77 516 77 516 86.5 550.5 c 128,-1,25
 96 585 96 585 118 586 c 0,26,27
 135 587 135 587 147 581 c 128,-1,28
 159 575 159 575 159 566 c 0,29,30
 159 544 159 544 159.5 502 c 128,-1,31
 160 460 160 460 160 433 c 0,32,33
 160 432 160 432 158.5 357 c 128,-1,34
 157 282 157 282 160 267 c 0,10,11
EndSplineSet
EndChar

StartChar: quotedbl
Encoding: 34 34 7
Width: 371
Flags: W
LayerCount: 2
Fore
SplineSet
258 506 m 0,0,1
 234 506 234 506 223 541.5 c 128,-1,2
 212 577 212 577 212 626 c 0,3,4
 212 649 212 649 224 670.5 c 128,-1,5
 236 692 236 692 258 692 c 0,6,7
 274 692 274 692 283.5 684.5 c 128,-1,8
 293 677 293 677 297 661.5 c 128,-1,9
 301 646 301 646 301.5 636 c 128,-1,10
 302 626 302 626 302 608 c 0,11,12
 302 602 302 602 302 600 c 0,13,14
 302 506 302 506 258 506 c 0,0,1
116 498 m 0,15,16
 93 498 93 498 78.5 551.5 c 128,-1,17
 64 605 64 605 64 638 c 0,18,19
 64 639 64 639 64 646 c 128,-1,20
 64 653 64 653 64 655 c 128,-1,21
 64 657 64 657 64.5 663.5 c 128,-1,22
 65 670 65 670 66 672.5 c 128,-1,23
 67 675 67 675 68.5 680.5 c 128,-1,24
 70 686 70 686 72 688.5 c 128,-1,25
 74 691 74 691 77.5 694.5 c 128,-1,26
 81 698 81 698 85.5 699.5 c 128,-1,27
 90 701 90 701 96.5 702.5 c 128,-1,28
 103 704 103 704 110 704 c 0,29,30
 154 704 154 704 154 604 c 0,31,32
 154 601 154 601 154 596 c 0,33,34
 154 576 154 576 153.5 564 c 128,-1,35
 153 552 153 552 150 534 c 128,-1,36
 147 516 147 516 138.5 507 c 128,-1,37
 130 498 130 498 116 498 c 0,15,16
EndSplineSet
EndChar

StartChar: numbersign
Encoding: 35 35 8
Width: 714
Flags: W
LayerCount: 2
Fore
SplineSet
240 415 m 0,0,1
 236 415 236 415 229 415 c 0,2,3
 137 415 137 415 108.5 409.5 c 128,-1,4
 80 404 80 404 80 377 c 0,5,6
 80 370 80 370 91 366.5 c 128,-1,7
 102 363 102 363 123 362.5 c 128,-1,8
 144 362 144 362 164 362 c 128,-1,9
 184 362 184 362 213.5 363 c 128,-1,10
 243 364 243 364 259 364 c 0,11,12
 576 364 576 364 639.5 367 c 128,-1,13
 703 370 703 370 703 384 c 0,14,15
 703 387 703 387 703 392 c 0,16,17
 704 408 704 408 694 412 c 0,18,19
 677 418 677 418 520 417 c 0,20,21
 363 415 363 415 240 415 c 0,0,1
153 231 m 0,22,23
 149 231 149 231 142 231 c 0,24,25
 50 231 50 231 21.5 225.5 c 128,-1,26
 -7 220 -7 220 -7 193 c 0,27,28
 -7 186 -7 186 4 182.5 c 128,-1,29
 15 179 15 179 36 178.5 c 128,-1,30
 57 178 57 178 77 178 c 128,-1,31
 97 178 97 178 126.5 179 c 128,-1,32
 156 180 156 180 172 180 c 0,33,34
 488 180 488 180 548.5 182.5 c 128,-1,35
 609 185 609 185 609 200 c 0,36,37
 609 220 609 220 601 224 c 0,38,39
 586 233 586 233 442 232 c 0,40,41
 204 231 204 231 153 231 c 0,22,23
523 412 m 0,42,43
 501 372 501 372 444.5 274.5 c 128,-1,44
 388 177 388 177 372 148 c 0,45,46
 356 118 356 118 331 75 c 0,47,48
 299 18 299 18 302 9 c 0,49,50
 310 0 310 0 349 0 c 0,51,52
 357 0 357 0 363 1.5 c 128,-1,53
 369 3 369 3 375 7 c 128,-1,54
 381 11 381 11 386 16 c 128,-1,55
 391 21 391 21 398.5 32 c 128,-1,56
 406 43 406 43 412 54 c 128,-1,57
 418 65 418 65 429 84 c 128,-1,58
 440 103 440 103 449.5 121.5 c 128,-1,59
 459 140 459 140 475.5 170 c 128,-1,60
 492 200 492 200 508 228 c 0,61,62
 550 303 550 303 597 389 c 128,-1,63
 644 475 644 475 651 488 c 0,64,65
 704 583 704 583 697 595 c 0,66,67
 694 600 694 600 669 600 c 0,68,69
 637 600 637 600 625 590 c 0,70,71
 611 578 611 578 564 489 c 0,72,73
 539 442 539 442 523 412 c 0,42,43
241 412 m 0,74,75
 219 372 219 372 162.5 274.5 c 128,-1,76
 106 177 106 177 90 148 c 0,77,78
 74 118 74 118 49 75 c 0,79,80
 17 18 17 18 20 9 c 0,81,82
 28 0 28 0 67 0 c 0,83,84
 75 0 75 0 81 1.5 c 128,-1,85
 87 3 87 3 93 7 c 128,-1,86
 99 11 99 11 104 16 c 128,-1,87
 109 21 109 21 116.5 32 c 128,-1,88
 124 43 124 43 130 54 c 128,-1,89
 136 65 136 65 147 84 c 128,-1,90
 158 103 158 103 167.5 121.5 c 128,-1,91
 177 140 177 140 193.5 170 c 128,-1,92
 210 200 210 200 226 228 c 0,93,94
 268 303 268 303 315 389 c 128,-1,95
 362 475 362 475 369 488 c 0,96,97
 422 583 422 583 415 595 c 0,98,99
 412 600 412 600 387 600 c 0,100,101
 355 600 355 600 343 590 c 0,102,103
 329 578 329 578 282 489 c 0,104,105
 257 442 257 442 241 412 c 0,74,75
EndSplineSet
EndChar

StartChar: dollar
Encoding: 36 36 9
Width: 374
Flags: W
LayerCount: 2
Fore
SplineSet
247 147 m 0,0,1
 255 -3 255 -3 252 -20 c 0,2,3
 249 -42 249 -42 230 -46 c 0,4,5
 227 -47 227 -47 223 -47 c 0,6,7
 196 -47 196 -47 190.5 -35 c 128,-1,8
 185 -23 185 -23 180 48 c 0,9,10
 169 203 169 203 168 238 c 0,11,12
 160 468 160 468 160 480 c 0,13,14
 160 489 160 489 160 504 c 0,15,16
 160 606 160 606 164.5 626.5 c 128,-1,17
 169 647 169 647 192 648 c 128,-1,18
 215 649 215 649 224.5 641 c 128,-1,19
 234 633 234 633 234 606 c 0,20,21
 234 584 234 584 234.5 498 c 128,-1,22
 235 412 235 412 235 385 c 0,23,24
 235 375 235 375 247 147 c 0,0,1
210 598 m 0,25,26
 289 598 289 598 331 566.5 c 128,-1,27
 373 535 373 535 373 492 c 0,28,29
 373 473 373 473 372.5 465.5 c 128,-1,30
 372 458 372 458 365.5 449 c 128,-1,31
 359 440 359 440 345 440 c 0,32,33
 308 440 308 440 308 468 c 0,34,35
 308 537 308 537 207 537 c 0,36,37
 150 537 150 537 125.5 505.5 c 128,-1,38
 101 474 101 474 101 435 c 0,39,40
 101 414 101 414 106 398 c 128,-1,41
 111 382 111 382 117 372.5 c 128,-1,42
 123 363 123 363 137 354.5 c 128,-1,43
 151 346 151 346 160 342 c 128,-1,44
 169 338 169 338 190.5 330.5 c 128,-1,45
 212 323 212 323 223 319 c 0,46,47
 233 315 233 315 259 306 c 128,-1,48
 285 297 285 297 299 291.5 c 128,-1,49
 313 286 313 286 334.5 272.5 c 128,-1,50
 356 259 356 259 367 243.5 c 128,-1,51
 378 228 378 228 387 202.5 c 128,-1,52
 396 177 396 177 396 144 c 0,53,54
 396 79 396 79 344 39.5 c 128,-1,55
 292 0 292 0 180 0 c 0,56,57
 110 0 110 0 69 39 c 128,-1,58
 28 78 28 78 28 115 c 0,59,60
 28 135 28 135 33.5 146 c 128,-1,61
 39 157 39 157 45.5 159 c 128,-1,62
 52 161 52 161 64 161 c 2,63,-1
 70 161 l 2,64,65
 76 161 76 161 77.5 161 c 128,-1,66
 79 161 79 161 83.5 160 c 128,-1,67
 88 159 88 159 89.5 157.5 c 128,-1,68
 91 156 91 156 92.5 152.5 c 128,-1,69
 94 149 94 149 94 144 c 0,70,71
 94 123 94 123 122 93.5 c 128,-1,72
 150 64 150 64 183 64 c 0,73,74
 237 64 237 64 287 86.5 c 128,-1,75
 337 109 337 109 337 149 c 0,76,77
 337 172 337 172 328 188 c 128,-1,78
 319 204 319 204 301 215 c 128,-1,79
 283 226 283 226 265.5 232.5 c 128,-1,80
 248 239 248 239 219.5 248 c 128,-1,81
 191 257 191 257 174 264 c 0,82,83
 102 294 102 294 76 316 c 0,84,85
 31 355 31 355 31 418 c 0,86,87
 31 493 31 493 74 545.5 c 128,-1,88
 117 598 117 598 210 598 c 0,25,26
EndSplineSet
EndChar

StartChar: percent
Encoding: 37 37 10
Width: 628
Flags: W
LayerCount: 2
Fore
SplineSet
155 552 m 0,0,1
 236 552 236 552 236 482 c 0,2,3
 236 451 236 451 215 424.5 c 128,-1,4
 194 398 194 398 154 398 c 0,5,6
 130 398 130 398 106 416.5 c 128,-1,7
 82 435 82 435 82 476 c 0,8,9
 82 506 82 506 103.5 529 c 128,-1,10
 125 552 125 552 155 552 c 0,0,1
26 479 m 0,11,12
 26 418 26 418 69.5 381 c 128,-1,13
 113 344 113 344 158 344 c 0,14,15
 211 344 211 344 252 385.5 c 128,-1,16
 293 427 293 427 293 491 c 0,17,18
 293 546 293 546 253.5 577.5 c 128,-1,19
 214 609 214 609 150 609 c 0,20,21
 108 609 108 609 67 565.5 c 128,-1,22
 26 522 26 522 26 479 c 0,11,12
460 208 m 0,23,24
 541 208 541 208 541 138 c 0,25,26
 541 107 541 107 520 80.5 c 128,-1,27
 499 54 499 54 459 54 c 0,28,29
 435 54 435 54 411 72.5 c 128,-1,30
 387 91 387 91 387 132 c 0,31,32
 387 162 387 162 408.5 185 c 128,-1,33
 430 208 430 208 460 208 c 0,23,24
331 135 m 0,34,35
 331 74 331 74 374.5 37 c 128,-1,36
 418 0 418 0 463 0 c 0,37,38
 516 0 516 0 557 41.5 c 128,-1,39
 598 83 598 83 598 147 c 0,40,41
 598 202 598 202 558.5 233.5 c 128,-1,42
 519 265 519 265 455 265 c 0,43,44
 413 265 413 265 372 221.5 c 128,-1,45
 331 178 331 178 331 135 c 0,34,35
327 412 m 0,46,47
 303 368 303 368 246 269.5 c 128,-1,48
 189 171 189 171 176 148 c 0,49,50
 161 122 161 122 139 82 c 0,51,52
 103 20 103 20 105 10 c 1,53,54
 116 0 116 0 153 0 c 0,55,56
 163 0 163 0 170.5 3 c 128,-1,57
 178 6 178 6 186.5 15.5 c 128,-1,58
 195 25 195 25 202.5 35.5 c 128,-1,59
 210 46 210 46 222 68 c 128,-1,60
 234 90 234 90 245 111.5 c 128,-1,61
 256 133 256 133 276.5 170.5 c 128,-1,62
 297 208 297 208 317 244 c 0,63,64
 356 314 356 314 399.5 390 c 128,-1,65
 443 466 443 466 455 488 c 0,66,67
 508 583 508 583 501 595 c 0,68,69
 498 600 498 600 473 600 c 0,70,71
 441 600 441 600 429 590 c 0,72,73
 415 578 415 578 368 489 c 0,74,75
 343 442 343 442 327 412 c 0,46,47
EndSplineSet
EndChar

StartChar: ampersand
Encoding: 38 38 11
Width: 640
Flags: W
LayerCount: 2
Fore
SplineSet
506 498 m 0,0,1
 529 498 529 498 536 494.5 c 128,-1,2
 543 491 543 491 543 480 c 128,-1,3
 543 469 543 469 536 441 c 128,-1,4
 529 413 529 413 519.5 379.5 c 128,-1,5
 510 346 510 346 507 335 c 1,6,7
 541 325 541 325 573 320 c 0,8,9
 616 314 616 314 622 304 c 0,10,11
 626 299 626 299 624 292 c 0,12,13
 620 277 620 277 604 269 c 128,-1,14
 588 261 588 261 568 262 c 0,15,16
 552 263 552 263 523.5 268.5 c 128,-1,17
 495 274 495 274 490 275 c 1,18,19
 488 267 488 267 481.5 246 c 128,-1,20
 475 225 475 225 470.5 208 c 128,-1,21
 466 191 466 191 461.5 168 c 128,-1,22
 457 145 457 145 458 127 c 128,-1,23
 459 109 459 109 464.5 93 c 128,-1,24
 470 77 470 77 485 68.5 c 128,-1,25
 500 60 500 60 524 60 c 0,26,27
 553 60 553 60 582 77 c 128,-1,28
 611 94 611 94 629.5 110.5 c 128,-1,29
 648 127 648 127 651 127 c 2,30,-1
 666 126 l 1,31,-1
 665 125 l 2,32,33
 661 123 661 123 661 120 c 0,34,35
 661 93 661 93 607 46.5 c 128,-1,36
 553 0 553 0 505 0 c 0,37,38
 479 0 479 0 459 6 c 128,-1,39
 439 12 439 12 427.5 24 c 128,-1,40
 416 36 416 36 407.5 48 c 128,-1,41
 399 60 399 60 397 79.5 c 128,-1,42
 395 99 395 99 394 113 c 128,-1,43
 393 127 393 127 396.5 148.5 c 128,-1,44
 400 170 400 170 402 180 c 128,-1,45
 404 190 404 190 408.5 208.5 c 128,-1,46
 413 227 413 227 413 228 c 0,47,48
 415 238 415 238 423 263 c 128,-1,49
 431 288 431 288 433 295 c 1,50,51
 410 311 410 311 410 326 c 0,52,53
 410 337 410 337 422.5 340.5 c 128,-1,54
 435 344 435 344 448 342 c 1,55,56
 450 349 450 349 465 399 c 0,57,58
 467 405 467 405 471 418.5 c 128,-1,59
 475 432 475 432 477 439 c 128,-1,60
 479 446 479 446 482.5 457 c 128,-1,61
 486 468 486 468 488.5 474 c 128,-1,62
 491 480 491 480 494 486 c 128,-1,63
 497 492 497 492 500 495 c 128,-1,64
 503 498 503 498 506 498 c 0,0,1
97 129 m 0,65,66
 87 190 87 190 138.5 238 c 128,-1,67
 190 286 190 286 243 286 c 0,68,69
 320 286 320 286 320 240 c 0,70,71
 320 217 320 217 294.5 192.5 c 128,-1,72
 269 168 269 168 229 151 c 0,73,74
 209 142 209 142 190.5 136.5 c 128,-1,75
 172 131 172 131 157 129.5 c 128,-1,76
 142 128 142 128 132 128 c 128,-1,77
 122 128 122 128 111 128.5 c 128,-1,78
 100 129 100 129 97 129 c 0,65,66
234 342 m 0,79,80
 160 342 160 342 97 283 c 128,-1,81
 34 224 34 224 34 135 c 0,82,83
 34 0 34 0 237 0 c 0,84,85
 317 0 317 0 369.5 38.5 c 128,-1,86
 422 77 422 77 422 111 c 0,87,88
 422 113 422 113 423.5 118 c 128,-1,89
 425 123 425 123 422.5 124 c 128,-1,90
 420 125 420 125 412 125 c 0,91,92
 406 125 406 125 386.5 107.5 c 128,-1,93
 367 90 367 90 332 72.5 c 128,-1,94
 297 55 297 55 254 55 c 0,95,96
 190 55 190 55 159 60.5 c 128,-1,97
 128 66 128 66 111 82 c 1,98,99
 149 74 149 74 192.5 82.5 c 128,-1,100
 236 91 236 91 263 107 c 0,101,102
 381 176 381 176 381 232 c 0,103,104
 381 342 381 342 234 342 c 0,79,80
EndSplineSet
EndChar

StartChar: quotesingle
Encoding: 39 39 12
Width: 223
Flags: W
LayerCount: 2
Fore
SplineSet
116 498 m 0,0,1
 93 498 93 498 78.5 551.5 c 128,-1,2
 64 605 64 605 64 638 c 0,3,4
 64 639 64 639 64 646 c 128,-1,5
 64 653 64 653 64 655 c 128,-1,6
 64 657 64 657 64.5 663.5 c 128,-1,7
 65 670 65 670 66 672.5 c 128,-1,8
 67 675 67 675 68.5 680.5 c 128,-1,9
 70 686 70 686 72 688.5 c 128,-1,10
 74 691 74 691 77.5 694.5 c 128,-1,11
 81 698 81 698 85.5 699.5 c 128,-1,12
 90 701 90 701 96.5 702.5 c 128,-1,13
 103 704 103 704 110 704 c 0,14,15
 154 704 154 704 154 604 c 0,16,17
 154 601 154 601 154 596 c 0,18,19
 154 576 154 576 153.5 564 c 128,-1,20
 153 552 153 552 150 534 c 128,-1,21
 147 516 147 516 138.5 507 c 128,-1,22
 130 498 130 498 116 498 c 0,0,1
EndSplineSet
EndChar

StartChar: parenleft
Encoding: 40 40 13
Width: 246
Flags: W
LayerCount: 2
Fore
SplineSet
40 284 m 0,0,1
 40 121 40 121 111 38 c 0,2,3
 148 -4 148 -4 177 2 c 0,4,5
 194 6 194 6 194 29 c 0,6,7
 194 49 194 49 184.5 62.5 c 128,-1,8
 175 76 175 76 161.5 88 c 128,-1,9
 148 100 148 100 134.5 117.5 c 128,-1,10
 121 135 121 135 111.5 173 c 128,-1,11
 102 211 102 211 102 266 c 0,12,13
 102 342 102 342 113.5 395 c 128,-1,14
 125 448 125 448 141.5 472 c 128,-1,15
 158 496 158 496 174 510.5 c 128,-1,16
 190 525 190 525 201.5 536.5 c 128,-1,17
 213 548 213 548 213 564 c 0,18,19
 213 591 213 591 185 587 c 0,20,21
 145 582 145 582 104 525 c 0,22,23
 40 434 40 434 40 284 c 0,0,1
EndSplineSet
EndChar

StartChar: parenright
Encoding: 41 41 14
Width: 282
Flags: W
LayerCount: 2
Fore
SplineSet
185 263 m 0,0,1
 185 209 185 209 169.5 170.5 c 128,-1,2
 154 132 154 132 132.5 112 c 128,-1,3
 111 92 111 92 89 77.5 c 128,-1,4
 67 63 67 63 51.5 47 c 128,-1,5
 36 31 36 31 36 11 c 0,6,7
 36 -7 36 -7 72 2 c 0,8,9
 130 18 130 18 179 80 c 0,10,11
 242 158 242 158 242 271 c 0,12,13
 242 476 242 476 146 558 c 0,14,15
 98 599 98 599 56 591 c 0,16,17
 35 587 35 587 35 571 c 0,18,19
 35 558 35 558 46 548.5 c 128,-1,20
 57 539 57 539 74 533 c 128,-1,21
 91 527 91 527 110 509.5 c 128,-1,22
 129 492 129 492 146 466.5 c 128,-1,23
 163 441 163 441 174 388.5 c 128,-1,24
 185 336 185 336 185 263 c 0,0,1
EndSplineSet
EndChar

StartChar: asterisk
Encoding: 42 42 15
Width: 414
Flags: W
LayerCount: 2
Fore
SplineSet
200 631 m 1,0,1
 198 633 198 633 191 642 c 128,-1,2
 184 651 184 651 182.5 653 c 128,-1,3
 181 655 181 655 175 662 c 128,-1,4
 169 669 169 669 167 670.5 c 128,-1,5
 165 672 165 672 159.5 677 c 128,-1,6
 154 682 154 682 151 683 c 128,-1,7
 148 684 148 684 142.5 687 c 128,-1,8
 137 690 137 690 132.5 690.5 c 128,-1,9
 128 691 128 691 122 692 c 128,-1,10
 116 693 116 693 109 693 c 0,11,12
 98 693 98 693 87.5 675 c 128,-1,13
 77 657 77 657 82 647 c 0,14,15
 88 635 88 635 93 628.5 c 128,-1,16
 98 622 98 622 101.5 618.5 c 128,-1,17
 105 615 105 615 116.5 606.5 c 128,-1,18
 128 598 128 598 138 589 c 1,19,-1
 109 589 l 2,20,21
 86 589 86 589 61.5 576 c 128,-1,22
 37 563 37 563 41 543 c 0,23,24
 49 503 49 503 145 518 c 1,25,26
 139 507 139 507 128 493 c 128,-1,27
 117 479 117 479 113 468 c 128,-1,28
 109 457 109 457 109 439 c 0,29,30
 109 425 109 425 120 414 c 128,-1,31
 131 403 131 403 145 403 c 0,32,33
 158 403 158 403 170 413.5 c 128,-1,34
 182 424 182 424 188.5 436 c 128,-1,35
 195 448 195 448 202.5 464 c 128,-1,36
 210 480 210 480 212 483 c 1,37,38
 216 480 216 480 227 464 c 128,-1,39
 238 448 238 448 251 437.5 c 128,-1,40
 264 427 264 427 280 427 c 0,41,42
 297 427 297 427 306.5 442 c 128,-1,43
 316 457 316 457 316 475 c 0,44,45
 316 490 316 490 275 521 c 2,46,-1
 269 526 l 1,47,-1
 320 526 l 1,48,49
 368 536 368 536 368 573 c 0,50,51
 368 614 368 614 299 597 c 0,52,53
 295 596 295 596 289 594 c 2,54,-1
 269 591 l 1,55,56
 269 591 269 591 274 595 c 0,57,58
 311 622 311 622 311 652 c 0,59,60
 311 669 311 669 303 682 c 128,-1,61
 295 695 295 695 281 695 c 0,62,63
 271 695 271 695 258 687 c 128,-1,64
 245 679 245 679 237 670.5 c 128,-1,65
 229 662 229 662 215.5 647.5 c 128,-1,66
 202 633 202 633 200 631 c 1,0,1
EndSplineSet
EndChar

StartChar: plus
Encoding: 43 43 16
Width: 476
Flags: W
LayerCount: 2
Fore
SplineSet
62 318 m 0,0,1
 62 315 62 315 61.5 306.5 c 128,-1,2
 61 298 61 298 61 292.5 c 128,-1,3
 61 287 61 287 62 280.5 c 128,-1,4
 63 274 63 274 66.5 271 c 128,-1,5
 70 268 70 268 76 268 c 0,6,7
 169 268 169 268 188 265 c 1,8,9
 187 211 187 211 187 206 c 0,10,11
 187 196 187 196 186.5 180.5 c 128,-1,12
 186 165 186 165 186 159 c 128,-1,13
 186 153 186 153 187 144.5 c 128,-1,14
 188 136 188 136 192 133.5 c 128,-1,15
 196 131 196 131 203 128.5 c 128,-1,16
 210 126 210 126 221 126 c 0,17,18
 245 126 245 126 256.5 130.5 c 128,-1,19
 268 135 268 135 270 138.5 c 128,-1,20
 272 142 272 142 270.5 155.5 c 128,-1,21
 269 169 269 169 269 172 c 0,22,23
 269 199 269 199 268 219.5 c 128,-1,24
 267 240 267 240 267 257 c 1,25,26
 276 257 276 257 310.5 255 c 128,-1,27
 345 253 345 253 354 253 c 0,28,29
 360 253 360 253 371.5 252.5 c 128,-1,30
 383 252 383 252 386.5 252.5 c 128,-1,31
 390 253 390 253 396 255 c 128,-1,32
 402 257 402 257 403 262.5 c 128,-1,33
 404 268 404 268 405.5 277.5 c 128,-1,34
 407 287 407 287 406 303 c 0,35,36
 405 322 405 322 399.5 327 c 128,-1,37
 394 332 394 332 374 332 c 0,38,39
 269 332 269 332 269 337 c 0,40,41
 269 358 269 358 269.5 380 c 128,-1,42
 270 402 270 402 270.5 415 c 128,-1,43
 271 428 271 428 271.5 441 c 128,-1,44
 272 454 272 454 271.5 460.5 c 128,-1,45
 271 467 271 467 268 472.5 c 128,-1,46
 265 478 265 478 260.5 480 c 128,-1,47
 256 482 256 482 248 482 c 0,48,49
 226 482 226 482 215.5 478.5 c 128,-1,50
 205 475 205 475 200 465.5 c 128,-1,51
 195 456 195 456 195 440.5 c 128,-1,52
 195 425 195 425 195 400.5 c 128,-1,53
 195 376 195 376 193 342 c 1,54,55
 172 342 172 342 152.5 343 c 128,-1,56
 133 344 133 344 111 344 c 0,57,58
 96 344 96 344 79 337 c 128,-1,59
 62 330 62 330 62 318 c 0,0,1
EndSplineSet
EndChar

StartChar: comma
Encoding: 44 44 17
Width: 184
Flags: W
LayerCount: 2
Fore
SplineSet
155 -15 m 0,0,1
 154 3 154 3 142 19.5 c 128,-1,2
 130 36 130 36 104 36 c 0,3,4
 91 36 91 36 84 28.5 c 128,-1,5
 77 21 77 21 76 14.5 c 128,-1,6
 75 8 75 8 75.5 -6 c 128,-1,7
 76 -20 76 -20 76 -21 c 0,8,9
 75 -50 75 -50 68 -68.5 c 128,-1,10
 61 -87 61 -87 52.5 -93 c 128,-1,11
 44 -99 44 -99 37 -105 c 128,-1,12
 30 -111 30 -111 30 -118 c 0,13,14
 30 -129 30 -129 33 -132.5 c 128,-1,15
 36 -136 36 -136 44 -136 c 0,16,17
 79 -136 79 -136 118 -101.5 c 128,-1,18
 157 -67 157 -67 155 -15 c 0,0,1
EndSplineSet
EndChar

StartChar: hyphen
Encoding: 45 45 18
Width: 424
Flags: W
LayerCount: 2
Fore
SplineSet
201 198 m 0,0,1
 188 198 188 198 166.5 199 c 128,-1,2
 145 200 145 200 135 200 c 128,-1,3
 125 200 125 200 113 197.5 c 128,-1,4
 101 195 101 195 96 187.5 c 128,-1,5
 91 180 91 180 91 167 c 0,6,7
 91 153 91 153 115 150 c 128,-1,8
 139 147 139 147 197 147 c 0,9,10
 212 147 212 147 220 147 c 0,11,12
 230 147 230 147 247 147 c 0,13,14
 272 147 272 147 283 147 c 128,-1,15
 294 147 294 147 306.5 148.5 c 128,-1,16
 319 150 319 150 323.5 153.5 c 128,-1,17
 328 157 328 157 328 163 c 0,18,19
 328 187 328 187 308 192.5 c 128,-1,20
 288 198 288 198 201 198 c 0,0,1
EndSplineSet
EndChar

StartChar: period
Encoding: 46 46 19
Width: 204
Flags: W
LayerCount: 2
Fore
SplineSet
50 19 m 0,0,1
 43 -6 43 -6 55 -24 c 128,-1,2
 67 -42 67 -42 85 -42 c 0,3,4
 124 -42 124 -42 139 29 c 0,5,6
 148 71 148 71 107 71 c 0,7,8
 93 71 93 71 75 57 c 128,-1,9
 57 43 57 43 50 19 c 0,0,1
EndSplineSet
EndChar

StartChar: slash
Encoding: 47 47 20
Width: 436
Flags: W
LayerCount: 2
Fore
SplineSet
241 412 m 0,0,1
 219 372 219 372 162.5 274.5 c 128,-1,2
 106 177 106 177 90 148 c 0,3,4
 74 118 74 118 49 75 c 0,5,6
 17 18 17 18 20 9 c 0,7,8
 28 0 28 0 67 0 c 0,9,10
 77 0 77 0 84.5 3 c 128,-1,11
 92 6 92 6 101.5 15.5 c 128,-1,12
 111 25 111 25 118 35.5 c 128,-1,13
 125 46 125 46 138 68.5 c 128,-1,14
 151 91 151 91 162 111.5 c 128,-1,15
 173 132 173 132 194.5 171 c 128,-1,16
 216 210 216 210 235 244 c 0,17,18
 277 319 277 319 319.5 397 c 128,-1,19
 362 475 362 475 369 488 c 0,20,21
 422 583 422 583 415 595 c 0,22,23
 412 600 412 600 387 600 c 0,24,25
 355 600 355 600 343 590 c 0,26,27
 329 578 329 578 282 489 c 0,28,29
 257 442 257 442 241 412 c 0,0,1
EndSplineSet
EndChar

StartChar: zero
Encoding: 48 48 21
Width: 470
Flags: W
LayerCount: 2
Fore
SplineSet
226 537 m 0,0,1
 264 537 264 537 288.5 513 c 128,-1,2
 313 489 313 489 324 445 c 128,-1,3
 335 401 335 401 338.5 362 c 128,-1,4
 342 323 342 323 342 272 c 0,5,6
 342 173 342 173 299 117.5 c 128,-1,7
 256 62 256 62 186 62 c 0,8,9
 142 62 142 62 115 119 c 128,-1,10
 88 176 88 176 88 262 c 0,11,12
 88 283 88 283 91 313 c 128,-1,13
 94 343 94 343 104 383.5 c 128,-1,14
 114 424 114 424 128 457 c 128,-1,15
 142 490 142 490 168 513.5 c 128,-1,16
 194 537 194 537 226 537 c 0,0,1
220 604 m 0,17,18
 165 604 165 604 123.5 564 c 128,-1,19
 82 524 82 524 62 466 c 128,-1,20
 42 408 42 408 33 359 c 128,-1,21
 24 310 24 310 24 276 c 0,22,23
 24 129 24 129 64.5 64.5 c 128,-1,24
 105 0 105 0 186 0 c 0,25,26
 402 0 402 0 402 280 c 0,27,28
 402 321 402 321 400 353 c 128,-1,29
 398 385 398 385 392.5 425.5 c 128,-1,30
 387 466 387 466 374 495 c 128,-1,31
 361 524 361 524 342 550.5 c 128,-1,32
 323 577 323 577 292 590.5 c 128,-1,33
 261 604 261 604 220 604 c 0,17,18
EndSplineSet
EndChar

StartChar: one
Encoding: 49 49 22
Width: 360
Flags: W
LayerCount: 2
Fore
SplineSet
149 352 m 0,0,1
 164 378 164 378 224 465 c 1,2,3
 228 397 228 397 229.5 262.5 c 128,-1,4
 231 128 231 128 234 71 c 0,5,6
 235 46 235 46 237 33.5 c 128,-1,7
 239 21 239 21 246 14.5 c 128,-1,8
 253 8 253 8 259.5 7 c 128,-1,9
 266 6 266 6 284 5 c 0,10,11
 306 4 306 4 310 11 c 128,-1,12
 314 18 314 18 311 51 c 0,13,14
 308 90 308 90 308 120 c 0,15,16
 307 197 307 197 302.5 348.5 c 128,-1,17
 298 500 298 500 298 541 c 0,18,19
 298 545 298 545 297 548 c 128,-1,20
 296 551 296 551 294.5 553.5 c 128,-1,21
 293 556 293 556 291 557 c 128,-1,22
 289 558 289 558 285.5 559 c 128,-1,23
 282 560 282 560 278 560 c 128,-1,24
 274 560 274 560 267.5 560 c 128,-1,25
 261 560 261 560 255.5 559.5 c 128,-1,26
 250 559 250 559 240 559 c 128,-1,27
 230 559 230 559 222 559 c 0,28,29
 197 559 197 559 187.5 550.5 c 128,-1,30
 178 542 178 542 157 507 c 0,31,32
 143 485 143 485 124 454.5 c 128,-1,33
 105 424 105 424 91 400 c 128,-1,34
 77 376 77 376 60 346 c 0,35,36
 53 333 53 333 49 323 c 128,-1,37
 45 313 45 313 43.5 305 c 128,-1,38
 42 297 42 297 45.5 292.5 c 128,-1,39
 49 288 49 288 57 288 c 0,40,41
 96 288 96 288 109.5 297.5 c 128,-1,42
 123 307 123 307 149 352 c 0,0,1
EndSplineSet
EndChar

StartChar: two
Encoding: 50 50 23
Width: 397
Flags: W
LayerCount: 2
Fore
SplineSet
20 422 m 0,0,1
 18 486 18 486 67.5 542 c 128,-1,2
 117 598 117 598 210 598 c 0,3,4
 294 598 294 598 333.5 566 c 128,-1,5
 373 534 373 534 373 465 c 0,6,7
 373 414 373 414 368 385 c 128,-1,8
 363 356 363 356 341 324.5 c 128,-1,9
 319 293 319 293 296 271 c 128,-1,10
 273 249 273 249 214 191.5 c 128,-1,11
 155 134 155 134 100 74 c 1,12,13
 151 67 151 67 191 67 c 0,14,15
 208 67 208 67 250 69.5 c 128,-1,16
 292 72 292 72 311 72 c 0,17,18
 320 72 320 72 333.5 74.5 c 128,-1,19
 347 77 347 77 354 78.5 c 128,-1,20
 361 80 361 80 367 75 c 128,-1,21
 373 70 373 70 373 57 c 0,22,23
 373 19 373 19 368 13 c 0,24,25
 360 3 360 3 301 3 c 0,26,27
 231 4 231 4 223 4 c 0,28,29
 202 4 202 4 163.5 3 c 128,-1,30
 125 2 125 2 105 2 c 128,-1,31
 85 2 85 2 61.5 4 c 128,-1,32
 38 6 38 6 27.5 12.5 c 128,-1,33
 17 19 17 19 17 30 c 0,34,35
 17 62 17 62 17 69 c 128,-1,36
 17 76 17 76 22.5 89.5 c 128,-1,37
 28 103 28 103 34.5 106.5 c 128,-1,38
 41 110 41 110 62.5 131.5 c 128,-1,39
 84 153 84 153 108 179 c 0,40,41
 150 226 150 226 198 272 c 128,-1,42
 246 318 246 318 264 336 c 128,-1,43
 282 354 282 354 294.5 381.5 c 128,-1,44
 307 409 307 409 307 446 c 0,45,46
 307 488 307 488 282 512.5 c 128,-1,47
 257 537 257 537 207 537 c 0,48,49
 151 537 151 537 120 505.5 c 128,-1,50
 89 474 89 474 84 434 c 0,51,52
 82 416 82 416 83.5 404 c 128,-1,53
 85 392 85 392 81 385.5 c 128,-1,54
 77 379 77 379 61 379 c 128,-1,55
 45 379 45 379 37 379.5 c 128,-1,56
 29 380 29 380 25 384.5 c 128,-1,57
 21 389 21 389 20.5 390.5 c 128,-1,58
 20 392 20 392 20 404 c 128,-1,59
 20 416 20 416 20 422 c 0,0,1
EndSplineSet
EndChar

StartChar: three
Encoding: 51 51 24
Width: 397
Flags: W
LayerCount: 2
Fore
SplineSet
320 446 m 0,0,1
 320 486 320 486 289 511.5 c 128,-1,2
 258 537 258 537 207 537 c 0,3,4
 159 537 159 537 126 518 c 128,-1,5
 93 499 93 499 88 476 c 0,6,7
 84 458 84 458 86 446 c 128,-1,8
 88 434 88 434 84.5 427.5 c 128,-1,9
 81 421 81 421 65 421 c 0,10,11
 46 421 46 421 38 423.5 c 128,-1,12
 30 426 30 426 27.5 428 c 128,-1,13
 25 430 25 430 25 443.5 c 128,-1,14
 25 457 25 457 24 464 c 0,15,16
 19 507 19 507 71.5 552.5 c 128,-1,17
 124 598 124 598 210 598 c 0,18,19
 290 598 290 598 334 554.5 c 128,-1,20
 378 511 378 511 378 446 c 0,21,22
 378 383 378 383 358 346 c 128,-1,23
 338 309 338 309 314 302 c 1,24,25
 380 255 380 255 380 143 c 0,26,27
 380 0 380 0 180 0 c 0,28,29
 106 0 106 0 66 28.5 c 128,-1,30
 26 57 26 57 26 98 c 0,31,32
 26 100 26 100 25 109.5 c 128,-1,33
 24 119 24 119 24.5 125.5 c 128,-1,34
 25 132 25 132 26.5 139.5 c 128,-1,35
 28 147 28 147 34 151.5 c 128,-1,36
 40 156 40 156 50 156 c 0,37,38
 53 156 53 156 53.5 155.5 c 128,-1,39
 54 155 54 155 54 152 c 1,40,41
 86 153 86 153 86 140 c 0,42,43
 86 58 86 58 142 58 c 0,44,45
 165 58 165 58 176 58.5 c 128,-1,46
 187 59 187 59 213 60.5 c 128,-1,47
 239 62 239 62 254 67.5 c 128,-1,48
 269 73 269 73 286.5 82 c 128,-1,49
 304 91 304 91 312.5 106 c 128,-1,50
 321 121 321 121 321 142 c 0,51,52
 321 213 321 213 292 245.5 c 128,-1,53
 263 278 263 278 184 278 c 0,54,55
 177 278 177 278 168.5 277.5 c 128,-1,56
 160 277 160 277 155 277 c 128,-1,57
 150 277 150 277 144 277.5 c 128,-1,58
 138 278 138 278 135 279 c 128,-1,59
 132 280 132 280 129 282 c 128,-1,60
 126 284 126 284 125 288 c 128,-1,61
 124 292 124 292 124 297 c 0,62,63
 124 309 124 309 126.5 317 c 128,-1,64
 129 325 129 325 130.5 329.5 c 128,-1,65
 132 334 132 334 139 336 c 128,-1,66
 146 338 146 338 148.5 338.5 c 128,-1,67
 151 339 151 339 162 338.5 c 128,-1,68
 173 338 173 338 176 338 c 128,-1,69
 179 338 179 338 203.5 337 c 128,-1,70
 228 336 228 336 237.5 337 c 128,-1,71
 247 338 247 338 266.5 343.5 c 128,-1,72
 286 349 286 349 295 360 c 128,-1,73
 304 371 304 371 312 393 c 128,-1,74
 320 415 320 415 320 446 c 0,0,1
EndSplineSet
EndChar

StartChar: four
Encoding: 52 52 25
Width: 460
Flags: W
LayerCount: 2
Fore
SplineSet
328 352 m 2,0,1
 328 352 328 352 330 245 c 1,2,3
 375 247 375 247 406 247 c 0,4,5
 421 247 421 247 424 240 c 128,-1,6
 427 233 427 233 427 210 c 0,7,8
 427 208 427 208 427 204 c 0,9,10
 427 191 427 191 426.5 186 c 128,-1,11
 426 181 426 181 422 178 c 128,-1,12
 418 175 418 175 409 175 c 2,13,-1
 325 176 l 1,14,15
 326 155 326 155 326 76 c 0,16,17
 326 65 326 65 327 48 c 128,-1,18
 328 31 328 31 327.5 25.5 c 128,-1,19
 327 20 327 20 324 12.5 c 128,-1,20
 321 5 321 5 314 3 c 128,-1,21
 307 1 307 1 294 1 c 0,22,23
 288 1 288 1 280.5 0.5 c 128,-1,24
 273 0 273 0 269.5 -0.5 c 128,-1,25
 266 -1 266 -1 262 0.5 c 128,-1,26
 258 2 258 2 256.5 6 c 128,-1,27
 255 10 255 10 254.5 18 c 128,-1,28
 254 26 254 26 254 38 c 0,29,30
 255 63 255 63 255 174 c 1,31,32
 243 170 243 170 121 170 c 0,33,34
 49 170 49 170 38 176 c 0,35,36
 26 183 26 183 26 205 c 0,37,38
 26 217 26 217 26 223 c 128,-1,39
 26 229 26 229 29 239 c 128,-1,40
 32 249 32 249 34.5 254.5 c 128,-1,41
 37 260 37 260 46 276 c 128,-1,42
 55 292 55 292 63.5 305 c 128,-1,43
 72 318 72 318 91 348.5 c 128,-1,44
 110 379 110 379 127 408 c 0,45,46
 149 444 149 444 180 498 c 0,47,48
 230 582 230 582 244 593 c 0,49,50
 253 600 253 600 266 600 c 0,51,52
 307 600 307 600 311 591.5 c 128,-1,53
 315 583 315 583 294 558 c 0,54,55
 275 530 275 530 264 510 c 0,56,57
 205 405 205 405 97 237 c 1,58,59
 151 242 151 242 257 242 c 1,60,-1
 257 350 l 2,61,62
 257 363 257 363 289 363 c 0,63,64
 292 363 292 363 299.5 363.5 c 128,-1,65
 307 364 307 364 310.5 363.5 c 128,-1,66
 314 363 314 363 319 362 c 128,-1,67
 324 361 324 361 326 358.5 c 128,-1,68
 328 356 328 356 328 352 c 2,0,1
EndSplineSet
EndChar

StartChar: five
Encoding: 53 53 26
Width: 413
Flags: W
LayerCount: 2
Fore
SplineSet
210 598 m 0,0,1
 345 598 345 598 357 596 c 0,2,3
 377 592 377 592 379 576 c 0,4,5
 380 571 380 571 380 563 c 0,6,7
 380 561 380 561 380 559 c 0,8,9
 380 547 380 547 379 542 c 128,-1,10
 378 537 378 537 372 533.5 c 128,-1,11
 366 530 366 530 353 530 c 0,12,13
 337 530 337 530 291 533.5 c 128,-1,14
 245 537 245 537 207 537 c 0,15,16
 191 537 191 537 174.5 537.5 c 128,-1,17
 158 538 158 538 149 540 c 128,-1,18
 140 542 140 542 130.5 541 c 128,-1,19
 121 540 121 540 117 541 c 128,-1,20
 113 542 113 542 108.5 537 c 128,-1,21
 104 532 104 532 103 530.5 c 128,-1,22
 102 529 102 529 101 517.5 c 128,-1,23
 100 506 100 506 100.5 498.5 c 128,-1,24
 101 491 101 491 101 471 c 128,-1,25
 101 451 101 451 101 435 c 0,26,27
 101 418 101 418 100 398.5 c 128,-1,28
 99 379 99 379 99 371.5 c 128,-1,29
 99 364 99 364 100 355.5 c 128,-1,30
 101 347 101 347 105.5 345 c 128,-1,31
 110 343 110 343 117 341.5 c 128,-1,32
 124 340 124 340 138 340 c 0,33,34
 253 340 253 340 317.5 298 c 128,-1,35
 382 256 382 256 382 169 c 0,36,37
 382 98 382 98 335 49 c 128,-1,38
 288 0 288 0 180 0 c 0,39,40
 74 0 74 0 48 6.5 c 128,-1,41
 22 13 22 13 22 42 c 0,42,43
 22 53 22 53 22.5 59.5 c 128,-1,44
 23 66 23 66 24 70 c 128,-1,45
 25 74 25 74 27.5 75.5 c 128,-1,46
 30 77 30 77 31.5 77.5 c 128,-1,47
 33 78 33 78 38.5 77.5 c 128,-1,48
 44 77 44 77 47 77 c 0,49,50
 63 77 63 77 95 70.5 c 128,-1,51
 127 64 127 64 183 64 c 0,52,53
 245 64 245 64 282.5 89.5 c 128,-1,54
 320 115 320 115 320 168 c 0,55,56
 320 234 320 234 262 256.5 c 128,-1,57
 204 279 204 279 79 279 c 0,58,59
 43 279 43 279 36.5 292 c 128,-1,60
 30 305 30 305 31 367 c 0,61,62
 31 398 31 398 31 418 c 0,63,64
 31 443 31 443 30.5 474.5 c 128,-1,65
 30 506 30 506 29 519.5 c 128,-1,66
 28 533 28 533 30.5 551 c 128,-1,67
 33 569 33 569 33.5 574 c 128,-1,68
 34 579 34 579 42 588 c 128,-1,69
 50 597 50 597 55.5 597 c 128,-1,70
 61 597 61 597 79 599.5 c 128,-1,71
 97 602 97 602 110.5 600.5 c 128,-1,72
 124 599 124 599 154 598.5 c 128,-1,73
 184 598 184 598 210 598 c 0,0,1
EndSplineSet
EndChar

StartChar: six
Encoding: 54 54 27
Width: 460
Flags: W
LayerCount: 2
Fore
SplineSet
239 540 m 0,0,1
 198 540 198 540 170 512.5 c 128,-1,2
 142 485 142 485 133 442 c 128,-1,3
 124 399 124 399 124 348.5 c 128,-1,4
 124 298 124 298 121 276 c 1,5,6
 167 340 167 340 263 340 c 0,7,8
 306 340 306 340 338.5 321.5 c 128,-1,9
 371 303 371 303 387.5 275 c 128,-1,10
 404 247 404 247 412 220.5 c 128,-1,11
 420 194 420 194 420 171 c 0,12,13
 420 89 420 89 374 44.5 c 128,-1,14
 328 0 328 0 253 0 c 0,15,16
 157 0 157 0 108.5 31.5 c 128,-1,17
 60 63 60 63 60 147 c 0,18,19
 60 184 60 184 59.5 226.5 c 128,-1,20
 59 269 59 269 58.5 286.5 c 128,-1,21
 58 304 58 304 59.5 330.5 c 128,-1,22
 61 357 61 357 65 382 c 128,-1,23
 69 407 69 407 77 445 c 0,24,25
 90 509 90 509 134 553 c 128,-1,26
 178 597 178 597 234 597 c 0,27,28
 314 597 314 597 361 559.5 c 128,-1,29
 408 522 408 522 408 470 c 0,30,31
 408 450 408 450 401 444 c 128,-1,32
 394 438 394 438 372 438 c 0,33,34
 346 435 346 435 346 476 c 0,35,36
 346 498 346 498 317.5 519 c 128,-1,37
 289 540 289 540 239 540 c 0,0,1
243 286 m 0,38,39
 201 286 201 286 160.5 247.5 c 128,-1,40
 120 209 120 209 120 148 c 0,41,42
 120 106 120 106 151.5 83 c 128,-1,43
 183 60 183 60 219 60 c 0,44,45
 286 60 286 60 322 82.5 c 128,-1,46
 358 105 358 105 358 167 c 0,47,48
 358 224 358 224 317 255 c 128,-1,49
 276 286 276 286 243 286 c 0,38,39
EndSplineSet
EndChar

StartChar: seven
Encoding: 55 55 28
Width: 476
Flags: W
LayerCount: 2
Fore
SplineSet
62 318 m 0,0,1
 62 315 62 315 61.5 306.5 c 128,-1,2
 61 298 61 298 61 292.5 c 128,-1,3
 61 287 61 287 62 280.5 c 128,-1,4
 63 274 63 274 66.5 271 c 128,-1,5
 70 268 70 268 76 268 c 0,6,7
 175 268 175 268 188 266 c 1,8,9
 180 250 180 250 170 227.5 c 128,-1,10
 160 205 160 205 151.5 186.5 c 128,-1,11
 143 168 143 168 132 148 c 0,12,13
 72 36 72 36 78 13 c 0,14,15
 82 0 82 0 106 0 c 0,16,17
 134 0 134 0 142 1.5 c 128,-1,18
 150 3 150 3 154 5 c 128,-1,19
 158 7 158 7 162 21.5 c 128,-1,20
 166 36 166 36 172 49 c 0,21,22
 261 231 261 231 273 252 c 1,23,24
 282 252 282 252 315 250 c 128,-1,25
 348 248 348 248 357 248 c 0,26,27
 363 248 363 248 374.5 247.5 c 128,-1,28
 386 247 386 247 389.5 247.5 c 128,-1,29
 393 248 393 248 399 250 c 128,-1,30
 405 252 405 252 406 257.5 c 128,-1,31
 407 263 407 263 408.5 272.5 c 128,-1,32
 410 282 410 282 409 298 c 0,33,34
 408 317 408 317 402.5 322 c 128,-1,35
 397 327 397 327 377 327 c 0,36,37
 376 327 376 327 367 326 c 0,38,39
 313 323 313 323 313 328 c 0,40,41
 319 339 319 339 347 392 c 128,-1,42
 375 445 375 445 399 485 c 0,43,44
 401 488 401 488 407.5 498.5 c 128,-1,45
 414 509 414 509 416.5 513.5 c 128,-1,46
 419 518 419 518 423.5 526.5 c 128,-1,47
 428 535 428 535 429.5 541.5 c 128,-1,48
 431 548 431 548 431 555 c 0,49,50
 431 585 431 585 418.5 590.5 c 128,-1,51
 406 596 406 596 353 599 c 0,52,53
 301 602 301 602 231.5 598 c 128,-1,54
 162 594 162 594 135 594 c 0,55,56
 117 594 117 594 97 594.5 c 128,-1,57
 77 595 77 595 69 596.5 c 128,-1,58
 61 598 61 598 52 595 c 128,-1,59
 43 592 43 592 41 592.5 c 128,-1,60
 39 593 39 593 36.5 584 c 128,-1,61
 34 575 34 575 34 570.5 c 128,-1,62
 34 566 34 566 34 548 c 0,63,64
 34 531 34 531 43 523 c 128,-1,65
 52 515 52 515 60.5 514.5 c 128,-1,66
 69 514 69 514 93 514 c 0,67,68
 110 514 110 514 151 520 c 128,-1,69
 192 526 192 526 221 526 c 0,70,71
 233 526 233 526 251 526.5 c 128,-1,72
 269 527 269 527 280.5 527 c 128,-1,73
 292 527 292 527 304.5 526.5 c 128,-1,74
 317 526 317 526 325 525.5 c 128,-1,75
 333 525 333 525 337 523 c 1,76,77
 246 360 246 360 226 336 c 1,78,79
 205 336 205 336 169 340 c 128,-1,80
 133 344 133 344 111 344 c 0,81,82
 96 344 96 344 79 337 c 128,-1,83
 62 330 62 330 62 318 c 0,0,1
EndSplineSet
EndChar

StartChar: eight
Encoding: 56 56 29
Width: 460
Flags: W
LayerCount: 2
Fore
SplineSet
243 286 m 0,0,1
 276 286 276 286 317 255 c 128,-1,2
 358 224 358 224 358 167 c 0,3,4
 358 105 358 105 322 82.5 c 128,-1,5
 286 60 286 60 219 60 c 0,6,7
 183 60 183 60 151.5 83 c 128,-1,8
 120 106 120 106 120 148 c 0,9,10
 120 209 120 209 160.5 247.5 c 128,-1,11
 201 286 201 286 243 286 c 0,0,1
226 543 m 0,12,13
 282 543 282 543 306.5 517.5 c 128,-1,14
 331 492 331 492 331 460 c 0,15,16
 331 410 331 410 305 375 c 128,-1,17
 279 340 279 340 225 340 c 0,18,19
 214 340 214 340 199 344 c 128,-1,20
 184 348 184 348 165 358.5 c 128,-1,21
 146 369 146 369 133 391.5 c 128,-1,22
 120 414 120 414 120 445 c 128,-1,23
 120 476 120 476 153.5 509.5 c 128,-1,24
 187 543 187 543 226 543 c 0,12,13
64 448 m 0,25,26
 64 350 64 350 138 306 c 1,27,28
 137 305 137 305 126 293 c 128,-1,29
 115 281 115 281 112.5 277.5 c 128,-1,30
 110 274 110 274 100.5 262 c 128,-1,31
 91 250 91 250 87.5 243 c 128,-1,32
 84 236 84 236 77 223 c 128,-1,33
 70 210 70 210 67.5 200 c 128,-1,34
 65 190 65 190 62.5 175.5 c 128,-1,35
 60 161 60 161 60 147 c 0,36,37
 60 63 60 63 108.5 31.5 c 128,-1,38
 157 0 157 0 253 0 c 0,39,40
 328 0 328 0 374 44.5 c 128,-1,41
 420 89 420 89 420 171 c 0,42,43
 420 225 420 225 397 269.5 c 128,-1,44
 374 314 374 314 341 319 c 1,45,46
 394 364 394 364 394 460 c 0,47,48
 394 524 394 524 350 562 c 128,-1,49
 306 600 306 600 221 600 c 0,50,51
 165 600 165 600 114.5 550.5 c 128,-1,52
 64 501 64 501 64 448 c 0,25,26
EndSplineSet
EndChar

StartChar: nine
Encoding: 57 57 30
Width: 470
Flags: W
LayerCount: 2
Fore
SplineSet
390 180 m 0,0,1
 387 270 387 270 395 463 c 0,2,3
 398 531 398 531 355.5 567.5 c 128,-1,4
 313 604 313 604 220 604 c 0,5,6
 141 604 141 604 84.5 546.5 c 128,-1,7
 28 489 28 489 28 410 c 0,8,9
 28 277 28 277 194 277 c 0,10,11
 235 277 235 277 268.5 286.5 c 128,-1,12
 302 296 302 296 315 305 c 2,13,-1
 328 314 l 1,14,15
 330 284 330 284 330 254 c 128,-1,16
 330 224 330 224 329 193 c 128,-1,17
 328 162 328 162 328 147 c 0,18,19
 328 111 328 111 284 84.5 c 128,-1,20
 240 58 240 58 174 58 c 0,21,22
 141 58 141 58 113.5 84 c 128,-1,23
 86 110 86 110 86 140 c 0,24,25
 86 146 86 146 78 149 c 128,-1,26
 70 152 70 152 62 152 c 2,27,-1
 54 152 l 1,28,29
 52 156 52 156 50 156 c 0,30,31
 40 156 40 156 34 151.5 c 128,-1,32
 28 147 28 147 26.5 139.5 c 128,-1,33
 25 132 25 132 24.5 125.5 c 128,-1,34
 24 119 24 119 25 109.5 c 128,-1,35
 26 100 26 100 26 98 c 0,36,37
 26 71 26 71 73 35.5 c 128,-1,38
 120 0 120 0 180 0 c 0,39,40
 232 0 232 0 278 16.5 c 128,-1,41
 324 33 324 33 358 75.5 c 128,-1,42
 392 118 392 118 390 180 c 0,0,1
226 540 m 0,43,44
 334 540 334 540 334 430 c 0,45,46
 334 394 334 394 306.5 368 c 128,-1,47
 279 342 279 342 216 342 c 0,48,49
 183 342 183 342 165 344 c 128,-1,50
 147 346 147 346 129 354.5 c 128,-1,51
 111 363 111 363 103.5 382 c 128,-1,52
 96 401 96 401 96 432 c 0,53,54
 96 473 96 473 140.5 506.5 c 128,-1,55
 185 540 185 540 226 540 c 0,43,44
EndSplineSet
EndChar

StartChar: colon
Encoding: 58 58 31
Width: 228
Flags: W
LayerCount: 2
Fore
SplineSet
63 288 m 0,0,1
 56 263 56 263 68 245 c 128,-1,2
 80 227 80 227 98 227 c 0,3,4
 137 227 137 227 152 298 c 0,5,6
 161 340 161 340 120 340 c 0,7,8
 106 340 106 340 88 326 c 128,-1,9
 70 312 70 312 63 288 c 0,0,1
58 19 m 0,10,11
 51 -6 51 -6 63 -24 c 128,-1,12
 75 -42 75 -42 93 -42 c 0,13,14
 132 -42 132 -42 147 29 c 0,15,16
 156 71 156 71 115 71 c 0,17,18
 101 71 101 71 83 57 c 128,-1,19
 65 43 65 43 58 19 c 0,10,11
EndSplineSet
EndChar

StartChar: semicolon
Encoding: 59 59 32
Width: 228
Flags: W
LayerCount: 2
Fore
SplineSet
155 -15 m 0,0,1
 154 3 154 3 142 19.5 c 128,-1,2
 130 36 130 36 104 36 c 0,3,4
 91 36 91 36 84 28.5 c 128,-1,5
 77 21 77 21 76 14.5 c 128,-1,6
 75 8 75 8 75.5 -6 c 128,-1,7
 76 -20 76 -20 76 -21 c 0,8,9
 75 -50 75 -50 68 -68.5 c 128,-1,10
 61 -87 61 -87 52.5 -93 c 128,-1,11
 44 -99 44 -99 37 -105 c 128,-1,12
 30 -111 30 -111 30 -118 c 0,13,14
 30 -129 30 -129 33 -132.5 c 128,-1,15
 36 -136 36 -136 44 -136 c 0,16,17
 79 -136 79 -136 118 -101.5 c 128,-1,18
 157 -67 157 -67 155 -15 c 0,0,1
63 288 m 0,19,20
 56 263 56 263 68 245 c 128,-1,21
 80 227 80 227 98 227 c 0,22,23
 137 227 137 227 152 298 c 0,24,25
 161 340 161 340 120 340 c 0,26,27
 106 340 106 340 88 326 c 128,-1,28
 70 312 70 312 63 288 c 0,19,20
EndSplineSet
EndChar

StartChar: less
Encoding: 60 60 33
Width: 544
Flags: W
LayerCount: 2
Fore
SplineSet
247 284 m 0,0,1
 202 274 202 274 138 260 c 0,2,3
 58 243 58 243 44 237 c 128,-1,4
 30 231 30 231 30 214 c 0,5,6
 30 188 30 188 48 177 c 128,-1,7
 66 166 66 166 172 128 c 0,8,9
 222 110 222 110 253 99 c 0,10,11
 452 27 452 27 476 26 c 0,12,13
 491 25 491 25 492 38 c 0,14,15
 492 39 492 39 492 53 c 0,16,17
 492 60 492 60 491.5 63.5 c 128,-1,18
 491 67 491 67 490 71.5 c 128,-1,19
 489 76 489 76 485 78 c 128,-1,20
 481 80 481 80 476.5 82.5 c 128,-1,21
 472 85 472 85 462.5 87.5 c 128,-1,22
 453 90 453 90 442.5 93.5 c 128,-1,23
 432 97 432 97 415 101.5 c 128,-1,24
 398 106 398 106 379 111.5 c 128,-1,25
 360 117 360 117 332.5 125.5 c 128,-1,26
 305 134 305 134 275 144 c 0,27,28
 132 191 132 191 100 204 c 1,29,30
 106 206 106 206 260 237 c 0,31,32
 330 251 330 251 414 267 c 0,33,34
 479 278 479 278 489.5 282.5 c 128,-1,35
 500 287 500 287 500 303 c 0,36,37
 499 335 499 335 493 339 c 0,38,39
 484 344 484 344 418 326 c 0,40,41
 324 301 324 301 247 284 c 0,0,1
EndSplineSet
EndChar

StartChar: equal
Encoding: 61 61 34
Width: 576
Flags: W
LayerCount: 2
Fore
SplineSet
232 179 m 0,0,1
 228 179 228 179 221 179 c 0,2,3
 132 179 132 179 108 173.5 c 128,-1,4
 84 168 84 168 84 141 c 0,5,6
 84 136 84 136 87 133 c 128,-1,7
 90 130 90 130 97.5 128.5 c 128,-1,8
 105 127 105 127 114 126.5 c 128,-1,9
 123 126 123 126 138.5 126 c 128,-1,10
 154 126 154 126 168.5 126.5 c 128,-1,11
 183 127 183 127 206.5 127.5 c 128,-1,12
 230 128 230 128 251 128 c 0,13,14
 312 128 312 128 394 126 c 0,15,16
 459 125 459 125 477 126.5 c 128,-1,17
 495 128 495 128 495 138 c 0,18,19
 495 168 495 168 456.5 173.5 c 128,-1,20
 418 179 418 179 248 179 c 0,21,22
 237 179 237 179 232 179 c 0,0,1
285 48 m 0,23,24
 275 48 275 48 256 48 c 0,25,26
 135 48 135 48 109.5 43 c 128,-1,27
 84 38 84 38 84 11 c 0,28,29
 84 7 84 7 89 4.5 c 128,-1,30
 94 2 94 2 104.5 1 c 128,-1,31
 115 0 115 0 126 -1 c 128,-1,32
 137 -2 137 -2 154.5 -2 c 128,-1,33
 172 -2 172 -2 185.5 -2 c 128,-1,34
 199 -2 199 -2 219.5 -2 c 128,-1,35
 240 -2 240 -2 251 -2 c 0,36,37
 293 -2 293 -2 359 -3 c 0,38,39
 442 -4 442 -4 468.5 -1 c 128,-1,40
 495 2 495 2 495 17 c 0,41,42
 495 41 495 41 479 45.5 c 128,-1,43
 463 50 463 50 384 49 c 0,44,45
 325 48 325 48 285 48 c 0,23,24
EndSplineSet
EndChar

StartChar: greater
Encoding: 62 62 35
Width: 544
Flags: W
LayerCount: 2
Fore
SplineSet
283 284 m 0,0,1
 328 274 328 274 392 260 c 0,2,3
 472 243 472 243 486 237 c 128,-1,4
 500 231 500 231 500 214 c 0,5,6
 500 188 500 188 482 177 c 128,-1,7
 464 166 464 166 358 128 c 0,8,9
 308 110 308 110 277 99 c 0,10,11
 78 27 78 27 54 26 c 0,12,13
 39 25 39 25 38 38 c 0,14,15
 38 39 38 39 38 53 c 0,16,17
 38 60 38 60 38.5 63.5 c 128,-1,18
 39 67 39 67 40 71.5 c 128,-1,19
 41 76 41 76 45 78 c 128,-1,20
 49 80 49 80 53.5 82.5 c 128,-1,21
 58 85 58 85 67.5 87.5 c 128,-1,22
 77 90 77 90 87.5 93.5 c 128,-1,23
 98 97 98 97 115 101.5 c 128,-1,24
 132 106 132 106 151 111.5 c 128,-1,25
 170 117 170 117 197.5 125.5 c 128,-1,26
 225 134 225 134 255 144 c 0,27,28
 398 191 398 191 430 204 c 1,29,30
 424 206 424 206 270 237 c 0,31,32
 200 251 200 251 116 267 c 0,33,34
 51 278 51 278 40.5 282.5 c 128,-1,35
 30 287 30 287 30 303 c 0,36,37
 31 335 31 335 37 339 c 0,38,39
 46 344 46 344 112 326 c 0,40,41
 206 301 206 301 283 284 c 0,0,1
EndSplineSet
EndChar

StartChar: question
Encoding: 63 63 36
Width: 397
Flags: W
LayerCount: 2
Fore
SplineSet
139 19 m 0,0,1
 132 -6 132 -6 144 -24 c 128,-1,2
 156 -42 156 -42 174 -42 c 0,3,4
 213 -42 213 -42 228 29 c 0,5,6
 237 71 237 71 196 71 c 0,7,8
 182 71 182 71 164 57 c 128,-1,9
 146 43 146 43 139 19 c 0,0,1
20 422 m 0,10,11
 20 443 20 443 31 471.5 c 128,-1,12
 42 500 42 500 63.5 529 c 128,-1,13
 85 558 85 558 124 578 c 128,-1,14
 163 598 163 598 210 598 c 0,15,16
 294 598 294 598 333.5 566 c 128,-1,17
 373 534 373 534 373 465 c 0,18,19
 373 420 373 420 357 381.5 c 128,-1,20
 341 343 341 343 318 316.5 c 128,-1,21
 295 290 295 290 272 267 c 128,-1,22
 249 244 249 244 233 219 c 128,-1,23
 217 194 217 194 217 170 c 0,24,25
 217 154 217 154 208.5 144 c 128,-1,26
 200 134 200 134 190 134 c 0,27,28
 166 134 166 134 156.5 137.5 c 128,-1,29
 147 141 147 141 146 144.5 c 128,-1,30
 145 148 145 148 147.5 162 c 128,-1,31
 150 176 150 176 150 186 c 0,32,33
 150 216 150 216 166 246.5 c 128,-1,34
 182 277 182 277 205 301.5 c 128,-1,35
 228 326 228 326 251.5 349.5 c 128,-1,36
 275 373 275 373 291 398 c 128,-1,37
 307 423 307 423 307 446 c 0,38,39
 307 488 307 488 282 512.5 c 128,-1,40
 257 537 257 537 207 537 c 0,41,42
 152 537 152 537 126.5 509.5 c 128,-1,43
 101 482 101 482 84 434 c 0,44,45
 78 417 78 417 80.5 405 c 128,-1,46
 83 393 83 393 79.5 386 c 128,-1,47
 76 379 76 379 61 379 c 0,48,49
 45 379 45 379 37 379.5 c 128,-1,50
 29 380 29 380 25 384.5 c 128,-1,51
 21 389 21 389 20 390.5 c 128,-1,52
 19 392 19 392 19.5 404.5 c 128,-1,53
 20 417 20 417 20 422 c 0,10,11
EndSplineSet
EndChar

StartChar: at
Encoding: 64 64 37
Width: 706
Flags: W
LayerCount: 2
Fore
SplineSet
314 0 m 0,0,1
 167 0 167 0 103.5 64.5 c 128,-1,2
 40 129 40 129 40 284 c 0,3,4
 40 432 40 432 136.5 517 c 128,-1,5
 233 602 233 602 382 602 c 0,6,7
 522 602 522 602 582 540.5 c 128,-1,8
 642 479 642 479 642 334 c 0,9,10
 642 122 642 122 486 122 c 0,11,12
 445 122 445 122 428 147 c 1,13,14
 421 140 421 140 413.5 135 c 128,-1,15
 406 130 406 130 397 127 c 128,-1,16
 388 124 388 124 382.5 122.5 c 128,-1,17
 377 121 377 121 367 120 c 128,-1,18
 357 119 357 119 354 119 c 128,-1,19
 351 119 351 119 340 119 c 2,20,-1
 330 119 l 2,21,22
 256 119 256 119 217 156 c 128,-1,23
 178 193 178 193 178 263 c 0,24,25
 178 346 178 346 236 402.5 c 128,-1,26
 294 459 294 459 373 459 c 0,27,28
 397 459 397 459 409.5 458 c 128,-1,29
 422 457 422 457 435 450.5 c 128,-1,30
 448 444 448 444 453 432 c 1,31,32
 460 447 460 447 486 447 c 0,33,34
 514 447 514 447 503 374 c 0,35,36
 499 350 499 350 494 318.5 c 128,-1,37
 489 287 489 287 484 260 c 128,-1,38
 479 233 479 233 478 225 c 0,39,40
 470 173 470 173 495 173 c 0,41,42
 526 173 526 173 546.5 199 c 128,-1,43
 567 225 567 225 575.5 262 c 128,-1,44
 584 299 584 299 584 344 c 0,45,46
 584 364 584 364 583.5 375 c 128,-1,47
 583 386 583 386 579.5 409 c 128,-1,48
 576 432 576 432 569 446.5 c 128,-1,49
 562 461 562 461 547.5 480.5 c 128,-1,50
 533 500 533 500 512 511 c 128,-1,51
 491 522 491 522 458.5 530 c 128,-1,52
 426 538 426 538 384 538 c 0,53,54
 306 538 306 538 249 515.5 c 128,-1,55
 192 493 192 493 161 454 c 128,-1,56
 130 415 130 415 115.5 368.5 c 128,-1,57
 101 322 101 322 101 266 c 0,58,59
 101 211 101 211 114.5 171 c 128,-1,60
 128 131 128 131 148 109 c 128,-1,61
 168 87 168 87 198 74 c 128,-1,62
 228 61 228 61 253.5 57.5 c 128,-1,63
 279 54 279 54 310 54 c 0,64,65
 413 54 413 54 481 64 c 128,-1,66
 549 74 549 74 577 84 c 128,-1,67
 605 94 605 94 612 94 c 128,-1,68
 619 94 619 94 625 94.5 c 128,-1,69
 631 95 631 95 633.5 95 c 128,-1,70
 636 95 636 95 638 95.5 c 128,-1,71
 640 96 640 96 640.5 94 c 128,-1,72
 641 92 641 92 641 90.5 c 128,-1,73
 641 89 641 89 640.5 84 c 128,-1,74
 640 79 640 79 640 74 c 0,75,76
 640 0 640 0 314 0 c 0,0,1
374 407 m 0,77,78
 320 407 320 407 275 363 c 128,-1,79
 230 319 230 319 230 270 c 0,80,81
 230 222 230 222 259.5 198 c 128,-1,82
 289 174 289 174 337 174 c 0,83,84
 412 174 412 174 431 279 c 0,85,86
 445 355 445 355 449 402 c 1,87,88
 436 396 436 396 428 397 c 128,-1,89
 420 398 420 398 402.5 402.5 c 128,-1,90
 385 407 385 407 374 407 c 0,77,78
EndSplineSet
EndChar

StartChar: A
Encoding: 65 65 38
Width: 445
Flags: W
LayerCount: 2
Fore
SplineSet
251 525 m 1,0,1
 198 369 198 369 181 314 c 1,2,3
 261 328 261 328 316 330 c 1,4,5
 270 453 270 453 251 525 c 1,0,1
247 600 m 0,6,7
 266 600 266 600 274 598.5 c 128,-1,8
 282 597 282 597 292.5 585.5 c 128,-1,9
 303 574 303 574 311 549 c 0,10,11
 355 418 355 418 392 296 c 0,12,13
 402 263 402 263 414.5 223.5 c 128,-1,14
 427 184 427 184 433.5 162.5 c 128,-1,15
 440 141 440 141 447 119 c 128,-1,16
 454 97 454 97 456.5 84.5 c 128,-1,17
 459 72 459 72 459 66 c 0,18,19
 459 48 459 48 452.5 42.5 c 128,-1,20
 446 37 446 37 427 37 c 0,21,22
 400 37 400 37 390 64 c 0,23,24
 386 72 386 72 373 125 c 0,25,26
 363 166 363 166 332 268 c 1,27,28
 309 265 309 265 245 256.5 c 128,-1,29
 181 248 181 248 166 247 c 1,30,31
 164 237 164 237 145 183.5 c 128,-1,32
 126 130 126 130 119 103 c 0,33,34
 116 92 116 92 112 73.5 c 128,-1,35
 108 55 108 55 105.5 44.5 c 128,-1,36
 103 34 103 34 99 22.5 c 128,-1,37
 95 11 95 11 89.5 5.5 c 128,-1,38
 84 0 84 0 76 0 c 0,39,40
 61 0 61 0 47 6.5 c 128,-1,41
 33 13 33 13 33 26 c 0,42,43
 33 44 33 44 38 69 c 128,-1,44
 43 94 43 94 49 113.5 c 128,-1,45
 55 133 55 133 72 185.5 c 128,-1,46
 89 238 89 238 100 274 c 0,47,48
 179 532 179 532 186 551 c 0,49,50
 187 553 187 553 189.5 561.5 c 128,-1,51
 192 570 192 570 193 571.5 c 128,-1,52
 194 573 194 573 197 579.5 c 128,-1,53
 200 586 200 586 202 587.5 c 128,-1,54
 204 589 204 589 208.5 592.5 c 128,-1,55
 213 596 213 596 218 597 c 128,-1,56
 223 598 223 598 230.5 599 c 128,-1,57
 238 600 238 600 247 600 c 0,6,7
EndSplineSet
EndChar

StartChar: B
Encoding: 66 66 39
Width: 406
Flags: W
LayerCount: 2
Fore
SplineSet
117 268 m 1,0,1
 175 286 175 286 243 286 c 0,2,3
 286 286 286 286 321.5 260 c 128,-1,4
 357 234 357 234 357 174 c 0,5,6
 357 142 357 142 342.5 118.5 c 128,-1,7
 328 95 328 95 305 83 c 128,-1,8
 282 71 282 71 260.5 65.5 c 128,-1,9
 239 60 239 60 219 60 c 0,10,11
 201 60 201 60 169.5 64 c 128,-1,12
 138 68 138 68 131 68 c 1,13,14
 132 98 132 98 126 148 c 0,15,16
 122 181 122 181 120.5 219 c 128,-1,17
 119 257 119 257 117 268 c 1,0,1
115 526 m 0,18,19
 118 527 118 527 127 530.5 c 128,-1,20
 136 534 136 534 141 535.5 c 128,-1,21
 146 537 146 537 157 539.5 c 128,-1,22
 168 542 168 542 181.5 543 c 128,-1,23
 195 544 195 544 214 544 c 0,24,25
 246 544 246 544 268.5 524.5 c 128,-1,26
 291 505 291 505 291 474 c 0,27,28
 291 414 291 414 243 379.5 c 128,-1,29
 195 345 195 345 123 340 c 1,30,31
 117 355 117 355 112 447 c 0,32,33
 111 471 111 471 113 489 c 128,-1,34
 115 507 115 507 115 526 c 0,18,19
46 546 m 0,35,36
 46 358 46 358 50 288 c 0,37,38
 61 99 61 99 69 48 c 0,39,40
 74 15 74 15 82 7.5 c 128,-1,41
 90 0 90 0 113 0 c 0,42,43
 135 0 135 0 175.5 0 c 128,-1,44
 216 0 216 0 253 0 c 0,45,46
 321 0 321 0 373 50 c 128,-1,47
 425 100 425 100 425 196 c 0,48,49
 425 269 425 269 373.5 310.5 c 128,-1,50
 322 352 322 352 289 344 c 1,51,52
 315 355 315 355 331.5 369.5 c 128,-1,53
 348 384 348 384 354 403.5 c 128,-1,54
 360 423 360 423 361.5 436.5 c 128,-1,55
 363 450 363 450 363 476 c 0,56,57
 363 518 363 518 352 544 c 128,-1,58
 341 570 341 570 315.5 581.5 c 128,-1,59
 290 593 290 593 264 596.5 c 128,-1,60
 238 600 238 600 193 600 c 0,61,62
 135 600 135 600 101 592 c 0,63,64
 46 580 46 580 46 546 c 0,35,36
EndSplineSet
EndChar

StartChar: C
Encoding: 67 67 40
Width: 530
Flags: W
LayerCount: 2
Fore
SplineSet
336 600 m 0,0,1
 265 600 265 600 198.5 564.5 c 128,-1,2
 132 529 132 529 86 454.5 c 128,-1,3
 40 380 40 380 40 284 c 0,4,5
 40 129 40 129 103.5 64.5 c 128,-1,6
 167 0 167 0 314 0 c 0,7,8
 376 0 376 0 424.5 16 c 128,-1,9
 473 32 473 32 498.5 55 c 128,-1,10
 524 78 524 78 537 99 c 128,-1,11
 550 120 550 120 550 136 c 0,12,13
 550 158 550 158 544.5 165 c 128,-1,14
 539 172 539 172 514 172 c 0,15,16
 498 172 498 172 488 160.5 c 128,-1,17
 478 149 478 149 468.5 132.5 c 128,-1,18
 459 116 459 116 443 99.5 c 128,-1,19
 427 83 427 83 389 71.5 c 128,-1,20
 351 60 351 60 294 60 c 0,21,22
 272 60 272 60 251.5 63 c 128,-1,23
 231 66 231 66 202 78 c 128,-1,24
 173 90 173 90 152.5 111 c 128,-1,25
 132 132 132 132 117 172 c 128,-1,26
 102 212 102 212 102 266 c 0,27,28
 102 370 102 370 171 453.5 c 128,-1,29
 240 537 240 537 322 537 c 0,30,31
 372 537 372 537 403.5 526 c 128,-1,32
 435 515 435 515 446.5 499.5 c 128,-1,33
 458 484 458 484 464 468 c 128,-1,34
 470 452 470 452 478 441 c 128,-1,35
 486 430 486 430 502 430 c 0,36,37
 516 430 516 430 522.5 439 c 128,-1,38
 529 448 529 448 529.5 455.5 c 128,-1,39
 530 463 530 463 530 482 c 0,40,41
 530 525 530 525 477 562.5 c 128,-1,42
 424 600 424 600 336 600 c 0,0,1
EndSplineSet
EndChar

StartChar: D
Encoding: 68 68 41
Width: 456
Flags: W
LayerCount: 2
Fore
SplineSet
218 541 m 0,0,1
 294 541 294 541 352 454 c 128,-1,2
 410 367 410 367 410 277 c 0,3,4
 410 167 410 167 371.5 113.5 c 128,-1,5
 333 60 333 60 240 60 c 0,6,7
 222 60 222 60 182.5 64.5 c 128,-1,8
 143 69 143 69 136 69 c 1,9,10
 128 141 128 141 120 307 c 0,11,12
 118 359 118 359 118 402 c 128,-1,13
 118 445 118 445 119 479.5 c 128,-1,14
 120 514 120 514 120 525 c 1,15,16
 164 541 164 541 218 541 c 0,0,1
214 600 m 0,17,18
 146 600 146 600 112 592 c 0,19,20
 57 580 57 580 57 546 c 0,21,22
 57 497 57 497 55.5 440.5 c 128,-1,23
 54 384 54 384 54 344.5 c 128,-1,24
 54 305 54 305 57 258 c 0,25,26
 59 220 59 220 60.5 175.5 c 128,-1,27
 62 131 62 131 63.5 104.5 c 128,-1,28
 65 78 65 78 70 48 c 0,29,30
 75 14 75 14 83 7 c 128,-1,31
 91 0 91 0 114 0 c 0,32,33
 136 0 136 0 187 0 c 128,-1,34
 238 0 238 0 275 0 c 0,35,36
 306 0 306 0 332 6 c 128,-1,37
 358 12 358 12 377 21 c 128,-1,38
 396 30 396 30 410.5 46.5 c 128,-1,39
 425 63 425 63 434.5 77 c 128,-1,40
 444 91 444 91 450.5 114 c 128,-1,41
 457 137 457 137 460 153 c 128,-1,42
 463 169 463 169 465 195.5 c 128,-1,43
 467 222 467 222 467 236 c 128,-1,44
 467 250 467 250 467 276 c 0,45,46
 467 282 467 282 467 285 c 0,47,48
 467 310 467 310 460.5 345.5 c 128,-1,49
 454 381 454 381 435.5 426.5 c 128,-1,50
 417 472 417 472 390 510 c 128,-1,51
 363 548 363 548 317 574 c 128,-1,52
 271 600 271 600 214 600 c 0,17,18
EndSplineSet
EndChar

StartChar: E
Encoding: 69 69 42
Width: 376
Flags: W
LayerCount: 2
Fore
SplineSet
295 0 m 0,0,1
 267 0 267 0 194 0 c 128,-1,2
 121 0 121 0 97 0 c 0,3,4
 84 0 84 0 78 1 c 128,-1,5
 72 2 72 2 64.5 6.5 c 128,-1,6
 57 11 57 11 53 21 c 128,-1,7
 49 31 49 31 46 48 c 0,8,9
 41 78 41 78 39 111.5 c 128,-1,10
 37 145 37 145 35 198.5 c 128,-1,11
 33 252 33 252 31 288 c 0,12,13
 25 394 25 394 25 546 c 0,14,15
 25 579 25 579 85 592.5 c 128,-1,16
 145 606 145 606 202 606 c 0,17,18
 294 606 294 606 330 599.5 c 128,-1,19
 366 593 366 593 366 566 c 0,20,21
 366 534 366 534 336 534 c 0,22,23
 330 534 330 534 319.5 536 c 128,-1,24
 309 538 309 538 279 540.5 c 128,-1,25
 249 543 249 543 198 544 c 0,26,27
 179 544 179 544 165.5 543 c 128,-1,28
 152 542 152 542 141 539.5 c 128,-1,29
 130 537 130 537 125 535.5 c 128,-1,30
 120 534 120 534 111 530.5 c 128,-1,31
 102 527 102 527 99 526 c 0,32,33
 99 507 99 507 97 489 c 128,-1,34
 95 471 95 471 96 447 c 0,35,36
 99 391 99 391 107 340 c 1,37,38
 184 352 184 352 310 352 c 0,39,40
 350 352 350 352 361 342.5 c 128,-1,41
 372 333 372 333 372 300 c 0,42,43
 372 291 372 291 362.5 286 c 128,-1,44
 353 281 353 281 335.5 280 c 128,-1,45
 318 279 318 279 301 279.5 c 128,-1,46
 284 280 284 280 261.5 281 c 128,-1,47
 239 282 239 282 228 282 c 0,48,49
 146 282 146 282 101 268 c 1,50,51
 103 257 103 257 104.5 219 c 128,-1,52
 106 181 106 181 110 148 c 0,53,54
 116 98 116 98 115 68 c 1,55,56
 147 70 147 70 213 70 c 0,57,58
 313 70 313 70 344.5 64 c 128,-1,59
 376 58 376 58 376 32 c 0,60,61
 376 9 376 9 362.5 4.5 c 128,-1,62
 349 0 349 0 295 0 c 0,0,1
EndSplineSet
EndChar

StartChar: F
Encoding: 70 70 43
Width: 374
Flags: W
LayerCount: 2
Fore
SplineSet
96 3 m 0,0,1
 84 3 84 3 81.5 3 c 128,-1,2
 79 3 79 3 72 5 c 128,-1,3
 65 7 65 7 63 11.5 c 128,-1,4
 61 16 61 16 58 25 c 128,-1,5
 55 34 55 34 53 48 c 0,6,7
 46 90 46 90 35 288 c 0,8,9
 28 411 28 411 28 546 c 0,10,11
 28 579 28 579 85 592 c 0,12,13
 145 606 145 606 202 606 c 0,14,15
 294 606 294 606 330 599.5 c 128,-1,16
 366 593 366 593 366 566 c 0,17,18
 366 534 366 534 336 534 c 0,19,20
 330 534 330 534 319.5 536 c 128,-1,21
 309 538 309 538 279 540.5 c 128,-1,22
 249 543 249 543 198 544 c 0,23,24
 179 544 179 544 165.5 543 c 128,-1,25
 152 542 152 542 141 539.5 c 128,-1,26
 130 537 130 537 125 535.5 c 128,-1,27
 120 534 120 534 111 530.5 c 128,-1,28
 102 527 102 527 99 526 c 0,29,30
 99 507 99 507 97 489 c 128,-1,31
 95 471 95 471 96 447 c 0,32,33
 99 391 99 391 107 340 c 1,34,35
 184 352 184 352 271 352 c 0,36,37
 311 352 311 352 322 342.5 c 128,-1,38
 333 333 333 333 333 300 c 0,39,40
 333 291 333 291 325 286 c 128,-1,41
 317 281 317 281 302 280 c 128,-1,42
 287 279 287 279 273 279.5 c 128,-1,43
 259 280 259 280 238 281 c 128,-1,44
 217 282 217 282 206 282 c 0,45,46
 146 282 146 282 101 268 c 1,47,48
 103 257 103 257 104 242 c 128,-1,49
 105 227 105 227 106.5 199.5 c 128,-1,50
 108 172 108 172 110 148 c 0,51,52
 113 114 113 114 118 68 c 0,53,54
 124 25 124 25 121 15 c 128,-1,55
 118 5 118 5 96 3 c 0,0,1
EndSplineSet
EndChar

StartChar: G
Encoding: 71 71 44
Width: 530
Flags: W
LayerCount: 2
Fore
SplineSet
530 144 m 0,0,1
 530 120 530 120 520.5 97.5 c 128,-1,2
 511 75 511 75 488.5 51.5 c 128,-1,3
 466 28 466 28 421 14 c 128,-1,4
 376 0 376 0 314 0 c 0,5,6
 167 0 167 0 103.5 64.5 c 128,-1,7
 40 129 40 129 40 284 c 0,8,9
 40 357 40 357 66 418.5 c 128,-1,10
 92 480 92 480 134.5 518.5 c 128,-1,11
 177 557 177 557 228.5 578.5 c 128,-1,12
 280 600 280 600 333 600 c 0,13,14
 421 600 421 600 475 563 c 128,-1,15
 529 526 529 526 529 483 c 0,16,17
 529 464 529 464 528.5 456.5 c 128,-1,18
 528 449 528 449 521.5 440 c 128,-1,19
 515 431 515 431 501 431 c 0,20,21
 485 431 485 431 477 442 c 128,-1,22
 469 453 469 453 462.5 468 c 128,-1,23
 456 483 456 483 444 498.5 c 128,-1,24
 432 514 432 514 400.5 525 c 128,-1,25
 369 536 369 536 319 536 c 0,26,27
 237 536 237 536 169 453 c 128,-1,28
 101 370 101 370 101 266 c 0,29,30
 101 212 101 212 116 172 c 128,-1,31
 131 132 131 132 151.5 111 c 128,-1,32
 172 90 172 90 201.5 78 c 128,-1,33
 231 66 231 66 251.5 63 c 128,-1,34
 272 60 272 60 294 60 c 0,35,36
 313 60 313 60 339 64 c 128,-1,37
 365 68 365 68 396.5 76.5 c 128,-1,38
 428 85 428 85 449.5 104 c 128,-1,39
 471 123 471 123 471 149 c 0,40,41
 471 168 471 168 470 176 c 128,-1,42
 469 184 469 184 462 198.5 c 128,-1,43
 455 213 455 213 440.5 219 c 128,-1,44
 426 225 426 225 396 230.5 c 128,-1,45
 366 236 366 236 322 236 c 0,46,47
 276 236 276 236 268 243 c 0,48,49
 263 248 263 248 263 258 c 0,50,51
 263 282 263 282 277 293 c 128,-1,52
 291 304 291 304 325 304 c 0,53,54
 436 304 436 304 483 268 c 128,-1,55
 530 232 530 232 530 144 c 0,0,1
EndSplineSet
EndChar

StartChar: H
Encoding: 72 72 45
Width: 394
Flags: W
LayerCount: 2
Fore
SplineSet
206 282 m 0,0,1
 126 276 126 276 101 268 c 1,2,3
 103 257 103 257 104 242 c 128,-1,4
 105 227 105 227 106.5 199.5 c 128,-1,5
 108 172 108 172 110 148 c 0,6,7
 113 114 113 114 118 68 c 0,8,9
 124 25 124 25 121 15 c 128,-1,10
 118 5 118 5 96 3 c 0,11,12
 84 3 84 3 81.5 3 c 128,-1,13
 79 3 79 3 72 5 c 128,-1,14
 65 7 65 7 63 11.5 c 128,-1,15
 61 16 61 16 58 25 c 128,-1,16
 55 34 55 34 53 48 c 0,17,18
 46 90 46 90 35 288 c 0,19,20
 28 411 28 411 28 546 c 0,21,22
 28 565 28 565 41 579 c 128,-1,23
 54 593 54 593 75 594 c 0,24,25
 101 595 101 595 101 580 c 0,26,27
 101 569 101 569 98 538.5 c 128,-1,28
 95 508 95 508 96 447 c 0,29,30
 97 405 97 405 107 340 c 1,31,32
 166 352 166 352 328 352 c 1,33,-1
 322 422 l 2,34,35
 309 552 309 552 309 583 c 0,36,37
 309 586 309 586 309 592 c 128,-1,38
 309 598 309 598 309 599.5 c 128,-1,39
 309 601 309 601 309.5 605 c 128,-1,40
 310 609 310 609 310.5 610 c 128,-1,41
 311 611 311 611 313 613.5 c 128,-1,42
 315 616 315 616 317.5 616.5 c 128,-1,43
 320 617 320 617 324 618 c 128,-1,44
 328 619 328 619 333.5 619 c 128,-1,45
 339 619 339 619 346 619 c 0,46,47
 383 619 383 619 387 520 c 0,48,49
 388 510 388 510 388 504 c 0,50,51
 398 316 398 316 398 101 c 0,52,53
 398 99 398 99 398 88 c 128,-1,54
 398 77 398 77 398 73 c 128,-1,55
 398 69 398 69 397 60 c 128,-1,56
 396 51 396 51 393.5 47 c 128,-1,57
 391 43 391 43 387.5 38 c 128,-1,58
 384 33 384 33 377.5 31 c 128,-1,59
 371 29 371 29 362 29 c 0,60,61
 335 29 335 29 329 37.5 c 128,-1,62
 323 46 323 46 325 83 c 0,63,64
 328 135 328 135 328 279 c 1,65,66
 320 280 320 280 308 281 c 128,-1,67
 296 282 296 282 261 283 c 128,-1,68
 226 284 226 284 206 282 c 0,0,1
EndSplineSet
EndChar

StartChar: I
Encoding: 73 73 46
Width: 137
Flags: W
LayerCount: 2
Fore
SplineSet
32 720 m 0,0,1
 25 695 25 695 37 677 c 128,-1,2
 49 659 49 659 67 659 c 0,3,4
 106 659 106 659 121 730 c 0,5,6
 130 772 130 772 89 772 c 0,7,8
 75 772 75 772 57 758 c 128,-1,9
 39 744 39 744 32 720 c 0,0,1
130 147 m 0,10,11
 137 65 137 65 133 35.5 c 128,-1,12
 129 6 129 6 101 3 c 0,13,14
 78 3 78 3 68 10 c 128,-1,15
 58 17 58 17 53 48 c 0,16,17
 41 116 41 116 37 238 c 0,18,19
 35 295 35 295 35 480 c 0,20,21
 35 524 35 524 44.5 558.5 c 128,-1,22
 54 593 54 593 76 594 c 0,23,24
 93 595 93 595 105 589 c 128,-1,25
 117 583 117 583 117 574 c 0,26,27
 117 552 117 552 116.5 482 c 128,-1,28
 116 412 116 412 116 385 c 0,29,30
 116 352 116 352 122.5 259 c 128,-1,31
 129 166 129 166 130 147 c 0,10,11
EndSplineSet
EndChar

StartChar: J
Encoding: 74 74 47
Width: 328
Flags: W
LayerCount: 2
Fore
SplineSet
336 147 m 0,0,1
 336 198 336 198 332 280 c 128,-1,2
 328 362 328 362 328 385 c 0,3,4
 328 412 328 412 325 478 c 128,-1,5
 322 544 322 544 322 566 c 0,6,7
 322 576 322 576 307 585.5 c 128,-1,8
 292 595 292 595 276 594 c 0,9,10
 271 594 271 594 267 592.5 c 128,-1,11
 263 591 263 591 260 587.5 c 128,-1,12
 257 584 257 584 255 580.5 c 128,-1,13
 253 577 253 577 252 570.5 c 128,-1,14
 251 564 251 564 250.5 558.5 c 128,-1,15
 250 553 250 553 250 543 c 128,-1,16
 250 533 250 533 250.5 525 c 128,-1,17
 251 517 251 517 251 504 c 128,-1,18
 251 491 251 491 251 480 c 0,19,20
 251 437 251 437 255.5 369 c 128,-1,21
 260 301 260 301 263.5 252 c 128,-1,22
 267 203 267 203 265.5 159.5 c 128,-1,23
 264 116 264 116 255 103 c 0,24,25
 243 87 243 87 213.5 73.5 c 128,-1,26
 184 60 184 60 156 60 c 0,27,28
 110 60 110 60 89.5 92 c 128,-1,29
 69 124 69 124 74 161 c 0,30,31
 81 213 81 213 43 213 c 0,32,33
 32 213 32 213 26 212 c 128,-1,34
 20 211 20 211 15.5 205.5 c 128,-1,35
 11 200 11 200 11 189 c 0,36,37
 11 0 11 0 152 0 c 0,38,39
 336 0 336 0 336 147 c 0,0,1
232 720 m 0,40,41
 225 695 225 695 237 677 c 128,-1,42
 249 659 249 659 267 659 c 0,43,44
 306 659 306 659 321 730 c 0,45,46
 330 772 330 772 289 772 c 0,47,48
 275 772 275 772 257 758 c 128,-1,49
 239 744 239 744 232 720 c 0,40,41
EndSplineSet
EndChar

StartChar: K
Encoding: 75 75 48
Width: 302
Flags: W
LayerCount: 2
Fore
SplineSet
107 340 m 1,0,1
 107 347 107 347 105.5 372 c 128,-1,2
 104 397 104 397 103 418 c 128,-1,3
 102 439 102 439 102 446 c 0,4,5
 101 498 101 498 101 580 c 0,6,7
 101 595 101 595 75 594 c 0,8,9
 53 594 53 594 42.5 586 c 128,-1,10
 32 578 32 578 30 570 c 128,-1,11
 28 562 28 562 28 546 c 0,12,13
 28 532 28 532 35 288 c 0,14,15
 36 244 36 244 39 44 c 0,16,17
 39 14 39 14 48 5.5 c 128,-1,18
 57 -3 57 -3 85 -1 c 0,19,20
 95 0 95 0 100.5 2 c 128,-1,21
 106 4 106 4 109.5 9 c 128,-1,22
 113 14 113 14 113.5 19.5 c 128,-1,23
 114 25 114 25 113 37 c 128,-1,24
 112 49 112 49 110.5 61.5 c 128,-1,25
 109 74 109 74 107.5 96 c 128,-1,26
 106 118 106 118 106 140 c 0,27,28
 105 187 105 187 101 268 c 1,29,30
 118 244 118 244 156 195.5 c 128,-1,31
 194 147 194 147 207 127 c 0,32,33
 213 118 213 118 223.5 101 c 128,-1,34
 234 84 234 84 241 73 c 128,-1,35
 248 62 248 62 256.5 50 c 128,-1,36
 265 38 265 38 271 32 c 128,-1,37
 277 26 277 26 280 26 c 0,38,39
 296 26 296 26 314 38.5 c 128,-1,40
 332 51 332 51 332 64 c 0,41,42
 332 68 332 68 331 71 c 128,-1,43
 330 74 330 74 329 77 c 128,-1,44
 328 80 328 80 323.5 86 c 128,-1,45
 319 92 319 92 314 98.5 c 128,-1,46
 309 105 309 105 298.5 118.5 c 128,-1,47
 288 132 288 132 277 147 c 0,48,49
 262 167 262 167 216.5 222.5 c 128,-1,50
 171 278 171 278 163 293 c 1,51,52
 190 319 190 319 257 400 c 0,53,54
 279 426 279 426 294 444.5 c 128,-1,55
 309 463 309 463 319 477.5 c 128,-1,56
 329 492 329 492 334.5 499 c 128,-1,57
 340 506 340 506 342.5 514.5 c 128,-1,58
 345 523 345 523 346 524 c 128,-1,59
 347 525 347 525 346.5 532.5 c 128,-1,60
 346 540 346 540 346 541 c 0,61,62
 346 552 346 552 333 561.5 c 128,-1,63
 320 571 320 571 308 571 c 0,64,65
 302 571 302 571 290 557.5 c 128,-1,66
 278 544 278 544 258.5 519 c 128,-1,67
 239 494 239 494 232 485 c 0,68,69
 121 352 121 352 107 340 c 1,0,1
EndSplineSet
EndChar

StartChar: L
Encoding: 76 76 49
Width: 376
Flags: W
LayerCount: 2
Fore
SplineSet
85 592 m 0,0,1
 30 592 30 592 30 546 c 0,2,3
 30 484 30 484 28 414 c 128,-1,4
 26 344 26 344 27 288 c 0,5,6
 30 121 30 121 42 48 c 0,7,8
 47 15 47 15 55 7.5 c 128,-1,9
 63 0 63 0 86 0 c 0,10,11
 110 0 110 0 188.5 0 c 128,-1,12
 267 0 267 0 295 0 c 0,13,14
 349 0 349 0 362.5 4.5 c 128,-1,15
 376 9 376 9 376 32 c 0,16,17
 376 58 376 58 344.5 64 c 128,-1,18
 313 70 313 70 213 70 c 0,19,20
 147 70 147 70 115 68 c 1,21,22
 115 77 115 77 110 148 c 0,23,24
 105 209 105 209 104.5 320.5 c 128,-1,25
 104 432 104 432 103 447 c 0,26,27
 102 458 102 458 104.5 501 c 128,-1,28
 107 544 107 544 103.5 568 c 128,-1,29
 100 592 100 592 85 592 c 0,0,1
EndSplineSet
EndChar

StartChar: M
Encoding: 77 77 50
Width: 464
Flags: W
LayerCount: 2
Fore
SplineSet
295 527 m 0,0,1
 321 601 321 601 368 601 c 0,2,3
 377 601 377 601 386.5 601 c 128,-1,4
 396 601 396 601 402 601.5 c 128,-1,5
 408 602 408 602 414.5 602 c 128,-1,6
 421 602 421 602 424.5 602 c 128,-1,7
 428 602 428 602 432 601 c 128,-1,8
 436 600 436 600 438 599 c 128,-1,9
 440 598 440 598 441.5 595.5 c 128,-1,10
 443 593 443 593 443.5 590 c 128,-1,11
 444 587 444 587 444 583 c 0,12,13
 444 505 444 505 470 164 c 0,14,15
 472 143 472 143 475 112 c 0,16,17
 480 69 480 69 476 58.5 c 128,-1,18
 472 48 472 48 446 49 c 0,19,20
 415 50 415 50 406.5 59.5 c 128,-1,21
 398 69 398 69 396 115 c 0,22,23
 395 140 395 140 370 507 c 1,24,25
 355 469 355 469 330 393 c 0,26,27
 314 347 314 347 303.5 328 c 128,-1,28
 293 309 293 309 282.5 303.5 c 128,-1,29
 272 298 272 298 249 298 c 0,30,31
 224 298 224 298 214 301 c 128,-1,32
 204 304 204 304 191 319.5 c 128,-1,33
 178 335 178 335 158 374 c 0,34,35
 145 399 145 399 129 426 c 128,-1,36
 113 453 113 453 104 468 c 2,37,-1
 94 482 l 1,38,39
 96 472 96 472 98.5 412.5 c 128,-1,40
 101 353 101 353 104.5 274 c 128,-1,41
 108 195 108 195 113 148 c 0,42,43
 124 76 124 76 123 41 c 128,-1,44
 122 6 122 6 95 3 c 0,45,46
 62 3 62 3 53 11 c 0,47,48
 43 21 43 21 41 48 c 0,49,50
 38 83 38 83 35.5 159.5 c 128,-1,51
 33 236 33 236 30 288 c 0,52,53
 26 358 26 358 26 538 c 0,54,55
 26 560 26 560 33.5 571 c 128,-1,56
 41 582 41 582 50 584 c 128,-1,57
 59 586 59 586 75 586 c 0,58,59
 93 586 93 586 98.5 586.5 c 128,-1,60
 104 587 104 587 114.5 585 c 128,-1,61
 125 583 125 583 126 583 c 128,-1,62
 127 583 127 583 134 576.5 c 128,-1,63
 141 570 141 570 141.5 568 c 128,-1,64
 142 566 142 566 149 553.5 c 128,-1,65
 156 541 156 541 160 535 c 0,66,67
 178 503 178 503 208.5 461.5 c 128,-1,68
 239 420 239 420 248 404 c 1,69,70
 265 443 265 443 295 527 c 0,0,1
EndSplineSet
EndChar

StartChar: N
Encoding: 78 78 51
Width: 396
Flags: W
LayerCount: 2
Fore
SplineSet
75 594 m 0,0,1
 59 594 59 594 50 592 c 128,-1,2
 41 590 41 590 33.5 579 c 128,-1,3
 26 568 26 568 26 546 c 0,4,5
 26 358 26 358 30 288 c 0,6,7
 32 250 32 250 33.5 198 c 128,-1,8
 35 146 35 146 37 112 c 128,-1,9
 39 78 39 78 44 48 c 0,10,11
 47 31 47 31 51 21 c 128,-1,12
 55 11 55 11 64.5 7.5 c 128,-1,13
 74 4 74 4 79.5 3.5 c 128,-1,14
 85 3 85 3 101 3 c 0,15,16
 109 4 109 4 114.5 7 c 128,-1,17
 120 10 120 10 122.5 17 c 128,-1,18
 125 24 125 24 125.5 31.5 c 128,-1,19
 126 39 126 39 125 52.5 c 128,-1,20
 124 66 124 66 122 78 c 128,-1,21
 120 90 120 90 117.5 110.5 c 128,-1,22
 115 131 115 131 113 148 c 0,23,24
 108 195 108 195 104.5 274 c 128,-1,25
 101 353 101 353 98.5 412.5 c 128,-1,26
 96 472 96 472 94 482 c 1,27,28
 142 399 142 399 189 255 c 0,29,30
 211 187 211 187 230 141.5 c 128,-1,31
 249 96 249 96 261.5 72.5 c 128,-1,32
 274 49 274 49 289.5 38 c 128,-1,33
 305 27 305 27 312 25.5 c 128,-1,34
 319 24 319 24 337 26.5 c 128,-1,35
 355 29 355 29 362 29 c 0,36,37
 398 29 398 29 398 101 c 0,38,39
 398 316 398 316 388 504 c 0,40,41
 384 582 384 582 376 599 c 0,42,43
 367 619 367 619 346 619 c 0,44,45
 316 619 316 619 310 613 c 128,-1,46
 304 607 304 607 304 583 c 0,47,48
 304 562 304 562 315 421 c 128,-1,49
 326 280 326 280 318 144 c 1,50,51
 311 154 311 154 298.5 185 c 128,-1,52
 286 216 286 216 273 252 c 128,-1,53
 260 288 260 288 257 296 c 0,54,55
 248 317 248 317 222 389.5 c 128,-1,56
 196 462 196 462 166 529 c 0,57,58
 154 555 154 555 148.5 564.5 c 128,-1,59
 143 574 143 574 124.5 584 c 128,-1,60
 106 594 106 594 75 594 c 0,0,1
EndSplineSet
EndChar

StartChar: O
Encoding: 79 79 52
Width: 470
Flags: W
LayerCount: 2
Fore
SplineSet
276 537 m 0,0,1
 309 537 309 537 334.5 527.5 c 128,-1,2
 360 518 360 518 376.5 504.5 c 128,-1,3
 393 491 393 491 404.5 467.5 c 128,-1,4
 416 444 416 444 421.5 425.5 c 128,-1,5
 427 407 427 407 430 376.5 c 128,-1,6
 433 346 433 346 433.5 330 c 128,-1,7
 434 314 434 314 434 285 c 0,8,9
 434 280 434 280 434 277 c 0,10,11
 434 191 434 191 369.5 126.5 c 128,-1,12
 305 62 305 62 236 62 c 0,13,14
 150 62 150 62 116 110.5 c 128,-1,15
 82 159 82 159 88 262 c 0,16,17
 89 285 89 285 93.5 313 c 128,-1,18
 98 341 98 341 111 383 c 128,-1,19
 124 425 124 425 143.5 457.5 c 128,-1,20
 163 490 163 490 197.5 513.5 c 128,-1,21
 232 537 232 537 276 537 c 0,0,1
270 604 m 0,22,23
 225 604 225 604 186 585 c 128,-1,24
 147 566 147 566 121.5 535 c 128,-1,25
 96 504 96 504 76 467.5 c 128,-1,26
 56 431 56 431 45.5 393 c 128,-1,27
 35 355 35 355 29.5 325.5 c 128,-1,28
 24 296 24 296 24 276 c 0,29,30
 24 211 24 211 28.5 169.5 c 128,-1,31
 33 128 33 128 45.5 92.5 c 128,-1,32
 58 57 58 57 81.5 38.5 c 128,-1,33
 105 20 105 20 142.5 10 c 128,-1,34
 180 0 180 0 236 0 c 0,35,36
 346 0 346 0 419.5 86 c 128,-1,37
 493 172 493 172 493 285 c 0,38,39
 493 393 493 393 488 426 c 0,40,41
 464 584 464 584 312 602 c 0,42,43
 292 604 292 604 270 604 c 0,22,23
EndSplineSet
EndChar

StartChar: P
Encoding: 80 80 53
Width: 406
Flags: W
LayerCount: 2
Fore
SplineSet
113 0 m 0,0,1
 101 0 101 0 95.5 1 c 128,-1,2
 90 2 90 2 84 6.5 c 128,-1,3
 78 11 78 11 75 20.5 c 128,-1,4
 72 30 72 30 69 48 c 0,5,6
 61 99 61 99 50 288 c 0,7,8
 46 358 46 358 46 546 c 0,9,10
 46 580 46 580 101 592 c 0,11,12
 135 600 135 600 193 600 c 0,13,14
 238 600 238 600 264 596.5 c 128,-1,15
 290 593 290 593 315.5 581.5 c 128,-1,16
 341 570 341 570 352 544 c 128,-1,17
 363 518 363 518 363 476 c 0,18,19
 363 431 363 431 337 382.5 c 128,-1,20
 311 334 311 334 260 306 c 0,21,22
 237 294 237 294 205.5 285.5 c 128,-1,23
 174 277 174 277 147 273 c 128,-1,24
 120 269 120 269 117 268 c 0,25,26
 119 256 119 256 122 218 c 128,-1,27
 125 180 125 180 129 148 c 0,28,29
 129 145 129 145 130 139 c 0,30,31
 149 0 149 0 113 0 c 0,0,1
115 526 m 0,32,33
 115 507 115 507 113 489 c 128,-1,34
 111 471 111 471 112 447 c 0,35,36
 117 355 117 355 123 340 c 1,37,38
 195 345 195 345 243 379.5 c 128,-1,39
 291 414 291 414 291 474 c 0,40,41
 291 505 291 505 268.5 524.5 c 128,-1,42
 246 544 246 544 214 544 c 0,43,44
 195 544 195 544 181.5 543 c 128,-1,45
 168 542 168 542 157 539.5 c 128,-1,46
 146 537 146 537 141 535.5 c 128,-1,47
 136 534 136 534 127 530.5 c 128,-1,48
 118 527 118 527 115 526 c 0,32,33
EndSplineSet
EndChar

StartChar: Q
Encoding: 81 81 54
Width: 486
Flags: W
LayerCount: 2
Fore
SplineSet
479 14 m 0,0,1
 479 20 479 20 468.5 36 c 128,-1,2
 458 52 458 52 446 67 c 128,-1,3
 434 82 434 82 421.5 97.5 c 128,-1,4
 409 113 409 113 408 114 c 0,5,6
 370 165 370 165 326 215 c 0,7,8
 314 229 314 229 282 229 c 0,9,10
 277 228 277 228 273.5 219 c 128,-1,11
 270 210 270 210 270 203 c 0,12,13
 270 181 270 181 342 90 c 0,14,15
 370 55 370 55 380 42.5 c 128,-1,16
 390 30 390 30 405.5 13.5 c 128,-1,17
 421 -3 421 -3 430.5 -7.5 c 128,-1,18
 440 -12 440 -12 451 -12 c 0,19,20
 461 -12 461 -12 470 -4.5 c 128,-1,21
 479 3 479 3 479 14 c 0,0,1
276 537 m 0,22,23
 315 537 315 537 344.5 525.5 c 128,-1,24
 374 514 374 514 391.5 490.5 c 128,-1,25
 409 467 409 467 419.5 444.5 c 128,-1,26
 430 422 430 422 434.5 387 c 128,-1,27
 439 352 439 352 440 331 c 128,-1,28
 441 310 441 310 441 277 c 0,29,30
 441 191 441 191 373.5 126.5 c 128,-1,31
 306 62 306 62 236 62 c 0,32,33
 77 62 77 62 88 262 c 0,34,35
 90 293 90 293 98 331 c 128,-1,36
 106 369 106 369 124.5 419.5 c 128,-1,37
 143 470 143 470 182.5 503.5 c 128,-1,38
 222 537 222 537 276 537 c 0,22,23
270 604 m 0,39,40
 225 604 225 604 186 585 c 128,-1,41
 147 566 147 566 121.5 535 c 128,-1,42
 96 504 96 504 76 467.5 c 128,-1,43
 56 431 56 431 45.5 393 c 128,-1,44
 35 355 35 355 29.5 325.5 c 128,-1,45
 24 296 24 296 24 276 c 0,46,47
 24 129 24 129 73.5 64.5 c 128,-1,48
 123 0 123 0 236 0 c 0,49,50
 347 0 347 0 422.5 86.5 c 128,-1,51
 498 173 498 173 498 285 c 0,52,53
 498 291 498 291 498 303 c 0,54,55
 498 338 498 338 497.5 357 c 128,-1,56
 497 376 497 376 493 412 c 128,-1,57
 489 448 489 448 481 470.5 c 128,-1,58
 473 493 473 493 456.5 521 c 128,-1,59
 440 549 440 549 416 565 c 128,-1,60
 392 581 392 581 355 592.5 c 128,-1,61
 318 604 318 604 270 604 c 0,39,40
EndSplineSet
EndChar

StartChar: R
Encoding: 82 82 55
Width: 342
Flags: W
LayerCount: 2
Fore
SplineSet
255 311 m 0,0,1
 342 371 342 371 342 474 c 0,2,3
 342 598 342 598 168 598 c 0,4,5
 126 598 126 598 101 592 c 0,6,7
 46 580 46 580 46 546 c 0,8,9
 46 358 46 358 50 288 c 0,10,11
 61 99 61 99 69 48 c 0,12,13
 74 15 74 15 82 7.5 c 128,-1,14
 90 0 90 0 113 0 c 0,15,16
 120 0 120 0 124 3 c 128,-1,17
 128 6 128 6 130.5 12 c 128,-1,18
 133 18 133 18 134.5 26 c 128,-1,19
 136 34 136 34 136 47.5 c 128,-1,20
 136 61 136 61 135 75 c 128,-1,21
 134 89 134 89 132 110.5 c 128,-1,22
 130 132 130 132 128.5 153 c 128,-1,23
 127 174 127 174 125 204.5 c 128,-1,24
 123 235 123 235 121 264 c 1,25,26
 130 260 130 260 141 250.5 c 128,-1,27
 152 241 152 241 161 231.5 c 128,-1,28
 170 222 170 222 184.5 204 c 128,-1,29
 199 186 199 186 207.5 175 c 128,-1,30
 216 164 216 164 234 140 c 128,-1,31
 252 116 252 116 260 105 c 0,32,33
 265 99 265 99 276.5 78.5 c 128,-1,34
 288 58 288 58 298 48 c 128,-1,35
 308 38 308 38 322 38 c 0,36,37
 346 38 346 38 354 42.5 c 128,-1,38
 362 47 362 47 362 64 c 0,39,40
 362 76 362 76 357 89 c 128,-1,41
 352 102 352 102 341 118 c 128,-1,42
 330 134 330 134 320.5 146 c 128,-1,43
 311 158 311 158 293.5 179.5 c 128,-1,44
 276 201 276 201 266 213 c 0,45,46
 219 272 219 272 203 286 c 1,47,48
 220 287 220 287 255 311 c 0,0,1
115 526 m 1,49,50
 121 528 121 528 128 533 c 128,-1,51
 135 538 135 538 147.5 540 c 128,-1,52
 160 542 160 542 189 542 c 0,53,54
 222 542 222 542 249.5 522 c 128,-1,55
 277 502 277 502 277 472 c 0,56,57
 277 433 277 433 266.5 407.5 c 128,-1,58
 256 382 256 382 232 366.5 c 128,-1,59
 208 351 208 351 183.5 343.5 c 128,-1,60
 159 336 159 336 117 328 c 1,61,62
 113 337 113 337 112 362 c 128,-1,63
 111 387 111 387 111.5 415 c 128,-1,64
 112 443 112 443 112 447 c 0,65,66
 111 471 111 471 113 489 c 128,-1,67
 115 507 115 507 115 526 c 1,49,50
EndSplineSet
EndChar

StartChar: S
Encoding: 83 83 56
Width: 377
Flags: W
LayerCount: 2
Fore
SplineSet
210 598 m 0,0,1
 289 598 289 598 331 566.5 c 128,-1,2
 373 535 373 535 373 492 c 0,3,4
 373 473 373 473 372.5 465.5 c 128,-1,5
 372 458 372 458 365.5 449 c 128,-1,6
 359 440 359 440 345 440 c 0,7,8
 308 440 308 440 308 468 c 0,9,10
 308 537 308 537 207 537 c 0,11,12
 150 537 150 537 125.5 505.5 c 128,-1,13
 101 474 101 474 101 435 c 0,14,15
 101 414 101 414 106 398 c 128,-1,16
 111 382 111 382 117 372.5 c 128,-1,17
 123 363 123 363 137 354.5 c 128,-1,18
 151 346 151 346 160 342 c 128,-1,19
 169 338 169 338 190.5 330.5 c 128,-1,20
 212 323 212 323 223 319 c 0,21,22
 233 315 233 315 259 306 c 128,-1,23
 285 297 285 297 299 291.5 c 128,-1,24
 313 286 313 286 334.5 272.5 c 128,-1,25
 356 259 356 259 367 243.5 c 128,-1,26
 378 228 378 228 387 202.5 c 128,-1,27
 396 177 396 177 396 144 c 0,28,29
 396 79 396 79 344 39.5 c 128,-1,30
 292 0 292 0 180 0 c 0,31,32
 110 0 110 0 69 39 c 128,-1,33
 28 78 28 78 28 115 c 0,34,35
 28 135 28 135 33.5 146 c 128,-1,36
 39 157 39 157 45.5 159 c 128,-1,37
 52 161 52 161 64 161 c 2,38,-1
 70 161 l 2,39,40
 76 161 76 161 77.5 161 c 128,-1,41
 79 161 79 161 83.5 160 c 128,-1,42
 88 159 88 159 89.5 157.5 c 128,-1,43
 91 156 91 156 92.5 152.5 c 128,-1,44
 94 149 94 149 94 144 c 0,45,46
 94 123 94 123 122 93.5 c 128,-1,47
 150 64 150 64 183 64 c 0,48,49
 237 64 237 64 287 86.5 c 128,-1,50
 337 109 337 109 337 149 c 0,51,52
 337 172 337 172 328 188 c 128,-1,53
 319 204 319 204 301 215 c 128,-1,54
 283 226 283 226 265.5 232.5 c 128,-1,55
 248 239 248 239 219.5 248 c 128,-1,56
 191 257 191 257 174 264 c 0,57,58
 102 294 102 294 76 316 c 0,59,60
 31 355 31 355 31 418 c 0,61,62
 31 493 31 493 74 545.5 c 128,-1,63
 117 598 117 598 210 598 c 0,0,1
EndSplineSet
EndChar

StartChar: T
Encoding: 84 84 57
Width: 590
Flags: W
LayerCount: 2
Fore
SplineSet
275 532 m 1,0,1
 231 524 231 524 167 524 c 0,2,3
 143 524 143 524 116.5 522.5 c 128,-1,4
 90 521 90 521 77.5 520 c 128,-1,5
 65 519 65 519 52.5 520 c 128,-1,6
 40 521 40 521 35.5 526.5 c 128,-1,7
 31 532 31 532 27.5 541.5 c 128,-1,8
 24 551 24 551 23 569 c 0,9,10
 22 578 22 578 24.5 581 c 128,-1,11
 27 584 27 584 33 585.5 c 128,-1,12
 39 587 39 587 43 591 c 0,13,14
 190 603 190 603 333 603 c 0,15,16
 517 603 517 603 542 599 c 0,17,18
 579 593 579 593 584 569 c 0,19,20
 585 563 585 563 585 553 c 0,21,22
 585 546 585 546 584 540.5 c 128,-1,23
 583 535 583 535 580 531 c 128,-1,24
 577 527 577 527 574 524.5 c 128,-1,25
 571 522 571 522 565 520.5 c 128,-1,26
 559 519 559 519 554 518.5 c 128,-1,27
 549 518 549 518 540 517.5 c 128,-1,28
 531 517 531 517 524 517.5 c 128,-1,29
 517 518 517 518 505 518 c 128,-1,30
 493 518 493 518 484 518 c 0,31,32
 481 518 481 518 355 530 c 1,33,-1
 356 532 l 2,34,35
 359 541 359 541 359 530 c 0,36,37
 359 528 359 528 359 524 c 0,38,39
 351 378 351 378 363 147 c 0,40,41
 368 43 368 43 365 27 c 0,42,43
 359 5 359 5 335 3 c 0,44,45
 312 3 312 3 302.5 10 c 128,-1,46
 293 17 293 17 288 48 c 0,47,48
 285 65 285 65 283 79 c 128,-1,49
 281 93 281 93 280 102.5 c 128,-1,50
 279 112 279 112 278 129 c 128,-1,51
 277 146 277 146 276.5 155.5 c 128,-1,52
 276 165 276 165 275.5 192.5 c 128,-1,53
 275 220 275 220 274 238 c 0,54,55
 273 277 273 277 273.5 313 c 128,-1,56
 274 349 274 349 274.5 421 c 128,-1,57
 275 493 275 493 275 532 c 1,0,1
EndSplineSet
EndChar

StartChar: U
Encoding: 85 85 58
Width: 424
Flags: W
LayerCount: 2
Fore
SplineSet
444 285 m 0,0,1
 444 123 444 123 391.5 61.5 c 128,-1,2
 339 0 339 0 220 0 c 0,3,4
 173 0 173 0 139 7.5 c 128,-1,5
 105 15 105 15 85 28.5 c 128,-1,6
 65 42 65 42 52.5 62.5 c 128,-1,7
 40 83 40 83 36 108.5 c 128,-1,8
 32 134 32 134 30.5 165 c 128,-1,9
 29 196 29 196 31 231 c 0,10,11
 31 261 31 261 31 276 c 0,12,13
 31 285 31 285 31 321.5 c 128,-1,14
 31 358 31 358 31 379.5 c 128,-1,15
 31 401 31 401 31.5 438 c 128,-1,16
 32 475 32 475 34 498.5 c 128,-1,17
 36 522 36 522 39 546 c 128,-1,18
 42 570 42 570 47.5 582 c 128,-1,19
 53 594 53 594 60 594 c 0,20,21
 80 594 80 594 92.5 590 c 128,-1,22
 105 586 105 586 109.5 575.5 c 128,-1,23
 114 565 114 565 115 557 c 128,-1,24
 116 549 116 549 116 533 c 0,25,26
 116 528 116 528 116 526 c 2,27,-1
 93 262 l 1,28,29
 93 199 93 199 102 158.5 c 128,-1,30
 111 118 111 118 140 90 c 128,-1,31
 169 62 169 62 220 62 c 0,32,33
 284 62 284 62 318.5 94.5 c 128,-1,34
 353 127 353 127 366.5 210.5 c 128,-1,35
 380 294 380 294 360 437 c 0,36,37
 358 451 358 451 353 477.5 c 128,-1,38
 348 504 348 504 346.5 519 c 128,-1,39
 345 534 345 534 346 551.5 c 128,-1,40
 347 569 347 569 356.5 577 c 128,-1,41
 366 585 366 585 385 585 c 0,42,43
 419 585 419 585 431.5 513 c 128,-1,44
 444 441 444 441 444 285 c 0,0,1
EndSplineSet
EndChar

StartChar: V
Encoding: 86 86 59
Width: 383
Flags: W
LayerCount: 2
Fore
SplineSet
251 76 m 0,0,1
 262 104 262 104 290 187 c 128,-1,2
 318 270 318 270 347 361 c 128,-1,3
 376 452 376 452 383 472 c 0,4,5
 391 495 391 495 405 529 c 0,6,7
 423 565 423 565 419 578.5 c 128,-1,8
 415 592 415 592 377 592 c 0,9,10
 375 592 375 592 370 592 c 128,-1,11
 365 592 365 592 364 592 c 128,-1,12
 363 592 363 592 358.5 591.5 c 128,-1,13
 354 591 354 591 353 589.5 c 128,-1,14
 352 588 352 588 348.5 586 c 128,-1,15
 345 584 345 584 343 580.5 c 128,-1,16
 341 577 341 577 337.5 572.5 c 128,-1,17
 334 568 334 568 331.5 561.5 c 128,-1,18
 329 555 329 555 325 547 c 128,-1,19
 321 539 321 539 317 528 c 0,20,21
 296 474 296 474 255.5 352.5 c 128,-1,22
 215 231 215 231 202 174 c 1,23,24
 160 420 160 420 133 510 c 0,25,26
 126 532 126 532 122.5 552 c 128,-1,27
 119 572 119 572 119 579.5 c 128,-1,28
 119 587 119 587 115 593.5 c 128,-1,29
 111 600 111 600 104.5 601 c 128,-1,30
 98 602 98 602 81 602 c 0,31,32
 45 602 45 602 39 595 c 0,33,34
 32 585 32 585 44 520 c 0,35,36
 51 485 51 485 51 484 c 0,37,38
 76 346 76 346 143 74 c 0,39,40
 147 59 147 59 149.5 42.5 c 128,-1,41
 152 26 152 26 153 20 c 128,-1,42
 154 14 154 14 158 8 c 128,-1,43
 162 2 162 2 169 1 c 128,-1,44
 176 0 176 0 191 0 c 0,45,46
 212 0 212 0 220 3.5 c 128,-1,47
 228 7 228 7 230.5 11.5 c 128,-1,48
 233 16 233 16 238 36 c 128,-1,49
 243 56 243 56 251 76 c 0,0,1
EndSplineSet
EndChar

StartChar: W
Encoding: 87 87 60
Width: 569
Flags: W
LayerCount: 2
Fore
SplineSet
255 340 m 0,0,1
 249 320 249 320 238 292.5 c 128,-1,2
 227 265 227 265 218.5 238 c 128,-1,3
 210 211 210 211 202 174 c 1,4,5
 160 420 160 420 133 510 c 0,6,7
 126 532 126 532 122.5 552 c 128,-1,8
 119 572 119 572 119 579.5 c 128,-1,9
 119 587 119 587 115 593.5 c 128,-1,10
 111 600 111 600 104.5 601 c 128,-1,11
 98 602 98 602 81 602 c 0,12,13
 45 602 45 602 39 595 c 0,14,15
 32 585 32 585 44 520 c 0,16,17
 51 485 51 485 51 484 c 0,18,19
 76 346 76 346 143 74 c 0,20,21
 147 59 147 59 149.5 42.5 c 128,-1,22
 152 26 152 26 153 20 c 128,-1,23
 154 14 154 14 158 8 c 128,-1,24
 162 2 162 2 169 1 c 128,-1,25
 176 0 176 0 191 0 c 0,26,27
 212 0 212 0 220 3.5 c 128,-1,28
 228 7 228 7 230.5 11.5 c 128,-1,29
 233 16 233 16 238 36 c 128,-1,30
 243 56 243 56 251 76 c 0,31,32
 266 114 266 114 292.5 196 c 128,-1,33
 319 278 319 278 321 284 c 1,34,35
 330 266 330 266 345.5 222.5 c 128,-1,36
 361 179 361 179 379 125 c 128,-1,37
 397 71 397 71 401 58 c 0,38,39
 405 48 405 48 408.5 34.5 c 128,-1,40
 412 21 412 21 413.5 17 c 128,-1,41
 415 13 415 13 420.5 7.5 c 128,-1,42
 426 2 426 2 434 1 c 128,-1,43
 442 0 442 0 457 0 c 0,44,45
 483 0 483 0 489 7.5 c 128,-1,46
 495 15 495 15 504 60 c 0,47,48
 508 76 508 76 510 86 c 0,49,50
 560 318 560 318 592 540 c 0,51,52
 598 577 598 577 592.5 589 c 128,-1,53
 587 601 587 601 559 601 c 0,54,55
 527 601 527 601 519 592 c 128,-1,56
 511 583 511 583 508 560 c 0,57,58
 500 495 500 495 474.5 365.5 c 128,-1,59
 449 236 449 236 443 191 c 1,60,61
 441 200 441 200 429 229.5 c 128,-1,62
 417 259 417 259 403.5 289.5 c 128,-1,63
 390 320 390 320 389 323 c 0,64,65
 377 354 377 354 370 358 c 128,-1,66
 363 362 363 362 322 362 c 0,67,68
 315 362 315 362 305.5 362 c 128,-1,69
 296 362 296 362 291.5 362 c 128,-1,70
 287 362 287 362 281 362 c 128,-1,71
 275 362 275 362 272.5 361 c 128,-1,72
 270 360 270 360 266.5 358.5 c 128,-1,73
 263 357 263 357 261.5 354.5 c 128,-1,74
 260 352 260 352 258.5 348.5 c 128,-1,75
 257 345 257 345 255 340 c 0,0,1
EndSplineSet
EndChar

StartChar: X
Encoding: 88 88 61
Width: 383
Flags: W
LayerCount: 2
Fore
SplineSet
270 305 m 1,0,1
 281 323 281 323 306 367 c 128,-1,2
 331 411 331 411 355 452 c 0,3,4
 360 461 360 461 366 470.5 c 128,-1,5
 372 480 372 480 375.5 486 c 128,-1,6
 379 492 379 492 385 502 c 0,7,8
 425 567 425 567 424 579.5 c 128,-1,9
 423 592 423 592 377 592 c 0,10,11
 359 592 359 592 346 576.5 c 128,-1,12
 333 561 333 561 299 506 c 0,13,14
 234 402 234 402 229 391 c 1,15,16
 224 398 224 398 201 445 c 128,-1,17
 178 492 178 492 164 516 c 0,18,19
 153 534 153 534 143.5 553.5 c 128,-1,20
 134 573 134 573 131 580 c 128,-1,21
 128 587 128 587 121 593.5 c 128,-1,22
 114 600 114 600 106 601 c 128,-1,23
 98 602 98 602 81 602 c 0,24,25
 47 602 47 602 46 588 c 0,26,27
 45 577 45 577 83 505 c 0,28,29
 91 490 91 490 97 478 c 0,30,31
 120 432 120 432 151 377 c 128,-1,32
 182 322 182 322 189 307 c 1,33,34
 172 274 172 274 135 208.5 c 128,-1,35
 98 143 98 143 88 124 c 0,36,37
 36 29 36 29 36 14 c 1,38,39
 45 1 45 1 71 0 c 0,40,41
 97 0 97 0 106.5 11 c 128,-1,42
 116 22 116 22 146 79 c 0,43,44
 163 111 163 111 193.5 160 c 128,-1,45
 224 209 224 209 230 224 c 1,46,47
 234 213 234 213 257 168.5 c 128,-1,48
 280 124 280 124 289 101 c 0,49,50
 315 32 315 32 329 16 c 128,-1,51
 343 0 343 0 371 0 c 0,52,53
 404 0 404 0 405 16 c 0,54,55
 406 34 406 34 359 130 c 0,56,57
 302 246 302 246 270 305 c 1,0,1
EndSplineSet
EndChar

StartChar: Y
Encoding: 89 89 62
Width: 590
Flags: W
LayerCount: 2
Fore
SplineSet
273 292 m 1,0,1
 249 323 249 323 175 478 c 0,2,3
 165 499 165 499 149 531 c 0,4,5
 122 584 122 584 126 593 c 0,6,7
 129 602 129 602 159 602 c 0,8,9
 172 602 172 602 178.5 602 c 128,-1,10
 185 602 185 602 192.5 599 c 128,-1,11
 200 596 200 596 202.5 594 c 128,-1,12
 205 592 205 592 210.5 583.5 c 128,-1,13
 216 575 216 575 218.5 569 c 128,-1,14
 221 563 221 563 228.5 546 c 128,-1,15
 236 529 236 529 242 516 c 0,16,17
 279 437 279 437 313 382 c 1,18,19
 325 408 325 408 391 514 c 0,20,21
 393 517 393 517 396 522 c 0,22,23
 426 570 426 570 439 585 c 128,-1,24
 452 600 452 600 469 600 c 0,25,26
 518 600 518 600 518.5 586 c 128,-1,27
 519 572 519 572 473 495 c 0,28,29
 469 488 469 488 466.5 484 c 128,-1,30
 464 480 464 480 460 473 c 128,-1,31
 456 466 456 466 453 460 c 0,32,33
 389 348 389 348 354 293 c 1,34,35
 354 166 354 166 355 147 c 0,36,37
 356 131 356 131 357 113.5 c 128,-1,38
 358 96 358 96 359 85 c 128,-1,39
 360 74 360 74 361 62 c 128,-1,40
 362 50 362 50 362 43 c 128,-1,41
 362 36 362 36 361.5 29 c 128,-1,42
 361 22 361 22 359.5 18 c 128,-1,43
 358 14 358 14 354.5 10.5 c 128,-1,44
 351 7 351 7 346.5 5.5 c 128,-1,45
 342 4 342 4 335 3 c 0,46,47
 317 3 317 3 308 4.5 c 128,-1,48
 299 6 299 6 289.5 16.5 c 128,-1,49
 280 27 280 27 278 48 c 0,50,51
 276 72 276 72 275.5 85 c 128,-1,52
 275 98 275 98 275 105 c 128,-1,53
 275 112 275 112 274.5 135 c 128,-1,54
 274 158 274 158 273 192 c 2,55,-1
 273 292 l 1,0,1
EndSplineSet
EndChar

StartChar: Z
Encoding: 90 90 63
Width: 402
Flags: W
LayerCount: 2
Fore
SplineSet
36 548 m 0,0,1
 36 531 36 531 45 523 c 128,-1,2
 54 515 54 515 62.5 514.5 c 128,-1,3
 71 514 71 514 95 514 c 0,4,5
 112 514 112 514 153 520 c 128,-1,6
 194 526 194 526 223 526 c 0,7,8
 235 526 235 526 253 526.5 c 128,-1,9
 271 527 271 527 282.5 527 c 128,-1,10
 294 527 294 527 306.5 526.5 c 128,-1,11
 319 526 319 526 327 525.5 c 128,-1,12
 335 525 335 525 339 523 c 1,13,14
 335 517 335 517 302.5 473 c 128,-1,15
 270 429 270 429 255 405 c 0,16,17
 149 241 149 241 81 148 c 0,18,19
 72 135 72 135 59 119 c 128,-1,20
 46 103 46 103 41.5 96.5 c 128,-1,21
 37 90 37 90 31.5 79.5 c 128,-1,22
 26 69 26 69 24.5 59.5 c 128,-1,23
 23 50 23 50 23 35 c 0,24,25
 23 13 23 13 30.5 6.5 c 128,-1,26
 38 0 38 0 52 0 c 0,27,28
 133 0 133 0 225 1 c 128,-1,29
 317 2 317 2 386 2 c 0,30,31
 410 2 410 2 418 9 c 128,-1,32
 426 16 426 16 426 38 c 0,33,34
 426 80 426 80 365 80 c 0,35,36
 353 80 353 80 282.5 74 c 128,-1,37
 212 68 212 68 191 68 c 0,38,39
 176 68 176 68 156.5 68.5 c 128,-1,40
 137 69 137 69 129 69.5 c 128,-1,41
 121 70 121 70 111 69 c 1,42,43
 130 93 130 93 172 156.5 c 128,-1,44
 214 220 214 220 238 252 c 0,45,46
 271 296 271 296 337 387 c 128,-1,47
 403 478 403 478 408 485 c 128,-1,48
 413 492 413 492 417 498 c 128,-1,49
 421 504 421 504 423.5 508.5 c 128,-1,50
 426 513 426 513 428 518 c 128,-1,51
 430 523 430 523 431 525.5 c 128,-1,52
 432 528 432 528 432.5 533 c 128,-1,53
 433 538 433 538 433 539.5 c 128,-1,54
 433 541 433 541 433 547.5 c 128,-1,55
 433 554 433 554 433 555 c 0,56,57
 433 585 433 585 420.5 590.5 c 128,-1,58
 408 596 408 596 355 599 c 0,59,60
 303 602 303 602 233.5 598 c 128,-1,61
 164 594 164 594 137 594 c 0,62,63
 119 594 119 594 99 594.5 c 128,-1,64
 79 595 79 595 71 596.5 c 128,-1,65
 63 598 63 598 54 595 c 128,-1,66
 45 592 45 592 43 592.5 c 128,-1,67
 41 593 41 593 38.5 584 c 128,-1,68
 36 575 36 575 36 570.5 c 128,-1,69
 36 566 36 566 36 548 c 0,0,1
EndSplineSet
EndChar

StartChar: bracketleft
Encoding: 91 91 64
Width: 244
Flags: W
LayerCount: 2
Fore
SplineSet
40 284 m 128,-1,1
 40 236 40 236 39 164 c 0,2,3
 38 59 38 59 44 36.5 c 128,-1,4
 50 14 50 14 84 10 c 0,5,6
 94 9 94 9 107 7 c 128,-1,7
 120 5 120 5 128 4 c 128,-1,8
 136 3 136 3 145.5 1.5 c 128,-1,9
 155 0 155 0 160.5 0 c 128,-1,10
 166 0 166 0 172.5 0.5 c 128,-1,11
 179 1 179 1 182.5 3 c 128,-1,12
 186 5 186 5 189 8.5 c 128,-1,13
 192 12 192 12 193 17 c 128,-1,14
 194 22 194 22 194 29 c 0,15,16
 194 53 194 53 183.5 60.5 c 128,-1,17
 173 68 173 68 146 70 c 0,18,19
 118 72 118 72 113 78 c 0,20,21
 102 90 102 90 102 181 c 0,22,23
 102 188 102 188 102 266 c 0,24,25
 102 318 102 318 101 391 c 0,26,27
 100 482 100 482 104 499 c 128,-1,28
 108 516 108 516 132 516 c 0,29,30
 135 516 135 516 141 516 c 0,31,32
 161 516 161 516 170.5 516.5 c 128,-1,33
 180 517 180 517 192 520 c 128,-1,34
 204 523 204 523 209 531 c 128,-1,35
 214 539 214 539 214 552 c 0,36,37
 214 560 214 560 212.5 564 c 128,-1,38
 211 568 211 568 208 570.5 c 128,-1,39
 205 573 205 573 199.5 573 c 128,-1,40
 194 573 194 573 186 573 c 128,-1,41
 178 573 178 573 166.5 572 c 128,-1,42
 155 571 155 571 140 571 c 128,-1,43
 125 571 125 571 106 572 c 0,44,45
 55 574 55 574 46 547.5 c 128,-1,46
 37 521 37 521 39 405 c 0,47,0
 40 332 40 332 40 284 c 128,-1,1
EndSplineSet
EndChar

StartChar: backslash
Encoding: 92 92 65
Width: 436
Flags: W
LayerCount: 2
Fore
SplineSet
194 412 m 4,0,1
 216 372 216 372 272.5 274.5 c 132,-1,2
 329 177 329 177 345 148 c 4,3,4
 361 118 361 118 386 75 c 4,5,6
 418 18 418 18 415 9 c 4,7,8
 407 0 407 0 368 0 c 4,9,10
 358 0 358 0 350.5 3 c 132,-1,11
 343 6 343 6 333.5 15.5 c 132,-1,12
 324 25 324 25 317 35.5 c 132,-1,13
 310 46 310 46 297 68.5 c 132,-1,14
 284 91 284 91 273 111.5 c 132,-1,15
 262 132 262 132 240.5 171 c 132,-1,16
 219 210 219 210 200 244 c 4,17,18
 158 319 158 319 115.5 397 c 132,-1,19
 73 475 73 475 66 488 c 4,20,21
 13 583 13 583 20 595 c 4,22,23
 23 600 23 600 48 600 c 4,24,25
 80 600 80 600 92 590 c 4,26,27
 106 578 106 578 153 489 c 4,28,29
 178 442 178 442 194 412 c 4,0,1
EndSplineSet
EndChar

StartChar: bracketright
Encoding: 93 93 66
Width: 266
Flags: W
LayerCount: 2
Fore
SplineSet
176 263 m 0,0,1
 176 100 176 100 170 73.5 c 128,-1,2
 164 47 164 47 128 51 c 0,3,4
 118 52 118 52 112 52 c 0,5,6
 59 55 59 55 47.5 49 c 128,-1,7
 36 43 36 43 36 11 c 0,8,9
 36 5 36 5 40 2 c 128,-1,10
 44 -1 44 -1 54.5 -2 c 128,-1,11
 65 -3 65 -3 75.5 -2.5 c 128,-1,12
 86 -2 86 -2 106 -1 c 128,-1,13
 126 0 126 0 142 0 c 0,14,15
 152 0 152 0 169 -1 c 0,16,17
 215 -4 215 -4 224 32 c 128,-1,18
 233 68 233 68 233 271 c 0,19,20
 233 507 233 507 221 552 c 0,21,22
 212 586 212 586 186 592 c 0,23,24
 177 594 177 594 140 596 c 0,25,26
 79 599 79 599 57 594.5 c 128,-1,27
 35 590 35 590 35 571 c 0,28,29
 35 547 35 547 48 540.5 c 128,-1,30
 61 534 61 534 108 532 c 0,31,32
 114 532 114 532 125.5 532 c 128,-1,33
 137 532 137 532 140 532 c 128,-1,34
 143 532 143 532 151 528 c 128,-1,35
 159 524 159 524 160.5 518 c 128,-1,36
 162 512 162 512 166.5 498.5 c 128,-1,37
 171 485 171 485 171.5 466.5 c 128,-1,38
 172 448 172 448 174 418 c 128,-1,39
 176 388 176 388 176 351.5 c 128,-1,40
 176 315 176 315 176 263 c 0,0,1
EndSplineSet
EndChar

StartChar: asciicircum
Encoding: 94 94 67
Width: 360
Flags: W
LayerCount: 2
Fore
SplineSet
285 431 m 0,0,1
 312 394 312 394 297 382 c 0,2,3
 289 376 289 376 276 383 c 256,4,5
 263 390 263 390 250 399 c 128,-1,6
 237 408 237 408 216.5 424 c 128,-1,7
 196 440 196 440 184 449 c 1,8,9
 166 430 166 430 132 406.5 c 128,-1,10
 98 383 98 383 96 381 c 0,11,12
 89 376 89 376 77.5 374 c 128,-1,13
 66 372 66 372 61.5 379.5 c 128,-1,14
 57 387 57 387 76 415 c 0,15,16
 106 457 106 457 124.5 477.5 c 128,-1,17
 143 498 143 498 162 511 c 128,-1,18
 181 524 181 524 198.5 516 c 128,-1,19
 216 508 216 508 236.5 489 c 128,-1,20
 257 470 257 470 285 431 c 0,0,1
EndSplineSet
EndChar

StartChar: underscore
Encoding: 95 95 68
Width: 460
Flags: W
LayerCount: 2
Fore
SplineSet
175 48 m 0,0,1
 171 48 171 48 164 48 c 0,2,3
 72 48 72 48 43.5 42.5 c 128,-1,4
 15 37 15 37 15 10 c 0,5,6
 15 3 15 3 26 -0.5 c 128,-1,7
 37 -4 37 -4 58 -4.5 c 128,-1,8
 79 -5 79 -5 99 -5 c 128,-1,9
 119 -5 119 -5 148.5 -4 c 128,-1,10
 178 -3 178 -3 194 -3 c 0,11,12
 233 -3 233 -3 280 -4 c 128,-1,13
 327 -5 327 -5 352 -5 c 128,-1,14
 377 -5 377 -5 401.5 -4.5 c 128,-1,15
 426 -4 426 -4 435.5 -1.5 c 128,-1,16
 445 1 445 1 445 7 c 0,17,18
 445 37 445 37 409 42.5 c 128,-1,19
 373 48 373 48 192 48 c 0,20,21
 181 48 181 48 175 48 c 0,0,1
EndSplineSet
EndChar

StartChar: grave
Encoding: 96 96 69
Width: 265
Flags: W
LayerCount: 2
Fore
SplineSet
215 478 m 0,0,1
 215 490 215 490 211.5 496.5 c 128,-1,2
 208 503 208 503 193 522 c 0,3,4
 131 600 131 600 87 600 c 0,5,6
 79 600 79 600 72.5 591 c 128,-1,7
 66 582 66 582 66 574 c 0,8,9
 66 564 66 564 69.5 554.5 c 128,-1,10
 73 545 73 545 76.5 539 c 128,-1,11
 80 533 80 533 90 523.5 c 128,-1,12
 100 514 100 514 105.5 509.5 c 128,-1,13
 111 505 111 505 126 494 c 128,-1,14
 141 483 141 483 147 478 c 0,15,16
 165 464 165 464 181.5 461.5 c 128,-1,17
 198 459 198 459 206.5 464.5 c 128,-1,18
 215 470 215 470 215 478 c 0,0,1
EndSplineSet
EndChar

StartChar: a
Encoding: 97 97 70
Width: 425
Flags: W
LayerCount: 2
Fore
SplineSet
196 288 m 0,0,1
 142 288 142 288 97 244 c 128,-1,2
 52 200 52 200 52 151 c 0,3,4
 52 103 52 103 81.5 79 c 128,-1,5
 111 55 111 55 159 55 c 0,6,7
 234 55 234 55 253 160 c 0,8,9
 267 236 267 236 271 283 c 1,10,11
 258 277 258 277 250 278 c 128,-1,12
 242 279 242 279 224.5 283.5 c 128,-1,13
 207 288 207 288 196 288 c 0,0,1
394 98 m 0,14,15
 400 104 400 104 410 115.5 c 128,-1,16
 420 127 420 127 427.5 133 c 128,-1,17
 435 139 435 139 443 139 c 0,18,19
 460 139 460 139 460 137 c 2,20,21
 460 137 460 137 459 135 c 0,22,23
 457 132 457 132 457 129 c 0,24,25
 457 106 457 106 421 66 c 0,26,27
 363 0 363 0 290 0 c 0,28,29
 269 0 269 0 250 28 c 1,30,31
 243 21 243 21 235.5 16 c 128,-1,32
 228 11 228 11 219 8 c 128,-1,33
 210 5 210 5 204.5 3.5 c 128,-1,34
 199 2 199 2 189 1 c 128,-1,35
 179 0 179 0 176 0 c 128,-1,36
 173 0 173 0 162 0 c 2,37,-1
 152 0 l 2,38,39
 78 0 78 0 39 37 c 128,-1,40
 0 74 0 74 0 144 c 0,41,42
 0 227 0 227 58 283.5 c 128,-1,43
 116 340 116 340 195 340 c 0,44,45
 219 340 219 340 231.5 339 c 128,-1,46
 244 338 244 338 257 331.5 c 128,-1,47
 270 325 270 325 275 313 c 1,48,49
 282 328 282 328 308 328 c 0,50,51
 336 328 336 328 325 255 c 0,52,53
 321 231 321 231 316 199.5 c 128,-1,54
 311 168 311 168 306 141 c 128,-1,55
 301 114 301 114 300 106 c 0,56,57
 293 60 293 60 317 60 c 0,58,59
 333 60 333 60 355 71 c 128,-1,60
 377 82 377 82 394 98 c 0,14,15
EndSplineSet
EndChar

StartChar: b
Encoding: 98 98 71
Width: 350
Flags: W
LayerCount: 2
Fore
SplineSet
171 535 m 0,0,1
 133 535 133 535 91 402 c 128,-1,2
 49 269 49 269 51 153 c 1,3,4
 89 179 89 179 140 277.5 c 128,-1,5
 191 376 191 376 191 448 c 0,6,7
 191 452 191 452 192 465.5 c 128,-1,8
 193 479 193 479 193 489 c 128,-1,9
 193 499 193 499 191.5 510.5 c 128,-1,10
 190 522 190 522 185 528.5 c 128,-1,11
 180 535 180 535 171 535 c 0,0,1
178 600 m 0,12,13
 200 600 200 600 215 587 c 128,-1,14
 230 574 230 574 236.5 552 c 128,-1,15
 243 530 243 530 245.5 512 c 128,-1,16
 248 494 248 494 248 475 c 0,17,18
 248 402 248 402 229 335 c 128,-1,19
 210 268 210 268 179.5 221 c 128,-1,20
 149 174 149 174 122.5 144 c 128,-1,21
 96 114 96 114 71 95 c 1,22,23
 92 54 92 54 150 54 c 0,24,25
 164 54 164 54 178 57.5 c 128,-1,26
 192 61 192 61 206 74.5 c 128,-1,27
 220 88 220 88 220 110 c 0,28,29
 220 126 220 126 210.5 141.5 c 128,-1,30
 201 157 201 157 201 166 c 0,31,32
 201 173 201 173 202.5 176.5 c 128,-1,33
 204 180 204 180 210 182.5 c 128,-1,34
 216 185 216 185 228 185 c 0,35,36
 238 185 238 185 269.5 165 c 128,-1,37
 301 145 301 145 332 136 c 0,38,39
 362 127 362 127 362 112 c 0,40,41
 362 103 362 103 358.5 100.5 c 128,-1,42
 355 98 355 98 344 98 c 0,43,44
 306 98 306 98 264 127 c 1,45,46
 271 111 271 111 271 86 c 0,47,48
 271 60 271 60 235.5 30 c 128,-1,49
 200 0 200 0 149 0 c 0,50,51
 79 0 79 0 39.5 39.5 c 128,-1,52
 0 79 0 79 0 177 c 0,53,54
 0 238 0 238 12 309 c 128,-1,55
 24 380 24 380 45.5 446 c 128,-1,56
 67 512 67 512 102 555.5 c 128,-1,57
 137 599 137 599 178 600 c 0,12,13
EndSplineSet
EndChar

StartChar: c
Encoding: 99 99 72
Width: 350
Flags: W
LayerCount: 2
Fore
SplineSet
202 341 m 0,0,1
 115 341 115 341 57.5 285.5 c 128,-1,2
 0 230 0 230 0 148 c 0,3,4
 0 62 0 62 46 31 c 128,-1,5
 92 0 92 0 180 0 c 0,6,7
 257 0 257 0 318.5 41.5 c 128,-1,8
 380 83 380 83 380 124 c 0,9,10
 380 130 380 130 381 135 c 0,11,12
 381 136 381 136 380 135 c 0,13,14
 376 134 376 134 371 134 c 0,15,16
 364 134 364 134 335.5 116 c 128,-1,17
 307 98 307 98 263.5 79.5 c 128,-1,18
 220 61 220 61 175 61 c 0,19,20
 119 61 119 61 87 80.5 c 128,-1,21
 55 100 55 100 55 151 c 0,22,23
 55 201 55 201 93.5 240.5 c 128,-1,24
 132 280 132 280 193 280 c 0,25,26
 231 280 231 280 271 262 c 0,27,28
 301 250 301 250 307.5 253 c 128,-1,29
 314 256 314 256 314 277 c 0,30,31
 314 302 314 302 275 321.5 c 128,-1,32
 236 341 236 341 202 341 c 0,0,1
EndSplineSet
EndChar

StartChar: d
Encoding: 100 100 73
Width: 504
Flags: W
LayerCount: 2
Fore
SplineSet
318 163 m 0,0,1
 318 112 318 112 276.5 83 c 128,-1,2
 235 54 235 54 186 54 c 0,3,4
 130 54 130 54 97 80.5 c 128,-1,5
 64 107 64 107 64 156 c 0,6,7
 64 209 64 209 105 245.5 c 128,-1,8
 146 282 146 282 190 282 c 0,9,10
 265 282 265 282 291.5 255.5 c 128,-1,11
 318 229 318 229 318 163 c 0,0,1
195 339 m 0,12,13
 105 339 105 339 52.5 285 c 128,-1,14
 0 231 0 231 0 159 c 0,15,16
 0 115 0 115 12.5 83 c 128,-1,17
 25 51 25 51 42 35.5 c 128,-1,18
 59 20 59 20 86.5 11 c 128,-1,19
 114 2 114 2 132 0.5 c 128,-1,20
 150 -1 150 -1 177 -1 c 0,21,22
 218 -1 218 -1 250.5 9 c 128,-1,23
 283 19 283 19 295.5 28 c 128,-1,24
 308 37 308 37 314 45 c 1,25,26
 319 31 319 31 325 23 c 128,-1,27
 331 15 331 15 352 7.5 c 128,-1,28
 373 0 373 0 408 0 c 0,29,30
 463 0 463 0 500.5 50 c 128,-1,31
 538 100 538 100 538 125 c 0,32,33
 538 134 538 134 537.5 137.5 c 128,-1,34
 537 141 537 141 535 142.5 c 128,-1,35
 533 144 533 144 528 144 c 0,36,37
 522 144 522 144 505 123 c 128,-1,38
 488 102 488 102 464 80.5 c 128,-1,39
 440 59 440 59 416 59 c 0,40,41
 396 59 396 59 387.5 60.5 c 128,-1,42
 379 62 379 62 372.5 70 c 128,-1,43
 366 78 366 78 367 95 c 128,-1,44
 368 112 368 112 374 143 c 0,45,46
 394 267 394 267 415 404 c 0,47,48
 420 439 420 439 429 493 c 0,49,50
 444 579 444 579 438 591 c 0,51,52
 434 599 434 599 422 599 c 0,53,54
 416 599 416 599 414 598.5 c 128,-1,55
 412 598 412 598 404.5 592.5 c 128,-1,56
 397 587 397 587 392 576 c 128,-1,57
 387 565 387 565 381 540.5 c 128,-1,58
 375 516 375 516 370 481 c 0,59,60
 353 350 353 350 338 281 c 1,61,62
 306 339 306 339 195 339 c 0,12,13
EndSplineSet
EndChar

StartChar: e
Encoding: 101 101 74
Width: 378
Flags: W
LayerCount: 2
Fore
SplineSet
64 129 m 0,0,1
 54 190 54 190 105.5 238 c 128,-1,2
 157 286 157 286 210 286 c 0,3,4
 287 286 287 286 287 240 c 0,5,6
 287 217 287 217 261.5 192.5 c 128,-1,7
 236 168 236 168 196 151 c 0,8,9
 176 142 176 142 157.5 136.5 c 128,-1,10
 139 131 139 131 124 129.5 c 128,-1,11
 109 128 109 128 99 128 c 128,-1,12
 89 128 89 128 78 128.5 c 128,-1,13
 67 129 67 129 64 129 c 0,0,1
201 342 m 0,14,15
 127 342 127 342 64 283 c 128,-1,16
 1 224 1 224 1 135 c 0,17,18
 1 0 1 0 204 0 c 0,19,20
 282 0 282 0 342.5 45 c 128,-1,21
 403 90 403 90 403 118 c 0,22,23
 403 120 403 120 404.5 125 c 128,-1,24
 406 130 406 130 403.5 131 c 128,-1,25
 401 132 401 132 393 132 c 0,26,27
 391 132 391 132 370.5 113 c 128,-1,28
 350 94 350 94 310 74.5 c 128,-1,29
 270 55 270 55 221 55 c 0,30,31
 157 55 157 55 126 60.5 c 128,-1,32
 95 66 95 66 78 82 c 1,33,34
 116 74 116 74 159.5 82.5 c 128,-1,35
 203 91 203 91 230 107 c 0,36,37
 348 176 348 176 348 232 c 0,38,39
 348 342 348 342 201 342 c 0,14,15
EndSplineSet
EndChar

StartChar: f
Encoding: 102 102 75
Width: 285
Flags: W
LayerCount: 2
Fore
SplineSet
59 139 m 1,0,1
 111 159 111 159 160.5 249.5 c 128,-1,2
 210 340 210 340 210 454 c 0,3,4
 210 528 210 528 177 528 c 0,5,6
 142 528 142 528 99 388.5 c 128,-1,7
 56 249 56 249 59 139 c 1,0,1
56 16 m 1,8,9
 56 -27 56 -27 72 -83.5 c 128,-1,10
 88 -140 88 -140 108 -140 c 0,11,12
 121 -140 121 -140 133 -131 c 128,-1,13
 145 -122 145 -122 145 -102 c 0,14,15
 145 -74 145 -74 115.5 -36.5 c 128,-1,16
 86 1 86 1 56 16 c 1,8,9
180 600 m 0,17,18
 264 600 264 600 264 464 c 0,19,20
 264 318 264 318 208 217.5 c 128,-1,21
 152 117 152 117 75 84 c 1,22,23
 114 48 114 48 175 48 c 0,24,25
 220 48 220 48 254 88 c 0,26,27
 258 93 258 93 264 100 c 128,-1,28
 270 107 270 107 273 111 c 128,-1,29
 276 115 276 115 280 119 c 128,-1,30
 284 123 284 123 287.5 125 c 128,-1,31
 291 127 291 127 294 127 c 0,32,33
 298 127 298 127 298.5 126.5 c 128,-1,34
 299 126 299 126 299 123 c 0,35,36
 298 118 298 118 298 114 c 0,37,38
 298 109 298 109 288 90 c 128,-1,39
 278 71 278 71 268 58 c 2,40,-1
 260 48 l 2,41,42
 253 39 253 39 250.5 36.5 c 128,-1,43
 248 34 248 34 240.5 26 c 128,-1,44
 233 18 233 18 227.5 15.5 c 128,-1,45
 222 13 222 13 213.5 8 c 128,-1,46
 205 3 205 3 196 1.5 c 128,-1,47
 187 0 187 0 176 0 c 0,48,49
 170 0 170 0 166 0 c 128,-1,50
 162 0 162 0 161.5 -0.5 c 128,-1,51
 161 -1 161 -1 159.5 -0.5 c 128,-1,52
 158 0 158 0 157.5 0 c 128,-1,53
 157 0 157 0 152.5 1.5 c 128,-1,54
 148 3 148 3 142 5 c 1,55,56
 201 -47 201 -47 201 -118 c 0,57,58
 201 -149 201 -149 173 -174.5 c 128,-1,59
 145 -200 145 -200 113 -200 c 0,60,61
 65 -200 65 -200 32.5 -136 c 128,-1,62
 0 -72 0 -72 0 42 c 0,63,64
 0 305 0 305 53.5 452.5 c 128,-1,65
 107 600 107 600 180 600 c 0,17,18
EndSplineSet
EndChar

StartChar: g
Encoding: 103 103 76
Width: 501
Flags: W
LayerCount: 2
Fore
SplineSet
173 280 m 0,0,1
 123 280 123 280 88.5 237.5 c 128,-1,2
 54 195 54 195 54 147 c 0,3,4
 54 57 54 57 101 57 c 0,5,6
 113 57 113 57 123.5 59.5 c 128,-1,7
 134 62 134 62 144.5 68 c 128,-1,8
 155 74 155 74 162.5 79 c 128,-1,9
 170 84 170 84 179.5 93 c 128,-1,10
 189 102 189 102 194 107.5 c 128,-1,11
 199 113 199 113 207.5 123 c 128,-1,12
 216 133 216 133 219 136 c 0,13,14
 223 140 223 140 226 145 c 128,-1,15
 229 150 229 150 231 156 c 128,-1,16
 233 162 233 162 234.5 166.5 c 128,-1,17
 236 171 236 171 237 178 c 128,-1,18
 238 185 238 185 239 189 c 128,-1,19
 240 193 240 193 240 201.5 c 128,-1,20
 240 210 240 210 240 212.5 c 128,-1,21
 240 215 240 215 240 224.5 c 128,-1,22
 240 234 240 234 240 235 c 0,23,24
 240 280 240 280 173 280 c 0,0,1
284 144 m 1,25,26
 286 145 286 145 292 150 c 128,-1,27
 298 155 298 155 301 157 c 128,-1,28
 304 159 304 159 310.5 161 c 128,-1,29
 317 163 317 163 323 163 c 0,30,31
 351 163 351 163 365.5 145 c 128,-1,32
 380 127 380 127 382.5 105.5 c 128,-1,33
 385 84 385 84 394 66 c 128,-1,34
 403 48 403 48 421 48 c 0,35,36
 437 48 437 48 457.5 67 c 128,-1,37
 478 86 478 86 494 104.5 c 128,-1,38
 510 123 510 123 515 123 c 0,39,40
 527 123 527 123 527 115 c 0,41,42
 527 98 527 98 488 49 c 128,-1,43
 449 0 449 0 421 0 c 0,44,45
 386 0 386 0 370 16 c 128,-1,46
 354 32 354 32 352.5 51.5 c 128,-1,47
 351 71 351 71 342 87 c 128,-1,48
 333 103 333 103 311 103 c 0,49,50
 305 103 305 103 293 90 c 1,51,52
 294 84 294 84 300 59 c 128,-1,53
 306 34 306 34 310 11 c 128,-1,54
 314 -12 314 -12 317.5 -44 c 128,-1,55
 321 -76 321 -76 317 -101.5 c 128,-1,56
 313 -127 313 -127 304 -150.5 c 128,-1,57
 295 -174 295 -174 272.5 -187 c 128,-1,58
 250 -200 250 -200 217 -200 c 0,59,60
 110 -200 110 -200 110 -121 c 0,61,62
 110 -79 110 -79 232 86 c 1,63,64
 205 56 205 56 189 41 c 128,-1,65
 173 26 173 26 144.5 13 c 128,-1,66
 116 0 116 0 83 0 c 0,67,68
 43 0 43 0 21.5 37.5 c 128,-1,69
 0 75 0 75 0 138 c 0,70,71
 0 219 0 219 45.5 279.5 c 128,-1,72
 91 340 91 340 164 340 c 0,73,74
 217 340 217 340 244 326 c 128,-1,75
 271 312 271 312 282.5 268.5 c 128,-1,76
 294 225 294 225 284 144 c 1,25,26
258 49 m 1,77,78
 238 13 238 13 213 -22 c 128,-1,79
 188 -57 188 -57 179 -74.5 c 128,-1,80
 170 -92 170 -92 170 -114 c 0,81,82
 170 -145 170 -145 217 -145 c 0,83,84
 235 -145 235 -145 247.5 -138 c 128,-1,85
 260 -131 260 -131 265.5 -117 c 128,-1,86
 271 -103 271 -103 273.5 -88.5 c 128,-1,87
 276 -74 276 -74 274 -53 c 128,-1,88
 272 -32 272 -32 269.5 -17 c 128,-1,89
 267 -2 267 -2 263 19 c 128,-1,90
 259 40 259 40 258 49 c 1,77,78
EndSplineSet
EndChar

StartChar: h
Encoding: 104 104 77
Width: 417
Flags: W
LayerCount: 2
Fore
SplineSet
58 236 m 1,0,1
 69 266 69 266 95 292.5 c 128,-1,2
 121 319 121 319 143.5 337 c 128,-1,3
 166 355 166 355 184 391 c 128,-1,4
 202 427 202 427 202 476 c 0,5,6
 202 548 202 548 158 548 c 0,7,8
 133 548 133 548 115.5 523.5 c 128,-1,9
 98 499 98 499 89 459 c 128,-1,10
 80 419 80 419 75 379.5 c 128,-1,11
 70 340 70 340 66 296.5 c 128,-1,12
 62 253 62 253 58 236 c 1,0,1
220 330 m 1,13,14
 269 328 269 328 280.5 297.5 c 128,-1,15
 292 267 292 267 273 163 c 0,16,17
 259 90 259 90 263 75 c 128,-1,18
 267 60 267 60 293 60 c 0,19,20
 321 60 321 60 347 73 c 128,-1,21
 373 86 373 86 387.5 102 c 128,-1,22
 402 118 402 118 415 131 c 128,-1,23
 428 144 428 144 434 144 c 0,24,25
 442 144 442 144 441 135 c 0,26,27
 441 133 441 133 441 132 c 0,28,29
 441 125 441 125 427 104.5 c 128,-1,30
 413 84 413 84 389.5 60 c 128,-1,31
 366 36 366 36 327.5 18 c 128,-1,32
 289 0 289 0 249 0 c 0,33,34
 236 0 236 0 226.5 1 c 128,-1,35
 217 2 217 2 211 6 c 128,-1,36
 205 10 205 10 200.5 13.5 c 128,-1,37
 196 17 196 17 194.5 25 c 128,-1,38
 193 33 193 33 193 39.5 c 128,-1,39
 193 46 193 46 194.5 59 c 128,-1,40
 196 72 196 72 197.5 82 c 128,-1,41
 199 92 199 92 202.5 110 c 128,-1,42
 206 128 206 128 208 142 c 0,43,44
 213 175 213 175 215 191 c 128,-1,45
 217 207 217 207 216.5 230 c 128,-1,46
 216 253 216 253 207 263 c 128,-1,47
 198 273 198 273 181 273 c 0,48,49
 145 273 145 273 105 211 c 128,-1,50
 65 149 65 149 63 102 c 0,51,52
 62 79 62 79 62 62 c 128,-1,53
 62 45 62 45 62 33.5 c 128,-1,54
 62 22 62 22 59.5 14.5 c 128,-1,55
 57 7 57 7 50.5 3.5 c 128,-1,56
 44 0 44 0 32 0 c 0,57,58
 21 0 21 0 13.5 3 c 128,-1,59
 6 6 6 6 2 12.5 c 128,-1,60
 -2 19 -2 19 -4 26 c 128,-1,61
 -6 33 -6 33 -6 45.5 c 128,-1,62
 -6 58 -6 58 -5 68.5 c 128,-1,63
 -4 79 -4 79 -3 96 c 128,-1,64
 -2 113 -2 113 -1 126 c 0,65,66
 4 259 4 259 12 326 c 0,67,68
 14 343 14 343 17 385.5 c 128,-1,69
 20 428 20 428 22.5 450 c 128,-1,70
 25 472 25 472 34 505.5 c 128,-1,71
 43 539 43 539 57 556 c 128,-1,72
 71 573 71 573 96.5 586.5 c 128,-1,73
 122 600 122 600 158 600 c 0,74,75
 202 600 202 600 232.5 571.5 c 128,-1,76
 263 543 263 543 263 489 c 0,77,78
 263 441 263 441 256 407.5 c 128,-1,79
 249 374 249 374 241 360.5 c 128,-1,80
 233 347 233 347 220 330 c 1,13,14
EndSplineSet
EndChar

StartChar: i
Encoding: 105 105 78
Width: 232
Flags: W
LayerCount: 2
Fore
SplineSet
51 456 m 0,0,1
 44 431 44 431 56 413 c 128,-1,2
 68 395 68 395 86 395 c 0,3,4
 125 395 125 395 140 466 c 0,5,6
 149 508 149 508 108 508 c 0,7,8
 94 508 94 508 76 494 c 128,-1,9
 58 480 58 480 51 456 c 0,0,1
89 338 m 0,10,11
 101 338 101 338 106 331 c 128,-1,12
 111 324 111 324 108.5 308 c 128,-1,13
 106 292 106 292 102 277 c 128,-1,14
 98 262 98 262 89 234 c 0,15,16
 32 60 32 60 129 60 c 0,17,18
 150 60 150 60 177.5 77 c 128,-1,19
 205 94 205 94 225.5 110.5 c 128,-1,20
 246 127 246 127 250 127 c 2,21,-1
 265 126 l 1,22,-1
 264 125 l 2,23,24
 260 123 260 123 260 120 c 0,25,26
 260 96 260 96 201 48 c 128,-1,27
 142 0 142 0 110 0 c 0,28,29
 -7 0 -7 0 -2 117 c 0,30,31
 0 159 0 159 30 273 c 0,32,33
 38 303 38 303 54.5 320.5 c 128,-1,34
 71 338 71 338 89 338 c 0,10,11
EndSplineSet
EndChar

StartChar: j
Encoding: 106 106 79
Width: 405
Flags: W
LayerCount: 2
Fore
SplineSet
150 94 m 1,0,1
 172 -55 172 -55 157 -106 c 0,2,3
 146 -145 146 -145 116 -145 c 0,4,5
 92 -145 92 -145 92 -113 c 0,6,7
 92 -47 92 -47 150 94 c 1,0,1
210 143 m 0,8,9
 231 143 231 143 240 120.5 c 128,-1,10
 249 98 249 98 250.5 71.5 c 128,-1,11
 252 45 252 45 268.5 22.5 c 128,-1,12
 285 0 285 0 320 0 c 0,13,14
 348 0 348 0 387 46.5 c 128,-1,15
 426 93 426 93 426 110 c 0,16,17
 426 118 426 118 414 118 c 0,18,19
 412 118 412 118 398 100.5 c 128,-1,20
 384 83 384 83 362.5 65.5 c 128,-1,21
 341 48 341 48 320 48 c 0,22,23
 302 48 302 48 294 72 c 128,-1,24
 286 96 286 96 284.5 124.5 c 128,-1,25
 283 153 283 153 268 177 c 128,-1,26
 253 201 253 201 222 201 c 0,27,28
 209 202 209 202 204 201.5 c 128,-1,29
 199 201 199 201 192 196 c 1,30,31
 193 213 193 213 194.5 232 c 128,-1,32
 196 251 196 251 197.5 263 c 128,-1,33
 199 275 199 275 199.5 287.5 c 128,-1,34
 200 300 200 300 199 307 c 128,-1,35
 198 314 198 314 194 320.5 c 128,-1,36
 190 327 190 327 182 329.5 c 128,-1,37
 174 332 174 332 162 332 c 0,38,39
 145 332 145 332 132.5 313.5 c 128,-1,40
 120 295 120 295 99 255 c 128,-1,41
 78 215 78 215 54 185 c 0,42,43
 -15 97 -15 97 -15 90 c 0,44,45
 -15 80 -15 80 -7 80 c 256,46,47
 1 80 1 80 29.5 105 c 128,-1,48
 58 130 58 130 81 157 c 0,49,50
 122 205 122 205 145 248 c 1,51,52
 143 228 143 228 140 159 c 1,53,54
 98 99 98 99 69.5 19.5 c 128,-1,55
 41 -60 41 -60 41 -120 c 0,56,57
 41 -155 41 -155 60.5 -177.5 c 128,-1,58
 80 -200 80 -200 116 -200 c 0,59,60
 146 -200 146 -200 167 -185.5 c 128,-1,61
 188 -171 188 -171 197 -144 c 128,-1,62
 206 -117 206 -117 210.5 -89.5 c 128,-1,63
 215 -62 215 -62 212 -24 c 128,-1,64
 209 14 209 14 206 38 c 128,-1,65
 203 62 203 62 198 94 c 128,-1,66
 193 126 193 126 192 130 c 0,67,68
 204 143 204 143 210 143 c 0,8,9
128 456 m 0,69,70
 121 431 121 431 133 413 c 128,-1,71
 145 395 145 395 163 395 c 0,72,73
 202 395 202 395 217 466 c 0,74,75
 226 508 226 508 185 508 c 0,76,77
 171 508 171 508 153 494 c 128,-1,78
 135 480 135 480 128 456 c 0,69,70
EndSplineSet
EndChar

StartChar: k
Encoding: 107 107 80
Width: 372
Flags: W
LayerCount: 2
Fore
SplineSet
-1 126 m 0,0,1
 -2 113 -2 113 -3 96 c 128,-1,2
 -4 79 -4 79 -5 68.5 c 128,-1,3
 -6 58 -6 58 -6 45.5 c 128,-1,4
 -6 33 -6 33 -4 26 c 128,-1,5
 -2 19 -2 19 2 12.5 c 128,-1,6
 6 6 6 6 13.5 3 c 128,-1,7
 21 0 21 0 32 0 c 0,8,9
 46 0 46 0 53 4.5 c 128,-1,10
 60 9 60 9 60.5 17 c 128,-1,11
 61 25 61 25 61 37.5 c 128,-1,12
 61 50 61 50 61 65 c 0,13,14
 62 78 62 78 61.5 102 c 128,-1,15
 61 126 61 126 63 142 c 1,16,17
 88 109 88 109 100 91 c 0,18,19
 122 58 122 58 136 42 c 128,-1,20
 150 26 150 26 176 13 c 128,-1,21
 202 0 202 0 237 0 c 0,22,23
 278 0 278 0 337 53 c 128,-1,24
 396 106 396 106 396 123 c 0,25,26
 396 124 396 124 396 126 c 0,27,28
 397 135 397 135 389 135 c 0,29,30
 385 135 385 135 329.5 95.5 c 128,-1,31
 274 56 274 56 251 56 c 0,32,33
 249 56 249 56 242.5 56 c 128,-1,34
 236 56 236 56 234 56 c 128,-1,35
 232 56 232 56 227 56.5 c 128,-1,36
 222 57 222 57 220 58 c 128,-1,37
 218 59 218 59 213 61 c 128,-1,38
 208 63 208 63 204.5 66.5 c 128,-1,39
 201 70 201 70 195.5 74 c 128,-1,40
 190 78 190 78 185 84.5 c 128,-1,41
 180 91 180 91 173 98.5 c 128,-1,42
 166 106 166 106 158 116 c 0,43,44
 127 154 127 154 100 197 c 1,45,46
 125 217 125 217 179 262 c 0,47,48
 184 266 184 266 198.5 277 c 128,-1,49
 213 288 213 288 221 294.5 c 128,-1,50
 229 301 229 301 236 310 c 128,-1,51
 243 319 243 319 243 326 c 0,52,53
 243 339 243 339 213 339 c 0,54,55
 202 339 202 339 191 335 c 128,-1,56
 180 331 180 331 174.5 327.5 c 128,-1,57
 169 324 169 324 155 313.5 c 128,-1,58
 141 303 141 303 136 299 c 0,59,60
 123 289 123 289 98 272 c 128,-1,61
 73 255 73 255 65 249 c 1,62,63
 66 282 66 282 69 327 c 128,-1,64
 72 372 72 372 73 395 c 256,65,66
 74 418 74 418 75.5 446.5 c 128,-1,67
 77 475 77 475 78 492 c 128,-1,68
 79 509 79 509 80 529 c 128,-1,69
 81 549 81 549 81 560 c 128,-1,70
 81 571 81 571 79.5 581 c 128,-1,71
 78 591 78 591 75 595.5 c 128,-1,72
 72 600 72 600 67 600 c 0,73,74
 30 600 30 600 22.5 579 c 128,-1,75
 15 558 15 558 11 462 c 0,76,77
 9 420 9 420 5.5 313.5 c 128,-1,78
 2 207 2 207 -1 126 c 0,0,1
EndSplineSet
EndChar

StartChar: l
Encoding: 108 108 81
Width: 285
Flags: W
LayerCount: 2
Fore
SplineSet
47 143 m 1,0,1
 105 165 105 165 157.5 252.5 c 128,-1,2
 210 340 210 340 210 454 c 0,3,4
 210 528 210 528 177 528 c 0,5,6
 154 528 154 528 122 466 c 128,-1,7
 90 404 90 404 67.5 311 c 128,-1,8
 45 218 45 218 47 143 c 1,0,1
-23 101 m 0,9,10
 -23 111 -23 111 0 128 c 1,11,12
 0 241 0 241 26.5 351.5 c 128,-1,13
 53 462 53 462 95 531 c 128,-1,14
 137 600 137 600 180 600 c 0,15,16
 264 600 264 600 264 464 c 0,17,18
 264 321 264 321 204.5 231 c 128,-1,19
 145 141 145 141 54 94 c 1,20,21
 52 77 52 77 59 66.5 c 128,-1,22
 66 56 66 56 81 51.5 c 128,-1,23
 96 47 96 47 110 45.5 c 128,-1,24
 124 44 124 44 146 44 c 0,25,26
 175 44 175 44 210 64 c 128,-1,27
 245 84 245 84 268.5 103.5 c 128,-1,28
 292 123 292 123 294 123 c 0,29,30
 298 123 298 123 298.5 122.5 c 128,-1,31
 299 122 299 122 299 119 c 0,32,33
 298 114 298 114 298 110 c 0,34,35
 298 104 298 104 288 88 c 128,-1,36
 278 72 278 72 262 58 c 0,37,38
 236 35 236 35 200 17.5 c 128,-1,39
 164 0 164 0 130 0 c 0,40,41
 13 0 13 0 4 87 c 1,42,43
 -23 87 -23 87 -23 101 c 0,9,10
EndSplineSet
EndChar

StartChar: m
Encoding: 109 109 82
Width: 750
Flags: W
LayerCount: 2
Fore
SplineSet
196 -1 m 0,0,1
 165 -1 165 -1 163 21.5 c 128,-1,2
 161 44 161 44 177 89 c 0,3,4
 184 113 184 113 187 126 c 0,5,6
 188 131 188 131 197 159 c 128,-1,7
 206 187 206 187 208.5 201.5 c 128,-1,8
 211 216 211 216 211.5 237 c 128,-1,9
 212 258 212 258 200.5 268 c 128,-1,10
 189 278 189 278 167 278 c 0,11,12
 152 278 152 278 141 274 c 128,-1,13
 130 270 130 270 121 260 c 128,-1,14
 112 250 112 250 107.5 243 c 128,-1,15
 103 236 103 236 95 220.5 c 128,-1,16
 87 205 87 205 84 199 c 0,17,18
 26 98 26 98 -1 98 c 0,19,20
 -9 98 -9 98 -9 107 c 0,21,22
 -9 108 -9 108 -9 109 c 0,23,24
 -9 116 -9 116 -2 129.5 c 128,-1,25
 5 143 5 143 17.5 167.5 c 128,-1,26
 30 192 30 192 38 217 c 0,27,28
 78 338 78 338 170 338 c 0,29,30
 207 338 207 338 227.5 331.5 c 128,-1,31
 248 325 248 325 252.5 318.5 c 128,-1,32
 257 312 257 312 262 298 c 1,33,34
 292 334 292 334 363 334 c 0,35,36
 392 334 392 334 410 327.5 c 128,-1,37
 428 321 428 321 434 314.5 c 128,-1,38
 440 308 440 308 445 296 c 1,39,40
 466 329 466 329 545 329 c 0,41,42
 584 329 584 329 604 305.5 c 128,-1,43
 624 282 624 282 623.5 245 c 128,-1,44
 623 208 623 208 613 163 c 0,45,46
 597 101 597 101 602.5 80.5 c 128,-1,47
 608 60 608 60 639 60 c 0,48,49
 667 60 667 60 692 73 c 128,-1,50
 717 86 717 86 731 102 c 128,-1,51
 745 118 745 118 757 131 c 128,-1,52
 769 144 769 144 775 144 c 0,53,54
 783 144 783 144 782 135 c 0,55,56
 782 133 782 133 782 132 c 0,57,58
 782 125 782 125 768.5 104.5 c 128,-1,59
 755 84 755 84 732.5 60 c 128,-1,60
 710 36 710 36 672.5 18 c 128,-1,61
 635 0 635 0 595 0 c 0,62,63
 535 0 535 0 526 34.5 c 128,-1,64
 517 69 517 69 536 112 c 0,65,66
 538 121 538 121 539 125 c 0,67,68
 560 205 560 205 558 233.5 c 128,-1,69
 556 262 556 262 527 262 c 0,70,71
 496 262 496 262 476.5 233 c 128,-1,72
 457 204 457 204 434 122 c 0,73,74
 432 115 432 115 428 99 c 128,-1,75
 424 83 424 83 421.5 74.5 c 128,-1,76
 419 66 419 66 414.5 52.5 c 128,-1,77
 410 39 410 39 406 31 c 128,-1,78
 402 23 402 23 396.5 14.5 c 128,-1,79
 391 6 391 6 384.5 2.5 c 128,-1,80
 378 -1 378 -1 370 -1 c 0,81,82
 348 -1 348 -1 341 9 c 128,-1,83
 334 19 334 19 337 37 c 128,-1,84
 340 55 340 55 350 88 c 0,85,86
 356 107 356 107 359 118 c 0,87,88
 364 137 364 137 371.5 159.5 c 128,-1,89
 379 182 379 182 383.5 195 c 128,-1,90
 388 208 388 208 392 223 c 128,-1,91
 396 238 396 238 395 245.5 c 128,-1,92
 394 253 394 253 388.5 260.5 c 128,-1,93
 383 268 383 268 371 270.5 c 128,-1,94
 359 273 359 273 339 273 c 0,95,96
 310 273 310 273 290 235 c 128,-1,97
 270 197 270 197 252 116 c 0,98,99
 226 -1 226 -1 196 -1 c 0,0,1
EndSplineSet
EndChar

StartChar: n
Encoding: 110 110 83
Width: 611
Flags: W
LayerCount: 2
Fore
SplineSet
472 163 m 0,0,1
 476 185 476 185 478 196 c 128,-1,2
 480 207 480 207 481.5 228.5 c 128,-1,3
 483 250 483 250 481 261.5 c 128,-1,4
 479 273 479 273 472.5 288.5 c 128,-1,5
 466 304 466 304 454.5 312 c 128,-1,6
 443 320 443 320 423.5 326 c 128,-1,7
 404 332 404 332 378 332 c 0,8,9
 316 332 316 332 271 296 c 1,10,11
 233 340 233 340 153 340 c 0,12,13
 121 340 121 340 93.5 315 c 128,-1,14
 66 290 66 290 53.5 265.5 c 128,-1,15
 41 241 41 241 32 216 c 0,16,17
 24 192 24 192 13 167.5 c 128,-1,18
 2 143 2 143 -3.5 130 c 128,-1,19
 -9 117 -9 117 -9 110 c 0,20,21
 -9 105 -9 105 -9 104 c 128,-1,22
 -9 103 -9 103 -7 101 c 128,-1,23
 -5 99 -5 99 -1 99 c 0,24,25
 31 99 31 99 74 194 c 0,26,27
 85 218 85 218 94.5 233.5 c 128,-1,28
 104 249 104 249 123.5 263.5 c 128,-1,29
 143 278 143 278 167 278 c 0,30,31
 188 278 188 278 200.5 269.5 c 128,-1,32
 213 261 213 261 217 249.5 c 128,-1,33
 221 238 221 238 219 219.5 c 128,-1,34
 217 201 217 201 213.5 187.5 c 128,-1,35
 210 174 210 174 204 154 c 128,-1,36
 198 134 198 134 196 126 c 0,37,38
 175 37 175 37 175 34 c 0,39,40
 177 1 177 1 203 -1 c 0,41,42
 211 -1 211 -1 216.5 0.5 c 128,-1,43
 222 2 222 2 226.5 7 c 128,-1,44
 231 12 231 12 234 17 c 128,-1,45
 237 22 237 22 240 32.5 c 128,-1,46
 243 43 243 43 245 51 c 128,-1,47
 247 59 247 59 251 75.5 c 128,-1,48
 255 92 255 92 258 104 c 0,49,50
 261 115 261 115 266.5 141.5 c 128,-1,51
 272 168 272 168 275.5 182 c 128,-1,52
 279 196 279 196 288 216.5 c 128,-1,53
 297 237 297 237 308 247.5 c 128,-1,54
 319 258 319 258 337.5 266 c 128,-1,55
 356 274 356 274 381 274 c 0,56,57
 399 274 399 274 409 266 c 128,-1,58
 419 258 419 258 420 241 c 128,-1,59
 421 224 421 224 420 211.5 c 128,-1,60
 419 199 419 199 413.5 174 c 128,-1,61
 408 149 408 149 407 142 c 0,62,63
 405 129 405 129 401.5 110 c 128,-1,64
 398 91 398 91 396.5 81.5 c 128,-1,65
 395 72 395 72 393 59 c 128,-1,66
 391 46 391 46 391.5 40 c 128,-1,67
 392 34 392 34 393.5 25.5 c 128,-1,68
 395 17 395 17 399 13.5 c 128,-1,69
 403 10 403 10 409.5 6 c 128,-1,70
 416 2 416 2 425.5 1 c 128,-1,71
 435 0 435 0 448 0 c 0,72,73
 488 0 488 0 526.5 18 c 128,-1,74
 565 36 565 36 588.5 60 c 128,-1,75
 612 84 612 84 626 104.5 c 128,-1,76
 640 125 640 125 640 132 c 0,77,78
 640 133 640 133 640 135 c 0,79,80
 641 144 641 144 633 144 c 0,81,82
 627 144 627 144 614 131 c 128,-1,83
 601 118 601 118 586.5 102 c 128,-1,84
 572 86 572 86 546 73 c 128,-1,85
 520 60 520 60 492 60 c 0,86,87
 466 60 466 60 462.5 75 c 128,-1,88
 459 90 459 90 472 163 c 0,0,1
EndSplineSet
EndChar

StartChar: o
Encoding: 111 111 84
Width: 425
Flags: W
LayerCount: 2
Fore
SplineSet
288 97 m 1,0,1
 241 58 241 58 168 58 c 0,2,3
 124 58 124 58 91.5 77 c 128,-1,4
 59 96 59 96 59 137 c 0,5,6
 59 170 59 170 82 200 c 128,-1,7
 105 230 105 230 126 243 c 1,8,9
 146 195 146 195 178 160 c 0,10,11
 220 114 220 114 288 97 c 1,0,1
242 196 m 0,12,13
 206 222 206 222 186 268 c 1,14,15
 211 283 211 283 237 283 c 0,16,17
 293 283 293 283 315.5 246 c 128,-1,18
 338 209 338 209 320 152 c 1,19,20
 292 160 292 160 242 196 c 0,12,13
220 336 m 0,21,22
 148 336 148 336 74.5 270 c 128,-1,23
 1 204 1 204 1 121 c 0,24,25
 1 64 1 64 48 32 c 128,-1,26
 95 0 95 0 175 0 c 0,27,28
 303 0 303 0 359 79 c 1,29,30
 394 73 394 73 427 90.5 c 128,-1,31
 460 108 460 108 460 127 c 0,32,33
 460 140 460 140 446 140 c 0,34,35
 444 140 444 140 433.5 136.5 c 128,-1,36
 423 133 423 133 411.5 131.5 c 128,-1,37
 400 130 400 130 376 134 c 1,38,39
 430 336 430 336 220 336 c 0,21,22
EndSplineSet
EndChar

StartChar: p
Encoding: 112 112 85
Width: 406
Flags: W
LayerCount: 2
Fore
SplineSet
194 287 m 1,0,1
 203 293 203 293 229 292 c 0,2,3
 266 290 266 290 281.5 251.5 c 128,-1,4
 297 213 297 213 295 168 c 128,-1,5
 293 123 293 123 297.5 85.5 c 128,-1,6
 302 48 302 48 320 48 c 0,7,8
 341 48 341 48 362.5 65.5 c 128,-1,9
 384 83 384 83 398 100.5 c 128,-1,10
 412 118 412 118 414 118 c 0,11,12
 426 118 426 118 426 110 c 0,13,14
 426 93 426 93 387 46.5 c 128,-1,15
 348 0 348 0 320 0 c 0,16,17
 284 0 284 0 266 24 c 128,-1,18
 248 48 248 48 246 82.5 c 128,-1,19
 244 117 244 117 244.5 151.5 c 128,-1,20
 245 186 245 186 239.5 210 c 128,-1,21
 234 234 234 234 217 234 c 0,22,23
 213 234 213 234 209.5 230 c 128,-1,24
 206 226 206 226 202.5 216.5 c 128,-1,25
 199 207 199 207 196.5 197 c 128,-1,26
 194 187 194 187 191.5 170.5 c 128,-1,27
 189 154 189 154 187 140 c 128,-1,28
 185 126 185 126 182.5 104 c 128,-1,29
 180 82 180 82 178 66 c 128,-1,30
 176 50 176 50 173.5 25 c 128,-1,31
 171 0 171 0 169 -16 c 0,32,33
 166 -45 166 -45 161 -91 c 0,34,35
 153 -164 153 -164 149 -182 c 128,-1,36
 145 -200 145 -200 136 -200 c 0,37,38
 101 -200 101 -200 101 -190 c 0,39,40
 101 -113 101 -113 114 -12 c 0,41,42
 144 224 144 224 151 258 c 1,43,44
 124 207 124 207 81 157 c 0,45,46
 58 130 58 130 31.5 107 c 128,-1,47
 5 84 5 84 -3 84 c 0,48,49
 -9 84 -9 84 -11.5 86 c 128,-1,50
 -14 88 -14 88 -14.5 89.5 c 128,-1,51
 -15 91 -15 91 -15 96 c 0,52,53
 -15 100 -15 100 -6 111 c 128,-1,54
 3 122 3 122 21 145.5 c 128,-1,55
 39 169 39 169 53 187 c 0,56,57
 68 208 68 208 87 248.5 c 128,-1,58
 106 289 106 289 122.5 310.5 c 128,-1,59
 139 332 139 332 162 332 c 0,60,61
 194 332 194 332 194 287 c 1,0,1
EndSplineSet
EndChar

StartChar: q
Encoding: 113 113 86
Width: 506
Flags: W
LayerCount: 2
Fore
SplineSet
160 280 m 0,0,1
 176 280 176 280 187 279.5 c 128,-1,2
 198 279 198 279 207.5 276.5 c 128,-1,3
 217 274 217 274 222 272.5 c 128,-1,4
 227 271 227 271 231.5 264 c 128,-1,5
 236 257 236 257 237.5 253 c 128,-1,6
 239 249 239 249 240 236.5 c 128,-1,7
 241 224 241 224 241 216.5 c 128,-1,8
 241 209 241 209 240.5 190 c 128,-1,9
 240 171 240 171 240 158 c 0,10,11
 240 119 240 119 197 85.5 c 128,-1,12
 154 52 154 52 117 52 c 0,13,14
 78 52 78 52 66 74 c 128,-1,15
 54 96 54 96 54 147 c 0,16,17
 54 193 54 193 88 236.5 c 128,-1,18
 122 280 122 280 160 280 c 0,0,1
211 -72 m 0,19,20
 207 -115 207 -115 205 -141.5 c 128,-1,21
 203 -168 203 -168 204 -174.5 c 128,-1,22
 205 -181 205 -181 206 -184.5 c 128,-1,23
 207 -188 207 -188 207 -190 c 0,24,25
 207 -200 207 -200 242 -200 c 0,26,27
 252 -200 252 -200 256 -177.5 c 128,-1,28
 260 -155 260 -155 265 -87 c 0,29,30
 266 -68 266 -68 267 -58 c 0,31,32
 276 66 276 66 326 66 c 0,33,34
 339 66 339 66 348.5 55.5 c 128,-1,35
 358 45 358 45 363 33 c 128,-1,36
 368 21 368 21 383.5 10.5 c 128,-1,37
 399 0 399 0 423 0 c 0,38,39
 453 0 453 0 491 49 c 128,-1,40
 529 98 529 98 529 119 c 0,41,42
 529 127 529 127 517 127 c 0,43,44
 515 127 515 127 501 107.5 c 128,-1,45
 487 88 487 88 465.5 68 c 128,-1,46
 444 48 444 48 423 48 c 0,47,48
 411 48 411 48 401.5 61.5 c 128,-1,49
 392 75 392 75 385.5 91 c 128,-1,50
 379 107 379 107 366.5 120.5 c 128,-1,51
 354 134 354 134 338 134 c 0,52,53
 329 134 329 134 319 128 c 128,-1,54
 309 122 309 122 298.5 112.5 c 128,-1,55
 288 103 288 103 285 101 c 1,56,57
 286 108 286 108 288.5 139 c 128,-1,58
 291 170 291 170 291.5 181.5 c 128,-1,59
 292 193 292 193 291 220 c 128,-1,60
 290 247 290 247 286 259 c 128,-1,61
 282 271 282 271 273 290 c 128,-1,62
 264 309 264 309 250 317.5 c 128,-1,63
 236 326 236 326 214.5 333 c 128,-1,64
 193 340 193 340 164 340 c 0,65,66
 95 340 95 340 47.5 278.5 c 128,-1,67
 0 217 0 217 0 138 c 0,68,69
 0 65 0 65 25.5 32.5 c 128,-1,70
 51 0 51 0 113 0 c 0,71,72
 142 0 142 0 165.5 8 c 128,-1,73
 189 16 189 16 199.5 22.5 c 128,-1,74
 210 29 210 29 226 43 c 1,75,76
 226 35 226 35 224 25 c 128,-1,77
 222 15 222 15 218.5 -9.5 c 128,-1,78
 215 -34 215 -34 211 -72 c 0,19,20
EndSplineSet
EndChar

StartChar: r
Encoding: 114 114 87
Width: 398
Flags: W
LayerCount: 2
Fore
SplineSet
23 384 m 0,0,1
 35 384 35 384 42 377.5 c 128,-1,2
 49 371 49 371 55 362 c 128,-1,3
 61 353 61 353 70.5 344 c 128,-1,4
 80 335 80 335 102.5 328.5 c 128,-1,5
 125 322 125 322 160 322 c 0,6,7
 184 322 184 322 226 327 c 128,-1,8
 268 332 268 332 270 332 c 0,9,10
 278 332 278 332 280.5 331.5 c 128,-1,11
 283 331 283 331 285 326.5 c 128,-1,12
 287 322 287 322 287 313 c 0,13,14
 287 283 287 283 267 239.5 c 128,-1,15
 247 196 247 196 247 145 c 0,16,17
 247 59 247 59 285 59 c 0,18,19
 307 59 307 59 330.5 73 c 128,-1,20
 354 87 354 87 370 104.5 c 128,-1,21
 386 122 386 122 402 136 c 128,-1,22
 418 150 418 150 427 150 c 0,23,24
 439 150 439 150 439 142 c 0,25,26
 439 120 439 120 386.5 60 c 128,-1,27
 334 0 334 0 292 0 c 0,28,29
 187 0 187 0 187 141 c 0,30,31
 187 212 187 212 220 273 c 1,32,33
 195 262 195 262 159 262 c 0,34,35
 100 262 100 262 72 280 c 1,36,37
 83 256 83 256 83 219 c 0,38,39
 83 190 83 190 51 144 c 128,-1,40
 19 98 19 98 -2 98 c 0,41,42
 -10 98 -10 98 -10 107 c 0,43,44
 -10 108 -10 108 -10 109 c 0,45,46
 -10 112 -10 112 11 152.5 c 128,-1,47
 32 193 32 193 32 225 c 0,48,49
 32 261 32 261 24.5 280.5 c 128,-1,50
 17 300 17 300 7.5 304.5 c 128,-1,51
 -2 309 -2 309 -9.5 320 c 128,-1,52
 -17 331 -17 331 -17 351 c 0,53,54
 -17 365 -17 365 -6.5 374.5 c 128,-1,55
 4 384 4 384 23 384 c 0,0,1
EndSplineSet
EndChar

StartChar: s
Encoding: 115 115 88
Width: 391
Flags: W
LayerCount: 2
Fore
SplineSet
253 67 m 1,0,1
 265 81 265 81 269 86.5 c 128,-1,2
 273 92 273 92 276.5 106.5 c 128,-1,3
 280 121 280 121 280 144 c 0,4,5
 280 189 280 189 248 211 c 128,-1,6
 216 233 216 233 166.5 250.5 c 128,-1,7
 117 268 117 268 95 292 c 0,8,9
 90 297 90 297 81.5 313.5 c 128,-1,10
 73 330 73 330 64 341 c 128,-1,11
 55 352 55 352 44 352 c 0,12,13
 26 352 26 352 15 337.5 c 128,-1,14
 4 323 4 323 4 304 c 0,15,16
 4 287 4 287 22.5 270 c 128,-1,17
 41 253 41 253 32 225 c 0,18,19
 26 207 26 207 15 180 c 128,-1,20
 4 153 4 153 -3 134.5 c 128,-1,21
 -10 116 -10 116 -10 109 c 0,22,23
 -10 104 -10 104 -10 103 c 128,-1,24
 -10 102 -10 102 -8 100 c 128,-1,25
 -6 98 -6 98 -2 98 c 0,26,27
 19 98 19 98 48.5 150.5 c 128,-1,28
 78 203 78 203 80 237 c 1,29,30
 105 215 105 215 143 201 c 128,-1,31
 181 187 181 187 200.5 174.5 c 128,-1,32
 220 162 220 162 220 136 c 0,33,34
 220 104 220 104 186.5 77.5 c 128,-1,35
 153 51 153 51 120 51 c 0,36,37
 95 51 95 51 78.5 68.5 c 128,-1,38
 62 86 62 86 55 86 c 0,39,40
 45 86 45 86 33.5 79.5 c 128,-1,41
 22 73 22 73 22 64 c 0,42,43
 22 35 22 35 53.5 17.5 c 128,-1,44
 85 0 85 0 112 0 c 0,45,46
 137 0 137 0 156.5 4 c 128,-1,47
 176 8 176 8 183.5 11 c 128,-1,48
 191 14 191 14 204 23 c 128,-1,49
 217 32 217 32 218 32 c 0,50,51
 245 0 245 0 292 0 c 0,52,53
 344 0 344 0 379.5 48.5 c 128,-1,54
 415 97 415 97 415 124 c 0,55,56
 415 132 415 132 403 132 c 0,57,58
 397 132 397 132 389 119 c 128,-1,59
 381 106 381 106 372.5 90 c 128,-1,60
 364 74 364 74 343.5 61 c 128,-1,61
 323 48 323 48 296 48 c 0,62,63
 275 48 275 48 253 67 c 1,0,1
EndSplineSet
EndChar

StartChar: t
Encoding: 116 116 89
Width: 239
Flags: W
LayerCount: 2
Fore
SplineSet
111 498 m 0,0,1
 134 498 134 498 141 494.5 c 128,-1,2
 148 491 148 491 148 480 c 128,-1,3
 148 469 148 469 141 441 c 128,-1,4
 134 413 134 413 124.5 379.5 c 128,-1,5
 115 346 115 346 112 335 c 1,6,7
 146 325 146 325 178 320 c 0,8,9
 221 314 221 314 227 304 c 0,10,11
 231 299 231 299 229 292 c 0,12,13
 225 277 225 277 209 269 c 128,-1,14
 193 261 193 261 173 262 c 0,15,16
 157 263 157 263 128.5 268.5 c 128,-1,17
 100 274 100 274 95 275 c 1,18,19
 93 267 93 267 86.5 246 c 128,-1,20
 80 225 80 225 75.5 208 c 128,-1,21
 71 191 71 191 66.5 168 c 128,-1,22
 62 145 62 145 63 127 c 128,-1,23
 64 109 64 109 69.5 93 c 128,-1,24
 75 77 75 77 90 68.5 c 128,-1,25
 105 60 105 60 129 60 c 0,26,27
 158 60 158 60 187 77 c 128,-1,28
 216 94 216 94 234.5 110.5 c 128,-1,29
 253 127 253 127 256 127 c 2,30,-1
 271 126 l 1,31,-1
 270 125 l 2,32,33
 266 123 266 123 266 120 c 0,34,35
 266 93 266 93 212 46.5 c 128,-1,36
 158 0 158 0 110 0 c 0,37,38
 84 0 84 0 64 6 c 128,-1,39
 44 12 44 12 32.5 24 c 128,-1,40
 21 36 21 36 12.5 48 c 128,-1,41
 4 60 4 60 2 79.5 c 128,-1,42
 0 99 0 99 -1 113 c 128,-1,43
 -2 127 -2 127 1.5 148.5 c 128,-1,44
 5 170 5 170 7 179.5 c 128,-1,45
 9 189 9 189 13.5 208 c 128,-1,46
 18 227 18 227 18 228 c 0,47,48
 20 238 20 238 28 263 c 128,-1,49
 36 288 36 288 38 295 c 1,50,51
 15 311 15 311 15 326 c 0,52,53
 15 337 15 337 27.5 340.5 c 128,-1,54
 40 344 40 344 53 342 c 1,55,56
 55 349 55 349 70 399 c 0,57,58
 72 405 72 405 76 418.5 c 128,-1,59
 80 432 80 432 82 439 c 128,-1,60
 84 446 84 446 87.5 457 c 128,-1,61
 91 468 91 468 93.5 474 c 128,-1,62
 96 480 96 480 99 486 c 128,-1,63
 102 492 102 492 105 495 c 128,-1,64
 108 498 108 498 111 498 c 0,0,1
EndSplineSet
EndChar

StartChar: u
Encoding: 117 117 90
Width: 473
Flags: W
LayerCount: 2
Fore
SplineSet
7 158 m 0,0,1
 -16 67 -16 67 24 33.5 c 128,-1,2
 64 0 64 0 162 0 c 0,3,4
 237 0 237 0 284 57 c 1,5,6
 283 37 283 37 303 18.5 c 128,-1,7
 323 0 323 0 369 0 c 0,8,9
 404 0 404 0 451.5 45 c 128,-1,10
 499 90 499 90 499 116 c 0,11,12
 499 117 499 117 499.5 121 c 128,-1,13
 500 125 500 125 500 127 c 128,-1,14
 500 129 500 129 498.5 131 c 128,-1,15
 497 133 497 133 493 133 c 128,-1,16
 489 133 489 133 471 114.5 c 128,-1,17
 453 96 453 96 427.5 78 c 128,-1,18
 402 60 402 60 378 60 c 0,19,20
 343 60 343 60 339 92.5 c 128,-1,21
 335 125 335 125 359 196 c 0,22,23
 367 219 367 219 373.5 245.5 c 128,-1,24
 380 272 380 272 383 286 c 2,25,-1
 386 301 l 2,26,27
 386 310 386 310 386 313 c 128,-1,28
 386 316 386 316 384 321.5 c 128,-1,29
 382 327 382 327 377.5 328.5 c 128,-1,30
 373 330 373 330 365 330 c 0,31,32
 354 330 354 330 345 323 c 128,-1,33
 336 316 336 316 329 301.5 c 128,-1,34
 322 287 322 287 317 273 c 128,-1,35
 312 259 312 259 305 237 c 128,-1,36
 298 215 298 215 293 201 c 0,37,38
 270 141 270 141 242 108 c 128,-1,39
 214 75 214 75 190.5 67 c 128,-1,40
 167 59 167 59 134 59 c 0,41,42
 83 59 83 59 72.5 93.5 c 128,-1,43
 62 128 62 128 82 184 c 0,44,45
 116 299 116 299 116 325 c 0,46,47
 116 334 116 334 112 335 c 0,48,49
 108 337 108 337 98 337 c 0,50,51
 82 337 82 337 68 323 c 128,-1,52
 54 309 54 309 42.5 279 c 128,-1,53
 31 249 31 249 24.5 225 c 128,-1,54
 18 201 18 201 7 158 c 0,0,1
EndSplineSet
EndChar

StartChar: v
Encoding: 118 118 91
Width: 639
Flags: W
LayerCount: 2
Fore
SplineSet
556 113 m 0,0,1
 591 113 591 113 611.5 117 c 128,-1,2
 632 121 632 121 637 126 c 128,-1,3
 642 131 642 131 647 135 c 128,-1,4
 652 139 652 139 659 139 c 0,5,6
 671 139 671 139 671 131 c 0,7,8
 671 107 671 107 639 80.5 c 128,-1,9
 607 54 607 54 563 54 c 0,10,11
 514 54 514 54 486.5 81 c 128,-1,12
 459 108 459 108 435 159 c 1,13,14
 397 0 397 0 239 0 c 0,15,16
 208 0 208 0 188 7.5 c 128,-1,17
 168 15 168 15 159 25.5 c 128,-1,18
 150 36 150 36 149 55 c 128,-1,19
 148 74 148 74 150 87 c 128,-1,20
 152 100 152 100 158 124 c 0,21,22
 178 210 178 210 177 228 c 0,23,24
 176 251 176 251 159 251 c 0,25,26
 123 251 123 251 81 191 c 0,27,28
 62 164 62 164 55.5 155 c 128,-1,29
 49 146 49 146 35.5 128.5 c 128,-1,30
 22 111 22 111 13.5 105 c 128,-1,31
 5 99 5 99 -2 99 c 0,32,33
 -10 99 -10 99 -10 108 c 0,34,35
 -10 109 -10 109 -10 110 c 0,36,37
 -10 117 -10 117 -4 128.5 c 128,-1,38
 2 140 2 140 19.5 169 c 128,-1,39
 37 198 37 198 48 218 c 0,40,41
 96 303 96 303 161 310 c 0,42,43
 192 313 192 313 210 300 c 128,-1,44
 228 287 228 287 231 260.5 c 128,-1,45
 234 234 234 234 231.5 207 c 128,-1,46
 229 180 229 180 220 145 c 0,47,48
 206 90 206 90 212 70.5 c 128,-1,49
 218 51 218 51 252 51 c 0,50,51
 308 51 308 51 336 80 c 128,-1,52
 364 109 364 109 377 157 c 0,53,54
 378 159 378 159 383 193.5 c 128,-1,55
 388 228 388 228 396.5 248.5 c 128,-1,56
 405 269 405 269 420 269 c 0,57,58
 437 269 437 269 448 254.5 c 128,-1,59
 459 240 459 240 481 190 c 0,60,61
 494 161 494 161 500 149 c 128,-1,62
 506 137 506 137 521 125 c 128,-1,63
 536 113 536 113 556 113 c 0,0,1
EndSplineSet
EndChar

StartChar: w
Encoding: 119 119 92
Width: 841
Flags: W
LayerCount: 2
Fore
SplineSet
536 136 m 0,0,1
 497 64 497 64 462 64 c 0,2,3
 450 64 450 64 440.5 65.5 c 128,-1,4
 431 67 431 67 425 71.5 c 128,-1,5
 419 76 419 76 415 79 c 128,-1,6
 411 82 411 82 410 90 c 128,-1,7
 409 98 409 98 408.5 102 c 128,-1,8
 408 106 408 106 410.5 117 c 128,-1,9
 413 128 413 128 413.5 131.5 c 128,-1,10
 414 135 414 135 418 148 c 128,-1,11
 422 161 422 161 423 163 c 0,12,13
 431 188 431 188 437 208 c 128,-1,14
 443 228 443 228 447 241 c 128,-1,15
 451 254 451 254 457 276 c 0,16,17
 462 297 462 297 457 302 c 128,-1,18
 452 307 452 307 436 307 c 0,19,20
 423 307 423 307 413.5 300.5 c 128,-1,21
 404 294 404 294 396.5 278.5 c 128,-1,22
 389 263 389 263 383.5 247.5 c 128,-1,23
 378 232 378 232 369 204.5 c 128,-1,24
 360 177 360 177 352 156 c 0,25,26
 333 108 333 108 309.5 80.5 c 128,-1,27
 286 53 286 53 246 53 c 0,28,29
 213 53 213 53 209 71.5 c 128,-1,30
 205 90 205 90 220 145 c 0,31,32
 228 179 228 179 230.5 208 c 128,-1,33
 233 237 233 237 229 263 c 128,-1,34
 225 289 225 289 206.5 301 c 128,-1,35
 188 313 188 313 156 305 c 0,36,37
 92 289 92 289 45 211 c 0,38,39
 -3 131 -3 131 -5 127 c 0,40,41
 -10 116 -10 116 -10 110 c 0,42,43
 -10 105 -10 105 -10 104 c 128,-1,44
 -10 103 -10 103 -8 101 c 128,-1,45
 -6 99 -6 99 -2 99 c 0,46,47
 17 99 17 99 67 172 c 0,48,49
 80 190 80 190 109.5 217 c 128,-1,50
 139 244 139 244 154 244 c 0,51,52
 168 244 168 244 174 238 c 128,-1,53
 180 232 180 232 179.5 218 c 128,-1,54
 179 204 179 204 176.5 192.5 c 128,-1,55
 174 181 174 181 167.5 158.5 c 128,-1,56
 161 136 161 136 158 124 c 0,57,58
 152 100 152 100 150 87 c 128,-1,59
 148 74 148 74 149 55 c 128,-1,60
 150 36 150 36 159 25.5 c 128,-1,61
 168 15 168 15 188 7.5 c 128,-1,62
 208 0 208 0 239 0 c 0,63,64
 323 0 323 0 356 48 c 0,65,66
 357 48 357 48 356 43 c 128,-1,67
 355 38 355 38 357.5 31 c 128,-1,68
 360 24 360 24 364 17 c 128,-1,69
 368 10 368 10 379.5 5 c 128,-1,70
 391 0 391 0 408 0 c 0,71,72
 481 0 481 0 507.5 9 c 128,-1,73
 534 18 534 18 565 59 c 0,74,75
 576 74 576 74 593 109 c 128,-1,76
 610 144 610 144 618 174 c 1,77,78
 625 163 625 163 636 140.5 c 128,-1,79
 647 118 647 118 655 106.5 c 128,-1,80
 663 95 663 95 676.5 81 c 128,-1,81
 690 67 690 67 709 60.5 c 128,-1,82
 728 54 728 54 754 54 c 0,83,84
 798 54 798 54 830 81.5 c 128,-1,85
 862 109 862 109 862 133 c 0,86,87
 862 141 862 141 850 141 c 0,88,89
 843 141 843 141 838 136.5 c 128,-1,90
 833 132 833 132 828 127 c 128,-1,91
 823 122 823 122 802.5 117.5 c 128,-1,92
 782 113 782 113 747 113 c 0,93,94
 737 113 737 113 728 116.5 c 128,-1,95
 719 120 719 120 713.5 123.5 c 128,-1,96
 708 127 708 127 701.5 136.5 c 128,-1,97
 695 146 695 146 692 151 c 128,-1,98
 689 156 689 156 682.5 170.5 c 128,-1,99
 676 185 676 185 673 190 c 0,100,101
 640 254 640 254 631 262 c 0,102,103
 623 269 623 269 611 269 c 0,104,105
 596 269 596 269 585 249.5 c 128,-1,106
 574 230 574 230 560 192.5 c 128,-1,107
 546 155 546 155 536 136 c 0,0,1
EndSplineSet
EndChar

StartChar: x
Encoding: 120 120 93
Width: 478
Flags: W
LayerCount: 2
Fore
SplineSet
369 0 m 0,0,1
 416 0 416 0 461 44 c 128,-1,2
 506 88 506 88 506 116 c 0,3,4
 506 117 506 117 506.5 121 c 128,-1,5
 507 125 507 125 507 127 c 128,-1,6
 507 129 507 129 505.5 131 c 128,-1,7
 504 133 504 133 500 133 c 128,-1,8
 496 133 496 133 479.5 114.5 c 128,-1,9
 463 96 463 96 436 78 c 128,-1,10
 409 60 409 60 378 60 c 0,11,12
 362 60 362 60 351 72 c 128,-1,13
 340 84 340 84 336 102 c 128,-1,14
 332 120 332 120 330.5 131 c 128,-1,15
 329 142 329 142 329 148 c 0,16,17
 329 181 329 181 345 216 c 128,-1,18
 361 251 361 251 395 251 c 0,19,20
 409 251 409 251 420 237 c 128,-1,21
 431 223 431 223 438 223 c 0,22,23
 451 222 451 222 459.5 235.5 c 128,-1,24
 468 249 468 249 468 264 c 0,25,26
 468 291 468 291 437.5 307.5 c 128,-1,27
 407 324 407 324 377 324 c 0,28,29
 356 324 356 324 339.5 314 c 128,-1,30
 323 304 323 304 314 292.5 c 128,-1,31
 305 281 305 281 297 258 c 128,-1,32
 289 235 289 235 287 224.5 c 128,-1,33
 285 214 285 214 280 190 c 1,34,35
 280 194 280 194 279.5 208 c 128,-1,36
 279 222 279 222 278.5 229.5 c 128,-1,37
 278 237 278 237 275 251 c 128,-1,38
 272 265 272 265 268 273 c 128,-1,39
 264 281 264 281 256.5 291.5 c 128,-1,40
 249 302 249 302 238.5 308 c 128,-1,41
 228 314 228 314 211.5 318 c 128,-1,42
 195 322 195 322 175 322 c 0,43,44
 135 322 135 322 93.5 294.5 c 128,-1,45
 52 267 52 267 38 223 c 0,46,47
 30 196 30 196 17.5 170.5 c 128,-1,48
 5 145 5 145 -2.5 131 c 128,-1,49
 -10 117 -10 117 -10 110 c 0,50,51
 -10 105 -10 105 -10 104 c 128,-1,52
 -10 103 -10 103 -8 101 c 128,-1,53
 -6 99 -6 99 -2 99 c 0,54,55
 19 99 19 99 42.5 131.5 c 128,-1,56
 66 164 66 164 83 209 c 0,57,58
 92 232 92 232 121 247 c 128,-1,59
 150 262 150 262 174 262 c 0,60,61
 206 262 206 262 218 224.5 c 128,-1,62
 230 187 230 187 221.5 143.5 c 128,-1,63
 213 100 213 100 194 83 c 0,64,65
 169 60 169 60 148 60 c 0,66,67
 133 60 133 60 127.5 68 c 128,-1,68
 122 76 122 76 122.5 86 c 128,-1,69
 123 96 123 96 116.5 104 c 128,-1,70
 110 112 110 112 93 112 c 0,71,72
 69 112 69 112 69 67 c 0,73,74
 69 43 69 43 86 21.5 c 128,-1,75
 103 0 103 0 137 0 c 0,76,77
 159 0 159 0 183.5 7.5 c 128,-1,78
 208 15 208 15 235.5 42 c 128,-1,79
 263 69 263 69 273 111 c 1,80,81
 284 0 284 0 369 0 c 0,0,1
EndSplineSet
EndChar

StartChar: y
Encoding: 121 121 94
Width: 503
Flags: W
LayerCount: 2
Fore
SplineSet
0 138 m 128,-1,1
 0 69 0 69 16.5 34.5 c 128,-1,2
 33 0 33 0 83 0 c 0,3,4
 171 0 171 0 244 83 c 1,5,6
 240 78 240 78 214.5 46 c 128,-1,7
 189 14 189 14 168 -13.5 c 128,-1,8
 147 -41 147 -41 128.5 -73 c 128,-1,9
 110 -105 110 -105 110 -121 c 0,10,11
 110 -200 110 -200 217 -200 c 0,12,13
 255 -200 255 -200 278.5 -183.5 c 128,-1,14
 302 -167 302 -167 310 -143.5 c 128,-1,15
 318 -120 318 -120 318 -86.5 c 128,-1,16
 318 -53 318 -53 313 -27 c 128,-1,17
 308 -1 308 -1 301 30 c 128,-1,18
 294 61 294 61 293 70 c 1,19,20
 305 83 305 83 311 83 c 0,21,22
 332 83 332 83 341 70 c 128,-1,23
 350 57 350 57 351.5 41.5 c 128,-1,24
 353 26 353 26 369.5 13 c 128,-1,25
 386 0 386 0 421 0 c 0,26,27
 449 0 449 0 488 50 c 128,-1,28
 527 100 527 100 527 117 c 0,29,30
 527 125 527 125 515 125 c 0,31,32
 510 125 510 125 474.5 86.5 c 128,-1,33
 439 48 439 48 421 48 c 128,-1,34
 403 48 403 48 394.5 62.5 c 128,-1,35
 386 77 386 77 384 94 c 128,-1,36
 382 111 382 111 367 126 c 128,-1,37
 352 141 352 141 323 141 c 0,38,39
 316 141 316 141 307.5 137.5 c 128,-1,40
 299 134 299 134 297 132.5 c 128,-1,41
 295 131 295 131 293 136 c 0,42,43
 292 141 292 141 288 196.5 c 128,-1,44
 284 252 284 252 281 268 c 0,45,46
 279 276 279 276 277 289.5 c 128,-1,47
 275 303 275 303 274 308 c 128,-1,48
 273 313 273 313 269.5 320 c 128,-1,49
 266 327 266 327 260.5 329.5 c 128,-1,50
 255 332 255 332 246 332 c 0,51,52
 220 332 220 332 220.5 298.5 c 128,-1,53
 221 265 221 265 231 221 c 128,-1,54
 241 177 241 177 237 164 c 0,55,56
 220 114 220 114 184.5 85.5 c 128,-1,57
 149 57 149 57 101 57 c 0,58,59
 81 57 81 57 66.5 74.5 c 128,-1,60
 52 92 52 92 52 121 c 0,61,62
 51 174 51 174 66 213.5 c 128,-1,63
 81 253 81 253 96.5 275.5 c 128,-1,64
 112 298 112 298 112 310 c 0,65,66
 112 315 112 315 111.5 318.5 c 128,-1,67
 111 322 111 322 110.5 324.5 c 128,-1,68
 110 327 110 327 108.5 328.5 c 128,-1,69
 107 330 107 330 106 330.5 c 128,-1,70
 105 331 105 331 101.5 331.5 c 128,-1,71
 98 332 98 332 96.5 332 c 128,-1,72
 95 332 95 332 89.5 332 c 128,-1,73
 84 332 84 332 82 332 c 0,74,75
 55 332 55 332 27.5 269.5 c 128,-1,0
 0 207 0 207 0 138 c 128,-1,1
252 26 m 1,76,77
 254 14 254 14 260.5 -15 c 128,-1,78
 267 -44 267 -44 269.5 -62 c 128,-1,79
 272 -80 272 -80 270.5 -101.5 c 128,-1,80
 269 -123 269 -123 255.5 -134 c 128,-1,81
 242 -145 242 -145 217 -145 c 0,82,83
 170 -145 170 -145 170 -114 c 0,84,85
 170 -102 170 -102 173.5 -90.5 c 128,-1,86
 177 -79 177 -79 185.5 -65 c 128,-1,87
 194 -51 194 -51 201.5 -41 c 128,-1,88
 209 -31 209 -31 225 -10 c 128,-1,89
 241 11 241 11 252 26 c 1,76,77
EndSplineSet
EndChar

StartChar: z
Encoding: 122 122 95
Width: 479
Flags: W
LayerCount: 2
Fore
SplineSet
506 116 m 0,0,1
 506 117 506 117 506.5 121 c 128,-1,2
 507 125 507 125 507 127 c 128,-1,3
 507 129 507 129 505.5 131 c 128,-1,4
 504 133 504 133 500 133 c 128,-1,5
 496 133 496 133 484 121 c 128,-1,6
 472 109 472 109 456.5 94 c 128,-1,7
 441 79 441 79 409 67 c 128,-1,8
 377 55 377 55 338 55 c 0,9,10
 184 55 184 55 164 53 c 1,11,12
 216 72 216 72 302 135 c 0,13,14
 317 146 317 146 351 173 c 128,-1,15
 385 200 385 200 410.5 218.5 c 128,-1,16
 436 237 436 237 448 243 c 0,17,18
 473 255 473 255 473 288 c 0,19,20
 473 313 473 313 437.5 317.5 c 128,-1,21
 402 322 402 322 258 322 c 0,22,23
 176 322 176 322 136.5 321 c 128,-1,24
 97 320 97 320 75.5 314.5 c 128,-1,25
 54 309 54 309 52 303.5 c 128,-1,26
 50 298 50 298 50 283 c 0,27,28
 50 277 50 277 50 274 c 0,29,30
 50 263 50 263 56.5 258 c 128,-1,31
 63 253 63 253 80 252.5 c 128,-1,32
 97 252 97 252 116 254 c 128,-1,33
 135 256 135 256 172 258.5 c 128,-1,34
 209 261 209 261 245 261 c 0,35,36
 351 261 351 261 394 271 c 1,37,38
 368 256 368 256 338 235.5 c 128,-1,39
 308 215 308 215 268 186 c 128,-1,40
 228 157 228 157 214 147 c 0,41,42
 105 70 105 70 70 62 c 0,43,44
 50 57 50 57 50 30 c 0,45,46
 50 8 50 8 83 4 c 128,-1,47
 116 0 116 0 252 0 c 0,48,49
 361 0 361 0 410 23 c 0,50,51
 440 37 440 37 473 66 c 128,-1,52
 506 95 506 95 506 116 c 0,0,1
EndSplineSet
EndChar

StartChar: braceleft
Encoding: 123 123 96
Width: 246
Flags: W
LayerCount: 2
Fore
SplineSet
40 284 m 0,0,1
 40 121 40 121 111 38 c 0,2,3
 148 -4 148 -4 177 2 c 0,4,5
 194 6 194 6 194 29 c 0,6,7
 194 49 194 49 184.5 62.5 c 128,-1,8
 175 76 175 76 161.5 88 c 128,-1,9
 148 100 148 100 134.5 117.5 c 128,-1,10
 121 135 121 135 111.5 173 c 128,-1,11
 102 211 102 211 102 266 c 0,12,13
 102 342 102 342 113.5 395 c 128,-1,14
 125 448 125 448 141.5 472 c 128,-1,15
 158 496 158 496 174 510.5 c 128,-1,16
 190 525 190 525 201.5 536.5 c 128,-1,17
 213 548 213 548 213 564 c 0,18,19
 213 591 213 591 185 587 c 0,20,21
 145 582 145 582 104 525 c 0,22,23
 40 434 40 434 40 284 c 0,0,1
EndSplineSet
EndChar

StartChar: bar
Encoding: 124 124 97
Width: 165
Flags: W
LayerCount: 2
Fore
SplineSet
130 147 m 0,0,1
 137 65 137 65 133 35.5 c 128,-1,2
 129 6 129 6 101 3 c 0,3,4
 78 3 78 3 68 10 c 128,-1,5
 58 17 58 17 53 48 c 0,6,7
 41 116 41 116 37 238 c 0,8,9
 35 295 35 295 35 480 c 0,10,11
 35 524 35 524 44.5 558.5 c 128,-1,12
 54 593 54 593 76 594 c 0,13,14
 93 595 93 595 105 589 c 128,-1,15
 117 583 117 583 117 574 c 0,16,17
 117 552 117 552 116.5 482 c 128,-1,18
 116 412 116 412 116 385 c 0,19,20
 116 352 116 352 122.5 259 c 128,-1,21
 129 166 129 166 130 147 c 0,0,1
EndSplineSet
EndChar

StartChar: braceright
Encoding: 125 125 98
Width: 282
Flags: W
LayerCount: 2
Fore
SplineSet
185 263 m 0,0,1
 185 209 185 209 169.5 170.5 c 128,-1,2
 154 132 154 132 132.5 112 c 128,-1,3
 111 92 111 92 89 77.5 c 128,-1,4
 67 63 67 63 51.5 47 c 128,-1,5
 36 31 36 31 36 11 c 0,6,7
 36 -7 36 -7 72 2 c 0,8,9
 130 18 130 18 179 80 c 0,10,11
 242 158 242 158 242 271 c 0,12,13
 242 476 242 476 146 558 c 0,14,15
 98 599 98 599 56 591 c 0,16,17
 35 587 35 587 35 571 c 0,18,19
 35 558 35 558 46 548.5 c 128,-1,20
 57 539 57 539 74 533 c 128,-1,21
 91 527 91 527 110 509.5 c 128,-1,22
 129 492 129 492 146 466.5 c 128,-1,23
 163 441 163 441 174 388.5 c 128,-1,24
 185 336 185 336 185 263 c 0,0,1
EndSplineSet
EndChar

StartChar: asciitilde
Encoding: 126 126 99
Width: 398
Flags: W
LayerCount: 2
Fore
SplineSet
298 212 m 0,0,1
 272 199 272 199 249.5 197.5 c 128,-1,2
 227 196 227 196 217 206 c 0,3,4
 187 229 187 229 152 218.5 c 128,-1,5
 117 208 117 208 101 185 c 0,6,7
 74 145 74 145 95 147 c 0,8,9
 102 147 102 147 113 153 c 0,10,11
 132 163 132 163 141.5 167 c 128,-1,12
 151 171 151 171 168 170.5 c 128,-1,13
 185 170 185 170 201 159 c 0,14,15
 218 146 218 146 247.5 147 c 128,-1,16
 277 148 277 148 292 163 c 0,17,18
 321 192 321 192 321 210 c 0,19,20
 321 223 321 223 298 212 c 0,0,1
EndSplineSet
EndChar

StartChar: yen
Encoding: 165 165 100
Width: 590
Flags: W
LayerCount: 2
Fore
SplineSet
303 182 m 0,0,1
 430 182 430 182 444 178 c 0,2,3
 462 173 462 173 462 154 c 0,4,5
 462 140 462 140 434 135.5 c 128,-1,6
 406 131 406 131 322 131 c 0,7,8
 302 131 302 131 269 131 c 0,9,10
 195 130 195 130 176 133 c 128,-1,11
 157 136 157 136 157 150 c 0,12,13
 157 158 157 158 158 163 c 128,-1,14
 159 168 159 168 162.5 172 c 128,-1,15
 166 176 166 176 169.5 178.5 c 128,-1,16
 173 181 173 181 180.5 182 c 128,-1,17
 188 183 188 183 195 183.5 c 128,-1,18
 202 184 202 184 214.5 184 c 128,-1,19
 227 184 227 184 238.5 183.5 c 128,-1,20
 250 183 250 183 268 182.5 c 128,-1,21
 286 182 286 182 303 182 c 0,0,1
301 290 m 0,22,23
 361 290 361 290 390 289 c 128,-1,24
 419 288 419 288 437.5 283.5 c 128,-1,25
 456 279 456 279 459.5 273 c 128,-1,26
 463 267 463 267 463 254 c 0,27,28
 463 242 463 242 451 240.5 c 128,-1,29
 439 239 439 239 380 239 c 0,30,31
 343 239 343 239 320 239 c 0,32,33
 310 239 310 239 291 239 c 0,34,35
 206 239 206 239 181.5 242 c 128,-1,36
 157 245 157 245 157 260 c 0,37,38
 157 284 157 284 169.5 289 c 128,-1,39
 182 294 182 294 229 292 c 0,40,41
 272 290 272 290 301 290 c 0,22,23
273 292 m 1,42,43
 249 323 249 323 175 478 c 0,44,45
 165 499 165 499 149 531 c 0,46,47
 122 584 122 584 126 593 c 0,48,49
 129 602 129 602 159 602 c 0,50,51
 172 602 172 602 178.5 602 c 128,-1,52
 185 602 185 602 192.5 599 c 128,-1,53
 200 596 200 596 202.5 594 c 128,-1,54
 205 592 205 592 210.5 583.5 c 128,-1,55
 216 575 216 575 218.5 569 c 128,-1,56
 221 563 221 563 228.5 546 c 128,-1,57
 236 529 236 529 242 516 c 0,58,59
 279 437 279 437 313 382 c 1,60,61
 325 408 325 408 391 514 c 0,62,63
 393 517 393 517 396 522 c 0,64,65
 426 570 426 570 439 585 c 128,-1,66
 452 600 452 600 469 600 c 0,67,68
 518 600 518 600 518.5 586 c 128,-1,69
 519 572 519 572 473 495 c 0,70,71
 469 488 469 488 466.5 484 c 128,-1,72
 464 480 464 480 460 473 c 128,-1,73
 456 466 456 466 453 460 c 0,74,75
 389 348 389 348 354 293 c 1,76,77
 354 166 354 166 355 147 c 0,78,79
 356 131 356 131 357 113.5 c 128,-1,80
 358 96 358 96 359 85 c 128,-1,81
 360 74 360 74 361 62 c 128,-1,82
 362 50 362 50 362 43 c 128,-1,83
 362 36 362 36 361.5 29 c 128,-1,84
 361 22 361 22 359.5 18 c 128,-1,85
 358 14 358 14 354.5 10.5 c 128,-1,86
 351 7 351 7 346.5 5.5 c 128,-1,87
 342 4 342 4 335 3 c 0,88,89
 317 3 317 3 308 4.5 c 128,-1,90
 299 6 299 6 289.5 16.5 c 128,-1,91
 280 27 280 27 278 48 c 0,92,93
 276 72 276 72 275.5 85 c 128,-1,94
 275 98 275 98 275 105 c 128,-1,95
 275 112 275 112 274.5 135 c 128,-1,96
 274 158 274 158 273 192 c 2,97,-1
 273 292 l 1,42,43
EndSplineSet
EndChar

StartChar: brokenbar
Encoding: 166 166 101
Width: 165
Flags: W
LayerCount: 2
Fore
SplineSet
130 147 m 0,0,1
 137 65 137 65 133 35.5 c 128,-1,2
 129 6 129 6 101 3 c 0,3,4
 78 3 78 3 68 10 c 128,-1,5
 58 17 58 17 53 48 c 0,6,7
 41 116 41 116 37 238 c 0,8,9
 35 295 35 295 35 480 c 0,10,11
 35 524 35 524 44.5 558.5 c 128,-1,12
 54 593 54 593 76 594 c 0,13,14
 93 595 93 595 105 589 c 128,-1,15
 117 583 117 583 117 574 c 0,16,17
 117 552 117 552 116.5 482 c 128,-1,18
 116 412 116 412 116 385 c 0,19,20
 116 352 116 352 122.5 259 c 128,-1,21
 129 166 129 166 130 147 c 0,0,1
EndSplineSet
EndChar

StartChar: section
Encoding: 167 167 102
Width: 374
Flags: W
LayerCount: 2
Fore
SplineSet
210 598 m 0,0,1
 289 598 289 598 331 566.5 c 128,-1,2
 373 535 373 535 373 492 c 0,3,4
 373 473 373 473 372.5 465.5 c 128,-1,5
 372 458 372 458 365.5 449 c 128,-1,6
 359 440 359 440 345 440 c 0,7,8
 308 440 308 440 308 468 c 0,9,10
 308 537 308 537 207 537 c 0,11,12
 150 537 150 537 125.5 505.5 c 128,-1,13
 101 474 101 474 101 435 c 0,14,15
 101 414 101 414 106 398 c 128,-1,16
 111 382 111 382 117 372.5 c 128,-1,17
 123 363 123 363 137 354.5 c 128,-1,18
 151 346 151 346 160 342 c 128,-1,19
 169 338 169 338 190.5 330.5 c 128,-1,20
 212 323 212 323 223 319 c 0,21,22
 233 315 233 315 259 306 c 128,-1,23
 285 297 285 297 299 291.5 c 128,-1,24
 313 286 313 286 334.5 272.5 c 128,-1,25
 356 259 356 259 367 243.5 c 128,-1,26
 378 228 378 228 387 202.5 c 128,-1,27
 396 177 396 177 396 144 c 0,28,29
 396 79 396 79 344 39.5 c 128,-1,30
 292 0 292 0 180 0 c 0,31,32
 110 0 110 0 69 39 c 128,-1,33
 28 78 28 78 28 115 c 0,34,35
 28 135 28 135 33.5 146 c 128,-1,36
 39 157 39 157 45.5 159 c 128,-1,37
 52 161 52 161 64 161 c 2,38,-1
 70 161 l 2,39,40
 76 161 76 161 77.5 161 c 128,-1,41
 79 161 79 161 83.5 160 c 128,-1,42
 88 159 88 159 89.5 157.5 c 128,-1,43
 91 156 91 156 92.5 152.5 c 128,-1,44
 94 149 94 149 94 144 c 0,45,46
 94 123 94 123 122 93.5 c 128,-1,47
 150 64 150 64 183 64 c 0,48,49
 237 64 237 64 287 86.5 c 128,-1,50
 337 109 337 109 337 149 c 0,51,52
 337 172 337 172 328 188 c 128,-1,53
 319 204 319 204 301 215 c 128,-1,54
 283 226 283 226 265.5 232.5 c 128,-1,55
 248 239 248 239 219.5 248 c 128,-1,56
 191 257 191 257 174 264 c 0,57,58
 102 294 102 294 76 316 c 0,59,60
 31 355 31 355 31 418 c 0,61,62
 31 493 31 493 74 545.5 c 128,-1,63
 117 598 117 598 210 598 c 0,0,1
EndSplineSet
EndChar

StartChar: dieresis
Encoding: 168 168 103
Width: 338
Flags: W
LayerCount: 2
Fore
SplineSet
197 444 m 0,0,1
 197 401 197 401 249 401 c 0,2,3
 264 401 264 401 277 412 c 128,-1,4
 290 423 290 423 291 443 c 0,5,6
 292 466 292 466 282.5 481 c 128,-1,7
 273 496 273 496 254 496 c 0,8,9
 237 496 237 496 217 482 c 128,-1,10
 197 468 197 468 197 444 c 0,0,1
51 456 m 0,11,12
 44 431 44 431 56 413 c 128,-1,13
 68 395 68 395 86 395 c 0,14,15
 125 395 125 395 140 466 c 0,16,17
 149 508 149 508 108 508 c 0,18,19
 94 508 94 508 76 494 c 128,-1,20
 58 480 58 480 51 456 c 0,11,12
EndSplineSet
EndChar

StartChar: copyright
Encoding: 169 169 104
Width: 670
Flags: W
LayerCount: 2
Fore
SplineSet
346 460 m 0,0,1
 260 460 260 460 208 407.5 c 128,-1,2
 156 355 156 355 156 273 c 0,3,4
 156 187 156 187 202 156 c 128,-1,5
 248 125 248 125 336 125 c 0,6,7
 379 125 379 125 433.5 161.5 c 128,-1,8
 488 198 488 198 488 224 c 0,9,10
 488 230 488 230 489 235 c 0,11,12
 489 236 489 236 488 235 c 0,13,14
 484 234 484 234 479 234 c 0,15,16
 472 234 472 234 455.5 222 c 128,-1,17
 439 210 439 210 407.5 198 c 128,-1,18
 376 186 376 186 331 186 c 0,19,20
 275 186 275 186 243 205.5 c 128,-1,21
 211 225 211 225 211 276 c 0,22,23
 211 326 211 326 249.5 365.5 c 128,-1,24
 288 405 288 405 349 405 c 0,25,26
 387 405 387 405 427 387 c 0,27,28
 457 375 457 375 463.5 378 c 128,-1,29
 470 381 470 381 470 402 c 0,30,31
 470 426 470 426 426.5 443 c 128,-1,32
 383 460 383 460 346 460 c 0,0,1
362 537 m 0,33,34
 477 537 477 537 528.5 465 c 128,-1,35
 580 393 580 393 580 277 c 0,36,37
 580 223 580 223 553 179.5 c 128,-1,38
 526 136 526 136 485 111.5 c 128,-1,39
 444 87 444 87 402.5 74.5 c 128,-1,40
 361 62 361 62 326 62 c 0,41,42
 207 62 207 62 144.5 113 c 128,-1,43
 82 164 82 164 88 262 c 0,44,45
 90 288 90 288 94 314 c 128,-1,46
 98 340 98 340 115.5 383 c 128,-1,47
 133 426 133 426 160 457.5 c 128,-1,48
 187 489 187 489 239.5 513 c 128,-1,49
 292 537 292 537 362 537 c 0,33,34
356 604 m 0,50,51
 284 604 284 604 224 576.5 c 128,-1,52
 164 549 164 549 128 509.5 c 128,-1,53
 92 470 92 470 67.5 422.5 c 128,-1,54
 43 375 43 375 33.5 338 c 128,-1,55
 24 301 24 301 24 276 c 0,56,57
 24 128 24 128 98 64 c 128,-1,58
 172 0 172 0 326 0 c 0,59,60
 446 0 446 0 542.5 81 c 128,-1,61
 639 162 639 162 639 285 c 0,62,63
 639 604 639 604 356 604 c 0,50,51
EndSplineSet
EndChar

StartChar: ordfeminine
Encoding: 170 170 105
Width: 425
Flags: W
LayerCount: 2
Fore
SplineSet
196 288 m 0,0,1
 142 288 142 288 97 244 c 128,-1,2
 52 200 52 200 52 151 c 0,3,4
 52 103 52 103 81.5 79 c 128,-1,5
 111 55 111 55 159 55 c 0,6,7
 234 55 234 55 253 160 c 0,8,9
 267 236 267 236 271 283 c 1,10,11
 258 277 258 277 250 278 c 128,-1,12
 242 279 242 279 224.5 283.5 c 128,-1,13
 207 288 207 288 196 288 c 0,0,1
394 98 m 0,14,15
 400 104 400 104 410 115.5 c 128,-1,16
 420 127 420 127 427.5 133 c 128,-1,17
 435 139 435 139 443 139 c 0,18,19
 460 139 460 139 460 137 c 2,20,21
 460 137 460 137 459 135 c 0,22,23
 457 132 457 132 457 129 c 0,24,25
 457 106 457 106 421 66 c 0,26,27
 363 0 363 0 290 0 c 0,28,29
 269 0 269 0 250 28 c 1,30,31
 243 21 243 21 235.5 16 c 128,-1,32
 228 11 228 11 219 8 c 128,-1,33
 210 5 210 5 204.5 3.5 c 128,-1,34
 199 2 199 2 189 1 c 128,-1,35
 179 0 179 0 176 0 c 128,-1,36
 173 0 173 0 162 0 c 2,37,-1
 152 0 l 2,38,39
 78 0 78 0 39 37 c 128,-1,40
 0 74 0 74 0 144 c 0,41,42
 0 227 0 227 58 283.5 c 128,-1,43
 116 340 116 340 195 340 c 0,44,45
 219 340 219 340 231.5 339 c 128,-1,46
 244 338 244 338 257 331.5 c 128,-1,47
 270 325 270 325 275 313 c 1,48,49
 282 328 282 328 308 328 c 0,50,51
 336 328 336 328 325 255 c 0,52,53
 321 231 321 231 316 199.5 c 128,-1,54
 311 168 311 168 306 141 c 128,-1,55
 301 114 301 114 300 106 c 0,56,57
 293 60 293 60 317 60 c 0,58,59
 333 60 333 60 355 71 c 128,-1,60
 377 82 377 82 394 98 c 0,14,15
EndSplineSet
EndChar

StartChar: guillemotleft
Encoding: 171 171 106
Width: 371
Flags: W
LayerCount: 2
Fore
SplineSet
258 506 m 0,0,1
 234 506 234 506 223 541.5 c 128,-1,2
 212 577 212 577 212 626 c 0,3,4
 212 649 212 649 224 670.5 c 128,-1,5
 236 692 236 692 258 692 c 0,6,7
 274 692 274 692 283.5 684.5 c 128,-1,8
 293 677 293 677 297 661.5 c 128,-1,9
 301 646 301 646 301.5 636 c 128,-1,10
 302 626 302 626 302 608 c 0,11,12
 302 602 302 602 302 600 c 0,13,14
 302 506 302 506 258 506 c 0,0,1
116 498 m 0,15,16
 93 498 93 498 78.5 551.5 c 128,-1,17
 64 605 64 605 64 638 c 0,18,19
 64 639 64 639 64 646 c 128,-1,20
 64 653 64 653 64 655 c 128,-1,21
 64 657 64 657 64.5 663.5 c 128,-1,22
 65 670 65 670 66 672.5 c 128,-1,23
 67 675 67 675 68.5 680.5 c 128,-1,24
 70 686 70 686 72 688.5 c 128,-1,25
 74 691 74 691 77.5 694.5 c 128,-1,26
 81 698 81 698 85.5 699.5 c 128,-1,27
 90 701 90 701 96.5 702.5 c 128,-1,28
 103 704 103 704 110 704 c 0,29,30
 154 704 154 704 154 604 c 0,31,32
 154 601 154 601 154 596 c 0,33,34
 154 576 154 576 153.5 564 c 128,-1,35
 153 552 153 552 150 534 c 128,-1,36
 147 516 147 516 138.5 507 c 128,-1,37
 130 498 130 498 116 498 c 0,15,16
EndSplineSet
EndChar

StartChar: logicalnot
Encoding: 172 172 107
Width: 424
Flags: W
LayerCount: 2
Fore
SplineSet
201 198 m 0,0,1
 188 198 188 198 166.5 199 c 128,-1,2
 145 200 145 200 135 200 c 128,-1,3
 125 200 125 200 113 197.5 c 128,-1,4
 101 195 101 195 96 187.5 c 128,-1,5
 91 180 91 180 91 167 c 0,6,7
 91 153 91 153 115 150 c 128,-1,8
 139 147 139 147 197 147 c 0,9,10
 212 147 212 147 220 147 c 0,11,12
 230 147 230 147 247 147 c 0,13,14
 272 147 272 147 283 147 c 128,-1,15
 294 147 294 147 306.5 148.5 c 128,-1,16
 319 150 319 150 323.5 153.5 c 128,-1,17
 328 157 328 157 328 163 c 0,18,19
 328 187 328 187 308 192.5 c 128,-1,20
 288 198 288 198 201 198 c 0,0,1
EndSplineSet
EndChar

StartChar: uni00AD
Encoding: 173 173 108
Width: 424
Flags: W
LayerCount: 2
Fore
SplineSet
201 198 m 0,0,1
 188 198 188 198 166.5 199 c 128,-1,2
 145 200 145 200 135 200 c 128,-1,3
 125 200 125 200 113 197.5 c 128,-1,4
 101 195 101 195 96 187.5 c 128,-1,5
 91 180 91 180 91 167 c 0,6,7
 91 153 91 153 115 150 c 128,-1,8
 139 147 139 147 197 147 c 0,9,10
 212 147 212 147 220 147 c 0,11,12
 230 147 230 147 247 147 c 0,13,14
 272 147 272 147 283 147 c 128,-1,15
 294 147 294 147 306.5 148.5 c 128,-1,16
 319 150 319 150 323.5 153.5 c 128,-1,17
 328 157 328 157 328 163 c 0,18,19
 328 187 328 187 308 192.5 c 128,-1,20
 288 198 288 198 201 198 c 0,0,1
EndSplineSet
EndChar

StartChar: registered
Encoding: 174 174 109
Width: 342
Flags: W
LayerCount: 2
Fore
SplineSet
255 311 m 0,0,1
 342 371 342 371 342 474 c 0,2,3
 342 598 342 598 168 598 c 0,4,5
 126 598 126 598 101 592 c 0,6,7
 46 580 46 580 46 546 c 0,8,9
 46 358 46 358 50 288 c 0,10,11
 61 99 61 99 69 48 c 0,12,13
 74 15 74 15 82 7.5 c 128,-1,14
 90 0 90 0 113 0 c 0,15,16
 120 0 120 0 124 3 c 128,-1,17
 128 6 128 6 130.5 12 c 128,-1,18
 133 18 133 18 134.5 26 c 128,-1,19
 136 34 136 34 136 47.5 c 128,-1,20
 136 61 136 61 135 75 c 128,-1,21
 134 89 134 89 132 110.5 c 128,-1,22
 130 132 130 132 128.5 153 c 128,-1,23
 127 174 127 174 125 204.5 c 128,-1,24
 123 235 123 235 121 264 c 1,25,26
 130 260 130 260 141 250.5 c 128,-1,27
 152 241 152 241 161 231.5 c 128,-1,28
 170 222 170 222 184.5 204 c 128,-1,29
 199 186 199 186 207.5 175 c 128,-1,30
 216 164 216 164 234 140 c 128,-1,31
 252 116 252 116 260 105 c 0,32,33
 265 99 265 99 276.5 78.5 c 128,-1,34
 288 58 288 58 298 48 c 128,-1,35
 308 38 308 38 322 38 c 0,36,37
 346 38 346 38 354 42.5 c 128,-1,38
 362 47 362 47 362 64 c 0,39,40
 362 76 362 76 357 89 c 128,-1,41
 352 102 352 102 341 118 c 128,-1,42
 330 134 330 134 320.5 146 c 128,-1,43
 311 158 311 158 293.5 179.5 c 128,-1,44
 276 201 276 201 266 213 c 0,45,46
 219 272 219 272 203 286 c 1,47,48
 220 287 220 287 255 311 c 0,0,1
115 526 m 1,49,50
 121 528 121 528 128 533 c 128,-1,51
 135 538 135 538 147.5 540 c 128,-1,52
 160 542 160 542 189 542 c 0,53,54
 222 542 222 542 249.5 522 c 128,-1,55
 277 502 277 502 277 472 c 0,56,57
 277 433 277 433 266.5 407.5 c 128,-1,58
 256 382 256 382 232 366.5 c 128,-1,59
 208 351 208 351 183.5 343.5 c 128,-1,60
 159 336 159 336 117 328 c 1,61,62
 113 337 113 337 112 362 c 128,-1,63
 111 387 111 387 111.5 415 c 128,-1,64
 112 443 112 443 112 447 c 0,65,66
 111 471 111 471 113 489 c 128,-1,67
 115 507 115 507 115 526 c 1,49,50
EndSplineSet
EndChar

StartChar: macron
Encoding: 175 175 110
Width: 424
Flags: W
LayerCount: 2
Fore
SplineSet
201 198 m 0,0,1
 188 198 188 198 166.5 199 c 128,-1,2
 145 200 145 200 135 200 c 128,-1,3
 125 200 125 200 113 197.5 c 128,-1,4
 101 195 101 195 96 187.5 c 128,-1,5
 91 180 91 180 91 167 c 0,6,7
 91 153 91 153 115 150 c 128,-1,8
 139 147 139 147 197 147 c 0,9,10
 212 147 212 147 220 147 c 0,11,12
 230 147 230 147 247 147 c 0,13,14
 272 147 272 147 283 147 c 128,-1,15
 294 147 294 147 306.5 148.5 c 128,-1,16
 319 150 319 150 323.5 153.5 c 128,-1,17
 328 157 328 157 328 163 c 0,18,19
 328 187 328 187 308 192.5 c 128,-1,20
 288 198 288 198 201 198 c 0,0,1
EndSplineSet
EndChar

StartChar: degree
Encoding: 176 176 111
Width: 350
Flags: W
LayerCount: 2
Fore
SplineSet
170 676 m 0,0,1
 251 676 251 676 251 606 c 0,2,3
 251 575 251 575 230 548.5 c 128,-1,4
 209 522 209 522 169 522 c 0,5,6
 145 522 145 522 121 540.5 c 128,-1,7
 97 559 97 559 97 600 c 0,8,9
 97 630 97 630 118.5 653 c 128,-1,10
 140 676 140 676 170 676 c 0,0,1
41 603 m 0,11,12
 41 542 41 542 84.5 505 c 128,-1,13
 128 468 128 468 173 468 c 0,14,15
 226 468 226 468 267 509.5 c 128,-1,16
 308 551 308 551 308 615 c 0,17,18
 308 670 308 670 268.5 701.5 c 128,-1,19
 229 733 229 733 165 733 c 0,20,21
 123 733 123 733 82 689.5 c 128,-1,22
 41 646 41 646 41 603 c 0,11,12
EndSplineSet
EndChar

StartChar: plusminus
Encoding: 177 177 112
Width: 476
Flags: W
LayerCount: 2
Fore
SplineSet
219 74 m 0,0,1
 205 74 205 74 189 74.5 c 128,-1,2
 173 75 173 75 163.5 75 c 128,-1,3
 154 75 154 75 143.5 75 c 128,-1,4
 133 75 133 75 127.5 75 c 128,-1,5
 122 75 122 75 116.5 73.5 c 128,-1,6
 111 72 111 72 108 69.5 c 128,-1,7
 105 67 105 67 102.5 63 c 128,-1,8
 100 59 100 59 99.5 54 c 128,-1,9
 99 49 99 49 99 41 c 0,10,11
 99 27 99 27 122.5 24 c 128,-1,12
 146 21 146 21 210 21 c 0,13,14
 228 21 228 21 238 21 c 0,15,16
 251 21 251 21 274 21 c 0,17,18
 327 21 327 21 342.5 23 c 128,-1,19
 358 25 358 25 358 37 c 0,20,21
 358 51 358 51 356 56.5 c 128,-1,22
 354 62 354 62 340 67 c 128,-1,23
 326 72 326 72 300 73 c 128,-1,24
 274 74 274 74 219 74 c 0,0,1
62 315 m 0,25,26
 62 313 62 313 62 307 c 128,-1,27
 62 301 62 301 62 299.5 c 128,-1,28
 62 298 62 298 63 294 c 128,-1,29
 64 290 64 290 65.5 289 c 128,-1,30
 67 288 67 288 70.5 287 c 128,-1,31
 74 286 74 286 79 286 c 0,32,33
 179 286 179 286 198 283 c 1,34,35
 197 254 197 254 196.5 247 c 128,-1,36
 196 240 196 240 196 225 c 0,37,38
 196 217 196 217 196 207 c 128,-1,39
 196 197 196 197 195.5 191.5 c 128,-1,40
 195 186 195 186 195 179 c 128,-1,41
 195 172 195 172 195.5 168 c 128,-1,42
 196 164 196 164 197 159.5 c 128,-1,43
 198 155 198 155 200 153 c 128,-1,44
 202 151 202 151 205 148.5 c 128,-1,45
 208 146 208 146 212 145.5 c 128,-1,46
 216 145 216 145 221 145 c 0,47,48
 236 145 236 145 244.5 147 c 128,-1,49
 253 149 253 149 256.5 154.5 c 128,-1,50
 260 160 260 160 261 163 c 128,-1,51
 262 166 262 166 261 177 c 128,-1,52
 260 188 260 188 260 191 c 0,53,54
 260 218 260 218 259.5 242.5 c 128,-1,55
 259 267 259 267 259 284 c 1,56,57
 268 284 268 284 308 282 c 128,-1,58
 348 280 348 280 357 280 c 0,59,60
 398 280 398 280 402 283 c 0,61,62
 407 287 407 287 406 301 c 0,63,64
 404 322 404 322 398 328.5 c 128,-1,65
 392 335 392 335 374 335 c 0,66,67
 269 335 269 335 269 340 c 0,68,69
 269 361 269 361 269.5 382.5 c 128,-1,70
 270 404 270 404 270.5 417 c 128,-1,71
 271 430 271 430 271.5 442.5 c 128,-1,72
 272 455 272 455 271.5 461.5 c 128,-1,73
 271 468 271 468 268 473 c 128,-1,74
 265 478 265 478 260.5 480 c 128,-1,75
 256 482 256 482 248 482 c 0,76,77
 236 482 236 482 229 480.5 c 128,-1,78
 222 479 222 479 217 473.5 c 128,-1,79
 212 468 212 468 209.5 462 c 128,-1,80
 207 456 207 456 205.5 442.5 c 128,-1,81
 204 429 204 429 203.5 417.5 c 128,-1,82
 203 406 203 406 202 382.5 c 128,-1,83
 201 359 201 359 200 339 c 1,84,85
 179 339 179 339 156 340 c 128,-1,86
 133 341 133 341 111 341 c 0,87,88
 74 341 74 341 68 338 c 128,-1,89
 62 335 62 335 62 315 c 0,25,26
EndSplineSet
EndChar

StartChar: uni00B2
Encoding: 178 178 113
Width: 397
Flags: W
LayerCount: 2
Fore
SplineSet
20 422 m 0,0,1
 18 486 18 486 67.5 542 c 128,-1,2
 117 598 117 598 210 598 c 0,3,4
 294 598 294 598 333.5 566 c 128,-1,5
 373 534 373 534 373 465 c 0,6,7
 373 414 373 414 368 385 c 128,-1,8
 363 356 363 356 341 324.5 c 128,-1,9
 319 293 319 293 296 271 c 128,-1,10
 273 249 273 249 214 191.5 c 128,-1,11
 155 134 155 134 100 74 c 1,12,13
 151 67 151 67 191 67 c 0,14,15
 208 67 208 67 250 69.5 c 128,-1,16
 292 72 292 72 311 72 c 0,17,18
 320 72 320 72 333.5 74.5 c 128,-1,19
 347 77 347 77 354 78.5 c 128,-1,20
 361 80 361 80 367 75 c 128,-1,21
 373 70 373 70 373 57 c 0,22,23
 373 19 373 19 368 13 c 0,24,25
 360 3 360 3 301 3 c 0,26,27
 231 4 231 4 223 4 c 0,28,29
 202 4 202 4 163.5 3 c 128,-1,30
 125 2 125 2 105 2 c 128,-1,31
 85 2 85 2 61.5 4 c 128,-1,32
 38 6 38 6 27.5 12.5 c 128,-1,33
 17 19 17 19 17 30 c 0,34,35
 17 62 17 62 17 69 c 128,-1,36
 17 76 17 76 22.5 89.5 c 128,-1,37
 28 103 28 103 34.5 106.5 c 128,-1,38
 41 110 41 110 62.5 131.5 c 128,-1,39
 84 153 84 153 108 179 c 0,40,41
 150 226 150 226 198 272 c 128,-1,42
 246 318 246 318 264 336 c 128,-1,43
 282 354 282 354 294.5 381.5 c 128,-1,44
 307 409 307 409 307 446 c 0,45,46
 307 488 307 488 282 512.5 c 128,-1,47
 257 537 257 537 207 537 c 0,48,49
 151 537 151 537 120 505.5 c 128,-1,50
 89 474 89 474 84 434 c 0,51,52
 82 416 82 416 83.5 404 c 128,-1,53
 85 392 85 392 81 385.5 c 128,-1,54
 77 379 77 379 61 379 c 128,-1,55
 45 379 45 379 37 379.5 c 128,-1,56
 29 380 29 380 25 384.5 c 128,-1,57
 21 389 21 389 20.5 390.5 c 128,-1,58
 20 392 20 392 20 404 c 128,-1,59
 20 416 20 416 20 422 c 0,0,1
EndSplineSet
EndChar

StartChar: uni00B3
Encoding: 179 179 114
Width: 397
Flags: W
LayerCount: 2
Fore
SplineSet
320 446 m 0,0,1
 320 486 320 486 289 511.5 c 128,-1,2
 258 537 258 537 207 537 c 0,3,4
 159 537 159 537 126 518 c 128,-1,5
 93 499 93 499 88 476 c 0,6,7
 84 458 84 458 86 446 c 128,-1,8
 88 434 88 434 84.5 427.5 c 128,-1,9
 81 421 81 421 65 421 c 0,10,11
 46 421 46 421 38 423.5 c 128,-1,12
 30 426 30 426 27.5 428 c 128,-1,13
 25 430 25 430 25 443.5 c 128,-1,14
 25 457 25 457 24 464 c 0,15,16
 19 507 19 507 71.5 552.5 c 128,-1,17
 124 598 124 598 210 598 c 0,18,19
 290 598 290 598 334 554.5 c 128,-1,20
 378 511 378 511 378 446 c 0,21,22
 378 383 378 383 358 346 c 128,-1,23
 338 309 338 309 314 302 c 1,24,25
 380 255 380 255 380 143 c 0,26,27
 380 0 380 0 180 0 c 0,28,29
 106 0 106 0 66 28.5 c 128,-1,30
 26 57 26 57 26 98 c 0,31,32
 26 100 26 100 25 109.5 c 128,-1,33
 24 119 24 119 24.5 125.5 c 128,-1,34
 25 132 25 132 26.5 139.5 c 128,-1,35
 28 147 28 147 34 151.5 c 128,-1,36
 40 156 40 156 50 156 c 0,37,38
 53 156 53 156 53.5 155.5 c 128,-1,39
 54 155 54 155 54 152 c 1,40,41
 86 153 86 153 86 140 c 0,42,43
 86 58 86 58 142 58 c 0,44,45
 165 58 165 58 176 58.5 c 128,-1,46
 187 59 187 59 213 60.5 c 128,-1,47
 239 62 239 62 254 67.5 c 128,-1,48
 269 73 269 73 286.5 82 c 128,-1,49
 304 91 304 91 312.5 106 c 128,-1,50
 321 121 321 121 321 142 c 0,51,52
 321 213 321 213 292 245.5 c 128,-1,53
 263 278 263 278 184 278 c 0,54,55
 177 278 177 278 168.5 277.5 c 128,-1,56
 160 277 160 277 155 277 c 128,-1,57
 150 277 150 277 144 277.5 c 128,-1,58
 138 278 138 278 135 279 c 128,-1,59
 132 280 132 280 129 282 c 128,-1,60
 126 284 126 284 125 288 c 128,-1,61
 124 292 124 292 124 297 c 0,62,63
 124 309 124 309 126.5 317 c 128,-1,64
 129 325 129 325 130.5 329.5 c 128,-1,65
 132 334 132 334 139 336 c 128,-1,66
 146 338 146 338 148.5 338.5 c 128,-1,67
 151 339 151 339 162 338.5 c 128,-1,68
 173 338 173 338 176 338 c 128,-1,69
 179 338 179 338 203.5 337 c 128,-1,70
 228 336 228 336 237.5 337 c 128,-1,71
 247 338 247 338 266.5 343.5 c 128,-1,72
 286 349 286 349 295 360 c 128,-1,73
 304 371 304 371 312 393 c 128,-1,74
 320 415 320 415 320 446 c 0,0,1
EndSplineSet
EndChar

StartChar: acute
Encoding: 180 180 115
Width: 232
Flags: W
LayerCount: 2
Fore
SplineSet
77 629 m 0,0,1
 71 615 71 615 68 606.5 c 128,-1,2
 65 598 65 598 60.5 585.5 c 128,-1,3
 56 573 56 573 54.5 565 c 128,-1,4
 53 557 53 557 52.5 549.5 c 128,-1,5
 52 542 52 542 55.5 538 c 128,-1,6
 59 534 59 534 66 534 c 0,7,8
 96 534 96 534 140 606 c 0,9,10
 141 608 141 608 142.5 612 c 128,-1,11
 144 616 144 616 148.5 625.5 c 128,-1,12
 153 635 153 635 155.5 644 c 128,-1,13
 158 653 158 653 160.5 662.5 c 128,-1,14
 163 672 163 672 161 677.5 c 128,-1,15
 159 683 159 683 154 683 c 0,16,17
 120 684 120 684 105.5 673.5 c 128,-1,18
 91 663 91 663 77 629 c 0,0,1
EndSplineSet
EndChar

StartChar: mu
Encoding: 181 181 116
Width: 473
Flags: W
LayerCount: 2
Fore
SplineSet
7 158 m 0,0,1
 -16 67 -16 67 24 33.5 c 128,-1,2
 64 0 64 0 162 0 c 0,3,4
 237 0 237 0 284 57 c 1,5,6
 283 37 283 37 303 18.5 c 128,-1,7
 323 0 323 0 369 0 c 0,8,9
 404 0 404 0 451.5 45 c 128,-1,10
 499 90 499 90 499 116 c 0,11,12
 499 117 499 117 499.5 121 c 128,-1,13
 500 125 500 125 500 127 c 128,-1,14
 500 129 500 129 498.5 131 c 128,-1,15
 497 133 497 133 493 133 c 128,-1,16
 489 133 489 133 471 114.5 c 128,-1,17
 453 96 453 96 427.5 78 c 128,-1,18
 402 60 402 60 378 60 c 0,19,20
 343 60 343 60 339 92.5 c 128,-1,21
 335 125 335 125 359 196 c 0,22,23
 367 219 367 219 373.5 245.5 c 128,-1,24
 380 272 380 272 383 286 c 2,25,-1
 386 301 l 2,26,27
 386 310 386 310 386 313 c 128,-1,28
 386 316 386 316 384 321.5 c 128,-1,29
 382 327 382 327 377.5 328.5 c 128,-1,30
 373 330 373 330 365 330 c 0,31,32
 354 330 354 330 345 323 c 128,-1,33
 336 316 336 316 329 301.5 c 128,-1,34
 322 287 322 287 317 273 c 128,-1,35
 312 259 312 259 305 237 c 128,-1,36
 298 215 298 215 293 201 c 0,37,38
 270 141 270 141 242 108 c 128,-1,39
 214 75 214 75 190.5 67 c 128,-1,40
 167 59 167 59 134 59 c 0,41,42
 83 59 83 59 72.5 93.5 c 128,-1,43
 62 128 62 128 82 184 c 0,44,45
 116 299 116 299 116 325 c 0,46,47
 116 334 116 334 112 335 c 0,48,49
 108 337 108 337 98 337 c 0,50,51
 82 337 82 337 68 323 c 128,-1,52
 54 309 54 309 42.5 279 c 128,-1,53
 31 249 31 249 24.5 225 c 128,-1,54
 18 201 18 201 7 158 c 0,0,1
EndSplineSet
EndChar

StartChar: periodcentered
Encoding: 183 183 117
Width: 202
Flags: W
LayerCount: 2
Fore
SplineSet
57 185 m 0,0,1
 50 160 50 160 62 142 c 128,-1,2
 74 124 74 124 92 124 c 0,3,4
 131 124 131 124 146 195 c 0,5,6
 155 237 155 237 114 237 c 0,7,8
 100 237 100 237 82 223 c 128,-1,9
 64 209 64 209 57 185 c 0,0,1
EndSplineSet
EndChar

StartChar: cedilla
Encoding: 184 184 118
Width: 184
Flags: W
LayerCount: 2
Fore
SplineSet
155 -15 m 0,0,1
 154 3 154 3 142 19.5 c 128,-1,2
 130 36 130 36 104 36 c 0,3,4
 91 36 91 36 84 28.5 c 128,-1,5
 77 21 77 21 76 14.5 c 128,-1,6
 75 8 75 8 75.5 -6 c 128,-1,7
 76 -20 76 -20 76 -21 c 0,8,9
 75 -50 75 -50 68 -68.5 c 128,-1,10
 61 -87 61 -87 52.5 -93 c 128,-1,11
 44 -99 44 -99 37 -105 c 128,-1,12
 30 -111 30 -111 30 -118 c 0,13,14
 30 -129 30 -129 33 -132.5 c 128,-1,15
 36 -136 36 -136 44 -136 c 0,16,17
 79 -136 79 -136 118 -101.5 c 128,-1,18
 157 -67 157 -67 155 -15 c 0,0,1
EndSplineSet
EndChar

StartChar: uni00B9
Encoding: 185 185 119
Width: 360
Flags: W
LayerCount: 2
Fore
SplineSet
149 352 m 0,0,1
 164 378 164 378 224 465 c 1,2,3
 228 397 228 397 229.5 262.5 c 128,-1,4
 231 128 231 128 234 71 c 0,5,6
 235 46 235 46 237 33.5 c 128,-1,7
 239 21 239 21 246 14.5 c 128,-1,8
 253 8 253 8 259.5 7 c 128,-1,9
 266 6 266 6 284 5 c 0,10,11
 306 4 306 4 310 11 c 128,-1,12
 314 18 314 18 311 51 c 0,13,14
 308 90 308 90 308 120 c 0,15,16
 307 197 307 197 302.5 348.5 c 128,-1,17
 298 500 298 500 298 541 c 0,18,19
 298 545 298 545 297 548 c 128,-1,20
 296 551 296 551 294.5 553.5 c 128,-1,21
 293 556 293 556 291 557 c 128,-1,22
 289 558 289 558 285.5 559 c 128,-1,23
 282 560 282 560 278 560 c 128,-1,24
 274 560 274 560 267.5 560 c 128,-1,25
 261 560 261 560 255.5 559.5 c 128,-1,26
 250 559 250 559 240 559 c 128,-1,27
 230 559 230 559 222 559 c 0,28,29
 197 559 197 559 187.5 550.5 c 128,-1,30
 178 542 178 542 157 507 c 0,31,32
 143 485 143 485 124 454.5 c 128,-1,33
 105 424 105 424 91 400 c 128,-1,34
 77 376 77 376 60 346 c 0,35,36
 53 333 53 333 49 323 c 128,-1,37
 45 313 45 313 43.5 305 c 128,-1,38
 42 297 42 297 45.5 292.5 c 128,-1,39
 49 288 49 288 57 288 c 0,40,41
 96 288 96 288 109.5 297.5 c 128,-1,42
 123 307 123 307 149 352 c 0,0,1
EndSplineSet
EndChar

StartChar: ordmasculine
Encoding: 186 186 120
Width: 350
Flags: W
LayerCount: 2
Fore
SplineSet
170 676 m 0,0,1
 251 676 251 676 251 606 c 0,2,3
 251 575 251 575 230 548.5 c 128,-1,4
 209 522 209 522 169 522 c 0,5,6
 145 522 145 522 121 540.5 c 128,-1,7
 97 559 97 559 97 600 c 0,8,9
 97 630 97 630 118.5 653 c 128,-1,10
 140 676 140 676 170 676 c 0,0,1
41 603 m 0,11,12
 41 542 41 542 84.5 505 c 128,-1,13
 128 468 128 468 173 468 c 0,14,15
 226 468 226 468 267 509.5 c 128,-1,16
 308 551 308 551 308 615 c 0,17,18
 308 670 308 670 268.5 701.5 c 128,-1,19
 229 733 229 733 165 733 c 0,20,21
 123 733 123 733 82 689.5 c 128,-1,22
 41 646 41 646 41 603 c 0,11,12
EndSplineSet
EndChar

StartChar: guillemotright
Encoding: 187 187 121
Width: 371
Flags: W
LayerCount: 2
Fore
SplineSet
258 506 m 0,0,1
 234 506 234 506 223 541.5 c 128,-1,2
 212 577 212 577 212 626 c 0,3,4
 212 649 212 649 224 670.5 c 128,-1,5
 236 692 236 692 258 692 c 0,6,7
 274 692 274 692 283.5 684.5 c 128,-1,8
 293 677 293 677 297 661.5 c 128,-1,9
 301 646 301 646 301.5 636 c 128,-1,10
 302 626 302 626 302 608 c 0,11,12
 302 602 302 602 302 600 c 0,13,14
 302 506 302 506 258 506 c 0,0,1
116 498 m 0,15,16
 93 498 93 498 78.5 551.5 c 128,-1,17
 64 605 64 605 64 638 c 0,18,19
 64 639 64 639 64 646 c 128,-1,20
 64 653 64 653 64 655 c 128,-1,21
 64 657 64 657 64.5 663.5 c 128,-1,22
 65 670 65 670 66 672.5 c 128,-1,23
 67 675 67 675 68.5 680.5 c 128,-1,24
 70 686 70 686 72 688.5 c 128,-1,25
 74 691 74 691 77.5 694.5 c 128,-1,26
 81 698 81 698 85.5 699.5 c 128,-1,27
 90 701 90 701 96.5 702.5 c 128,-1,28
 103 704 103 704 110 704 c 0,29,30
 154 704 154 704 154 604 c 0,31,32
 154 601 154 601 154 596 c 0,33,34
 154 576 154 576 153.5 564 c 128,-1,35
 153 552 153 552 150 534 c 128,-1,36
 147 516 147 516 138.5 507 c 128,-1,37
 130 498 130 498 116 498 c 0,15,16
EndSplineSet
EndChar

StartChar: questiondown
Encoding: 191 191 122
Width: 397
Flags: W
LayerCount: 2
Fore
SplineSet
139 19 m 0,0,1
 132 -6 132 -6 144 -24 c 128,-1,2
 156 -42 156 -42 174 -42 c 0,3,4
 213 -42 213 -42 228 29 c 0,5,6
 237 71 237 71 196 71 c 0,7,8
 182 71 182 71 164 57 c 128,-1,9
 146 43 146 43 139 19 c 0,0,1
20 422 m 0,10,11
 20 443 20 443 31 471.5 c 128,-1,12
 42 500 42 500 63.5 529 c 128,-1,13
 85 558 85 558 124 578 c 128,-1,14
 163 598 163 598 210 598 c 0,15,16
 294 598 294 598 333.5 566 c 128,-1,17
 373 534 373 534 373 465 c 0,18,19
 373 420 373 420 357 381.5 c 128,-1,20
 341 343 341 343 318 316.5 c 128,-1,21
 295 290 295 290 272 267 c 128,-1,22
 249 244 249 244 233 219 c 128,-1,23
 217 194 217 194 217 170 c 0,24,25
 217 154 217 154 208.5 144 c 128,-1,26
 200 134 200 134 190 134 c 0,27,28
 166 134 166 134 156.5 137.5 c 128,-1,29
 147 141 147 141 146 144.5 c 128,-1,30
 145 148 145 148 147.5 162 c 128,-1,31
 150 176 150 176 150 186 c 0,32,33
 150 216 150 216 166 246.5 c 128,-1,34
 182 277 182 277 205 301.5 c 128,-1,35
 228 326 228 326 251.5 349.5 c 128,-1,36
 275 373 275 373 291 398 c 128,-1,37
 307 423 307 423 307 446 c 0,38,39
 307 488 307 488 282 512.5 c 128,-1,40
 257 537 257 537 207 537 c 0,41,42
 152 537 152 537 126.5 509.5 c 128,-1,43
 101 482 101 482 84 434 c 0,44,45
 78 417 78 417 80.5 405 c 128,-1,46
 83 393 83 393 79.5 386 c 128,-1,47
 76 379 76 379 61 379 c 0,48,49
 45 379 45 379 37 379.5 c 128,-1,50
 29 380 29 380 25 384.5 c 128,-1,51
 21 389 21 389 20 390.5 c 128,-1,52
 19 392 19 392 19.5 404.5 c 128,-1,53
 20 417 20 417 20 422 c 0,10,11
EndSplineSet
EndChar

StartChar: Agrave
Encoding: 192 192 123
Width: 444
Flags: W
LayerCount: 2
Fore
SplineSet
301 664 m 0,0,1
 301 676 301 676 297.5 682.5 c 128,-1,2
 294 689 294 689 279 708 c 0,3,4
 217 786 217 786 173 786 c 0,5,6
 165 786 165 786 158.5 777 c 128,-1,7
 152 768 152 768 152 760 c 0,8,9
 152 750 152 750 155.5 740.5 c 128,-1,10
 159 731 159 731 162.5 725 c 128,-1,11
 166 719 166 719 176 709.5 c 128,-1,12
 186 700 186 700 191.5 695.5 c 128,-1,13
 197 691 197 691 212 680 c 128,-1,14
 227 669 227 669 233 664 c 0,15,16
 251 650 251 650 267.5 647.5 c 128,-1,17
 284 645 284 645 292.5 650.5 c 128,-1,18
 301 656 301 656 301 664 c 0,0,1
251 525 m 1,19,20
 198 369 198 369 181 314 c 1,21,22
 261 328 261 328 316 330 c 1,23,24
 270 453 270 453 251 525 c 1,19,20
247 600 m 0,25,26
 266 600 266 600 274 598.5 c 128,-1,27
 282 597 282 597 292.5 585.5 c 128,-1,28
 303 574 303 574 311 549 c 0,29,30
 355 418 355 418 392 296 c 0,31,32
 402 263 402 263 414.5 223.5 c 128,-1,33
 427 184 427 184 433.5 162.5 c 128,-1,34
 440 141 440 141 447 119 c 128,-1,35
 454 97 454 97 456.5 84.5 c 128,-1,36
 459 72 459 72 459 66 c 0,37,38
 459 48 459 48 452.5 42.5 c 128,-1,39
 446 37 446 37 427 37 c 0,40,41
 400 37 400 37 390 64 c 0,42,43
 386 72 386 72 373 125 c 0,44,45
 363 166 363 166 332 268 c 1,46,47
 309 265 309 265 245 256.5 c 128,-1,48
 181 248 181 248 166 247 c 1,49,50
 164 237 164 237 145 183.5 c 128,-1,51
 126 130 126 130 119 103 c 0,52,53
 116 92 116 92 112 73.5 c 128,-1,54
 108 55 108 55 105.5 44.5 c 128,-1,55
 103 34 103 34 99 22.5 c 128,-1,56
 95 11 95 11 89.5 5.5 c 128,-1,57
 84 0 84 0 76 0 c 0,58,59
 61 0 61 0 47 6.5 c 128,-1,60
 33 13 33 13 33 26 c 0,61,62
 33 44 33 44 38 69 c 128,-1,63
 43 94 43 94 49 113.5 c 128,-1,64
 55 133 55 133 72 185.5 c 128,-1,65
 89 238 89 238 100 274 c 0,66,67
 179 532 179 532 186 551 c 0,68,69
 187 553 187 553 189.5 561.5 c 128,-1,70
 192 570 192 570 193 571.5 c 128,-1,71
 194 573 194 573 197 579.5 c 128,-1,72
 200 586 200 586 202 587.5 c 128,-1,73
 204 589 204 589 208.5 592.5 c 128,-1,74
 213 596 213 596 218 597 c 128,-1,75
 223 598 223 598 230.5 599 c 128,-1,76
 238 600 238 600 247 600 c 0,25,26
EndSplineSet
EndChar

StartChar: Aacute
Encoding: 193 193 124
Width: 444
Flags: W
LayerCount: 2
Fore
SplineSet
200 729 m 0,0,1
 194 715 194 715 191 706.5 c 128,-1,2
 188 698 188 698 183.5 685.5 c 128,-1,3
 179 673 179 673 177.5 665 c 128,-1,4
 176 657 176 657 175.5 649.5 c 128,-1,5
 175 642 175 642 178.5 638 c 128,-1,6
 182 634 182 634 189 634 c 0,7,8
 219 634 219 634 263 706 c 0,9,10
 264 708 264 708 265.5 712 c 128,-1,11
 267 716 267 716 271.5 725.5 c 128,-1,12
 276 735 276 735 278.5 744 c 128,-1,13
 281 753 281 753 283.5 762.5 c 128,-1,14
 286 772 286 772 284 777.5 c 128,-1,15
 282 783 282 783 277 783 c 0,16,17
 243 784 243 784 228.5 773.5 c 128,-1,18
 214 763 214 763 200 729 c 0,0,1
251 525 m 1,19,20
 198 369 198 369 181 314 c 1,21,22
 261 328 261 328 316 330 c 1,23,24
 270 453 270 453 251 525 c 1,19,20
247 600 m 0,25,26
 266 600 266 600 274 598.5 c 128,-1,27
 282 597 282 597 292.5 585.5 c 128,-1,28
 303 574 303 574 311 549 c 0,29,30
 355 418 355 418 392 296 c 0,31,32
 402 263 402 263 414.5 223.5 c 128,-1,33
 427 184 427 184 433.5 162.5 c 128,-1,34
 440 141 440 141 447 119 c 128,-1,35
 454 97 454 97 456.5 84.5 c 128,-1,36
 459 72 459 72 459 66 c 0,37,38
 459 48 459 48 452.5 42.5 c 128,-1,39
 446 37 446 37 427 37 c 0,40,41
 400 37 400 37 390 64 c 0,42,43
 386 72 386 72 373 125 c 0,44,45
 363 166 363 166 332 268 c 1,46,47
 309 265 309 265 245 256.5 c 128,-1,48
 181 248 181 248 166 247 c 1,49,50
 164 237 164 237 145 183.5 c 128,-1,51
 126 130 126 130 119 103 c 0,52,53
 116 92 116 92 112 73.5 c 128,-1,54
 108 55 108 55 105.5 44.5 c 128,-1,55
 103 34 103 34 99 22.5 c 128,-1,56
 95 11 95 11 89.5 5.5 c 128,-1,57
 84 0 84 0 76 0 c 0,58,59
 61 0 61 0 47 6.5 c 128,-1,60
 33 13 33 13 33 26 c 0,61,62
 33 44 33 44 38 69 c 128,-1,63
 43 94 43 94 49 113.5 c 128,-1,64
 55 133 55 133 72 185.5 c 128,-1,65
 89 238 89 238 100 274 c 0,66,67
 179 532 179 532 186 551 c 0,68,69
 187 553 187 553 189.5 561.5 c 128,-1,70
 192 570 192 570 193 571.5 c 128,-1,71
 194 573 194 573 197 579.5 c 128,-1,72
 200 586 200 586 202 587.5 c 128,-1,73
 204 589 204 589 208.5 592.5 c 128,-1,74
 213 596 213 596 218 597 c 128,-1,75
 223 598 223 598 230.5 599 c 128,-1,76
 238 600 238 600 247 600 c 0,25,26
EndSplineSet
EndChar

StartChar: Acircumflex
Encoding: 194 194 125
Width: 444
Flags: W
LayerCount: 2
Fore
SplineSet
340 678 m 0,0,1
 367 641 367 641 352 629 c 0,2,3
 344 623 344 623 331 630 c 256,4,5
 318 637 318 637 305 646 c 128,-1,6
 292 655 292 655 271.5 671 c 128,-1,7
 251 687 251 687 239 696 c 1,8,9
 221 677 221 677 187 653.5 c 128,-1,10
 153 630 153 630 151 628 c 0,11,12
 144 623 144 623 132.5 621 c 128,-1,13
 121 619 121 619 116.5 626.5 c 128,-1,14
 112 634 112 634 131 662 c 0,15,16
 161 704 161 704 179.5 724.5 c 128,-1,17
 198 745 198 745 217 758 c 128,-1,18
 236 771 236 771 253.5 763 c 128,-1,19
 271 755 271 755 291.5 736 c 128,-1,20
 312 717 312 717 340 678 c 0,0,1
251 525 m 1,21,22
 198 369 198 369 181 314 c 1,23,24
 261 328 261 328 316 330 c 1,25,26
 270 453 270 453 251 525 c 1,21,22
247 600 m 0,27,28
 266 600 266 600 274 598.5 c 128,-1,29
 282 597 282 597 292.5 585.5 c 128,-1,30
 303 574 303 574 311 549 c 0,31,32
 355 418 355 418 392 296 c 0,33,34
 402 263 402 263 414.5 223.5 c 128,-1,35
 427 184 427 184 433.5 162.5 c 128,-1,36
 440 141 440 141 447 119 c 128,-1,37
 454 97 454 97 456.5 84.5 c 128,-1,38
 459 72 459 72 459 66 c 0,39,40
 459 48 459 48 452.5 42.5 c 128,-1,41
 446 37 446 37 427 37 c 0,42,43
 400 37 400 37 390 64 c 0,44,45
 386 72 386 72 373 125 c 0,46,47
 363 166 363 166 332 268 c 1,48,49
 309 265 309 265 245 256.5 c 128,-1,50
 181 248 181 248 166 247 c 1,51,52
 164 237 164 237 145 183.5 c 128,-1,53
 126 130 126 130 119 103 c 0,54,55
 116 92 116 92 112 73.5 c 128,-1,56
 108 55 108 55 105.5 44.5 c 128,-1,57
 103 34 103 34 99 22.5 c 128,-1,58
 95 11 95 11 89.5 5.5 c 128,-1,59
 84 0 84 0 76 0 c 0,60,61
 61 0 61 0 47 6.5 c 128,-1,62
 33 13 33 13 33 26 c 0,63,64
 33 44 33 44 38 69 c 128,-1,65
 43 94 43 94 49 113.5 c 128,-1,66
 55 133 55 133 72 185.5 c 128,-1,67
 89 238 89 238 100 274 c 0,68,69
 179 532 179 532 186 551 c 0,70,71
 187 553 187 553 189.5 561.5 c 128,-1,72
 192 570 192 570 193 571.5 c 128,-1,73
 194 573 194 573 197 579.5 c 128,-1,74
 200 586 200 586 202 587.5 c 128,-1,75
 204 589 204 589 208.5 592.5 c 128,-1,76
 213 596 213 596 218 597 c 128,-1,77
 223 598 223 598 230.5 599 c 128,-1,78
 238 600 238 600 247 600 c 0,27,28
EndSplineSet
EndChar

StartChar: Atilde
Encoding: 195 195 126
Width: 444
Flags: W
LayerCount: 2
Fore
SplineSet
316 731 m 0,0,1
 290 718 290 718 267.5 716.5 c 128,-1,2
 245 715 245 715 235 725 c 0,3,4
 205 748 205 748 170 737.5 c 128,-1,5
 135 727 135 727 119 704 c 0,6,7
 92 664 92 664 113 666 c 0,8,9
 120 666 120 666 131 672 c 0,10,11
 150 682 150 682 159.5 686 c 128,-1,12
 169 690 169 690 186 689.5 c 128,-1,13
 203 689 203 689 219 678 c 0,14,15
 236 665 236 665 265.5 666 c 128,-1,16
 295 667 295 667 310 682 c 0,17,18
 339 711 339 711 339 729 c 0,19,20
 339 742 339 742 316 731 c 0,0,1
251 525 m 1,21,22
 198 369 198 369 181 314 c 1,23,24
 261 328 261 328 316 330 c 1,25,26
 270 453 270 453 251 525 c 1,21,22
247 600 m 0,27,28
 266 600 266 600 274 598.5 c 128,-1,29
 282 597 282 597 292.5 585.5 c 128,-1,30
 303 574 303 574 311 549 c 0,31,32
 355 418 355 418 392 296 c 0,33,34
 402 263 402 263 414.5 223.5 c 128,-1,35
 427 184 427 184 433.5 162.5 c 128,-1,36
 440 141 440 141 447 119 c 128,-1,37
 454 97 454 97 456.5 84.5 c 128,-1,38
 459 72 459 72 459 66 c 0,39,40
 459 48 459 48 452.5 42.5 c 128,-1,41
 446 37 446 37 427 37 c 0,42,43
 400 37 400 37 390 64 c 0,44,45
 386 72 386 72 373 125 c 0,46,47
 363 166 363 166 332 268 c 1,48,49
 309 265 309 265 245 256.5 c 128,-1,50
 181 248 181 248 166 247 c 1,51,52
 164 237 164 237 145 183.5 c 128,-1,53
 126 130 126 130 119 103 c 0,54,55
 116 92 116 92 112 73.5 c 128,-1,56
 108 55 108 55 105.5 44.5 c 128,-1,57
 103 34 103 34 99 22.5 c 128,-1,58
 95 11 95 11 89.5 5.5 c 128,-1,59
 84 0 84 0 76 0 c 0,60,61
 61 0 61 0 47 6.5 c 128,-1,62
 33 13 33 13 33 26 c 0,63,64
 33 44 33 44 38 69 c 128,-1,65
 43 94 43 94 49 113.5 c 128,-1,66
 55 133 55 133 72 185.5 c 128,-1,67
 89 238 89 238 100 274 c 0,68,69
 179 532 179 532 186 551 c 0,70,71
 187 553 187 553 189.5 561.5 c 128,-1,72
 192 570 192 570 193 571.5 c 128,-1,73
 194 573 194 573 197 579.5 c 128,-1,74
 200 586 200 586 202 587.5 c 128,-1,75
 204 589 204 589 208.5 592.5 c 128,-1,76
 213 596 213 596 218 597 c 128,-1,77
 223 598 223 598 230.5 599 c 128,-1,78
 238 600 238 600 247 600 c 0,27,28
EndSplineSet
EndChar

StartChar: Adieresis
Encoding: 196 196 127
Width: 444
Flags: W
LayerCount: 2
Fore
SplineSet
261 701 m 0,0,1
 261 658 261 658 313 658 c 0,2,3
 328 658 328 658 341 669 c 128,-1,4
 354 680 354 680 355 700 c 0,5,6
 356 723 356 723 346.5 738 c 128,-1,7
 337 753 337 753 318 753 c 0,8,9
 301 753 301 753 281 739 c 128,-1,10
 261 725 261 725 261 701 c 0,0,1
115 713 m 0,11,12
 108 688 108 688 120 670 c 128,-1,13
 132 652 132 652 150 652 c 0,14,15
 189 652 189 652 204 723 c 0,16,17
 213 765 213 765 172 765 c 0,18,19
 158 765 158 765 140 751 c 128,-1,20
 122 737 122 737 115 713 c 0,11,12
251 525 m 1,21,22
 198 369 198 369 181 314 c 1,23,24
 261 328 261 328 316 330 c 1,25,26
 270 453 270 453 251 525 c 1,21,22
247 600 m 0,27,28
 266 600 266 600 274 598.5 c 128,-1,29
 282 597 282 597 292.5 585.5 c 128,-1,30
 303 574 303 574 311 549 c 0,31,32
 355 418 355 418 392 296 c 0,33,34
 402 263 402 263 414.5 223.5 c 128,-1,35
 427 184 427 184 433.5 162.5 c 128,-1,36
 440 141 440 141 447 119 c 128,-1,37
 454 97 454 97 456.5 84.5 c 128,-1,38
 459 72 459 72 459 66 c 0,39,40
 459 48 459 48 452.5 42.5 c 128,-1,41
 446 37 446 37 427 37 c 0,42,43
 400 37 400 37 390 64 c 0,44,45
 386 72 386 72 373 125 c 0,46,47
 363 166 363 166 332 268 c 1,48,49
 309 265 309 265 245 256.5 c 128,-1,50
 181 248 181 248 166 247 c 1,51,52
 164 237 164 237 145 183.5 c 128,-1,53
 126 130 126 130 119 103 c 0,54,55
 116 92 116 92 112 73.5 c 128,-1,56
 108 55 108 55 105.5 44.5 c 128,-1,57
 103 34 103 34 99 22.5 c 128,-1,58
 95 11 95 11 89.5 5.5 c 128,-1,59
 84 0 84 0 76 0 c 0,60,61
 61 0 61 0 47 6.5 c 128,-1,62
 33 13 33 13 33 26 c 0,63,64
 33 44 33 44 38 69 c 128,-1,65
 43 94 43 94 49 113.5 c 128,-1,66
 55 133 55 133 72 185.5 c 128,-1,67
 89 238 89 238 100 274 c 0,68,69
 179 532 179 532 186 551 c 0,70,71
 187 553 187 553 189.5 561.5 c 128,-1,72
 192 570 192 570 193 571.5 c 128,-1,73
 194 573 194 573 197 579.5 c 128,-1,74
 200 586 200 586 202 587.5 c 128,-1,75
 204 589 204 589 208.5 592.5 c 128,-1,76
 213 596 213 596 218 597 c 128,-1,77
 223 598 223 598 230.5 599 c 128,-1,78
 238 600 238 600 247 600 c 0,27,28
EndSplineSet
EndChar

StartChar: Aring
Encoding: 197 197 128
Width: 444
Flags: W
LayerCount: 2
Fore
SplineSet
198 719 m 0,0,1
 191 694 191 694 203 676 c 128,-1,2
 215 658 215 658 233 658 c 0,3,4
 272 658 272 658 287 729 c 0,5,6
 296 771 296 771 255 771 c 0,7,8
 241 771 241 771 223 757 c 128,-1,9
 205 743 205 743 198 719 c 0,0,1
251 525 m 1,10,11
 198 369 198 369 181 314 c 1,12,13
 261 328 261 328 316 330 c 1,14,15
 270 453 270 453 251 525 c 1,10,11
247 600 m 0,16,17
 266 600 266 600 274 598.5 c 128,-1,18
 282 597 282 597 292.5 585.5 c 128,-1,19
 303 574 303 574 311 549 c 0,20,21
 355 418 355 418 392 296 c 0,22,23
 402 263 402 263 414.5 223.5 c 128,-1,24
 427 184 427 184 433.5 162.5 c 128,-1,25
 440 141 440 141 447 119 c 128,-1,26
 454 97 454 97 456.5 84.5 c 128,-1,27
 459 72 459 72 459 66 c 0,28,29
 459 48 459 48 452.5 42.5 c 128,-1,30
 446 37 446 37 427 37 c 0,31,32
 400 37 400 37 390 64 c 0,33,34
 386 72 386 72 373 125 c 0,35,36
 363 166 363 166 332 268 c 1,37,38
 309 265 309 265 245 256.5 c 128,-1,39
 181 248 181 248 166 247 c 1,40,41
 164 237 164 237 145 183.5 c 128,-1,42
 126 130 126 130 119 103 c 0,43,44
 116 92 116 92 112 73.5 c 128,-1,45
 108 55 108 55 105.5 44.5 c 128,-1,46
 103 34 103 34 99 22.5 c 128,-1,47
 95 11 95 11 89.5 5.5 c 128,-1,48
 84 0 84 0 76 0 c 0,49,50
 61 0 61 0 47 6.5 c 128,-1,51
 33 13 33 13 33 26 c 0,52,53
 33 44 33 44 38 69 c 128,-1,54
 43 94 43 94 49 113.5 c 128,-1,55
 55 133 55 133 72 185.5 c 128,-1,56
 89 238 89 238 100 274 c 0,57,58
 179 532 179 532 186 551 c 0,59,60
 187 553 187 553 189.5 561.5 c 128,-1,61
 192 570 192 570 193 571.5 c 128,-1,62
 194 573 194 573 197 579.5 c 128,-1,63
 200 586 200 586 202 587.5 c 128,-1,64
 204 589 204 589 208.5 592.5 c 128,-1,65
 213 596 213 596 218 597 c 128,-1,66
 223 598 223 598 230.5 599 c 128,-1,67
 238 600 238 600 247 600 c 0,16,17
EndSplineSet
EndChar

StartChar: AE
Encoding: 198 198 129
Width: 700
Flags: W
LayerCount: 2
Fore
SplineSet
641 4 m 0,0,1
 613 4 613 4 540 4 c 128,-1,2
 467 4 467 4 443 4 c 0,3,4
 430 4 430 4 424 5 c 128,-1,5
 418 6 418 6 410.5 10 c 128,-1,6
 403 14 403 14 399 24 c 128,-1,7
 395 34 395 34 392 52 c 0,8,9
 387 82 387 82 385 115.5 c 128,-1,10
 383 149 383 149 381 202 c 128,-1,11
 379 255 379 255 377 292 c 0,12,13
 371 397 371 397 371 550 c 0,14,15
 371 582 371 582 431 596 c 128,-1,16
 491 610 491 610 548 610 c 0,17,18
 640 610 640 610 676 603.5 c 128,-1,19
 712 597 712 597 712 570 c 0,20,21
 712 538 712 538 682 538 c 0,22,23
 676 538 676 538 665.5 539.5 c 128,-1,24
 655 541 655 541 625 543.5 c 128,-1,25
 595 546 595 546 544 548 c 0,26,27
 525 548 525 548 511.5 547 c 128,-1,28
 498 546 498 546 487 543.5 c 128,-1,29
 476 541 476 541 471 539.5 c 128,-1,30
 466 538 466 538 457 534.5 c 128,-1,31
 448 531 448 531 445 530 c 0,32,33
 445 510 445 510 443 492.5 c 128,-1,34
 441 475 441 475 442 451 c 0,35,36
 445 395 445 395 453 344 c 1,37,38
 476 347 476 347 526.5 350 c 128,-1,39
 577 353 577 353 613 354.5 c 128,-1,40
 649 356 649 356 656 356 c 0,41,42
 696 356 696 356 707 346.5 c 128,-1,43
 718 337 718 337 718 304 c 0,44,45
 718 295 718 295 708.5 290 c 128,-1,46
 699 285 699 285 681.5 284 c 128,-1,47
 664 283 664 283 647 283 c 128,-1,48
 630 283 630 283 607.5 284.5 c 128,-1,49
 585 286 585 286 574 286 c 0,50,51
 540 286 540 286 500.5 281 c 128,-1,52
 461 276 461 276 447 272 c 1,53,54
 449 261 449 261 450.5 223 c 128,-1,55
 452 185 452 185 456 152 c 0,56,57
 462 101 462 101 461 72 c 1,58,59
 493 74 493 74 559 74 c 0,60,61
 659 74 659 74 690.5 68 c 128,-1,62
 722 62 722 62 722 36 c 0,63,64
 722 13 722 13 708.5 8.5 c 128,-1,65
 695 4 695 4 641 4 c 0,0,1
251 525 m 1,66,67
 198 369 198 369 181 314 c 1,68,69
 261 328 261 328 316 330 c 1,70,71
 270 453 270 453 251 525 c 1,66,67
247 600 m 0,72,73
 266 600 266 600 274 598.5 c 128,-1,74
 282 597 282 597 292.5 585.5 c 128,-1,75
 303 574 303 574 311 549 c 0,76,77
 355 418 355 418 392 296 c 0,78,79
 402 263 402 263 414.5 223.5 c 128,-1,80
 427 184 427 184 433.5 162.5 c 128,-1,81
 440 141 440 141 447 119 c 128,-1,82
 454 97 454 97 456.5 84.5 c 128,-1,83
 459 72 459 72 459 66 c 0,84,85
 459 48 459 48 452.5 42.5 c 128,-1,86
 446 37 446 37 427 37 c 0,87,88
 400 37 400 37 390 64 c 0,89,90
 386 72 386 72 373 125 c 0,91,92
 363 166 363 166 332 268 c 1,93,94
 309 265 309 265 245 256.5 c 128,-1,95
 181 248 181 248 166 247 c 1,96,97
 164 237 164 237 145 183.5 c 128,-1,98
 126 130 126 130 119 103 c 0,99,100
 116 92 116 92 112 73.5 c 128,-1,101
 108 55 108 55 105.5 44.5 c 128,-1,102
 103 34 103 34 99 22.5 c 128,-1,103
 95 11 95 11 89.5 5.5 c 128,-1,104
 84 0 84 0 76 0 c 0,105,106
 61 0 61 0 47 6.5 c 128,-1,107
 33 13 33 13 33 26 c 0,108,109
 33 44 33 44 38 69 c 128,-1,110
 43 94 43 94 49 113.5 c 128,-1,111
 55 133 55 133 72 185.5 c 128,-1,112
 89 238 89 238 100 274 c 0,113,114
 179 532 179 532 186 551 c 0,115,116
 187 553 187 553 189.5 561.5 c 128,-1,117
 192 570 192 570 193 571.5 c 128,-1,118
 194 573 194 573 197 579.5 c 128,-1,119
 200 586 200 586 202 587.5 c 128,-1,120
 204 589 204 589 208.5 592.5 c 128,-1,121
 213 596 213 596 218 597 c 128,-1,122
 223 598 223 598 230.5 599 c 128,-1,123
 238 600 238 600 247 600 c 0,72,73
EndSplineSet
EndChar

StartChar: Ccedilla
Encoding: 199 199 130
Width: 530
Flags: W
LayerCount: 2
Fore
SplineSet
315 -26 m 0,0,1
 314 -8 314 -8 302 8.5 c 128,-1,2
 290 25 290 25 264 25 c 0,3,4
 251 25 251 25 244 17.5 c 128,-1,5
 237 10 237 10 236 3.5 c 128,-1,6
 235 -3 235 -3 235.5 -17 c 128,-1,7
 236 -31 236 -31 236 -32 c 0,8,9
 235 -61 235 -61 228 -79.5 c 128,-1,10
 221 -98 221 -98 212.5 -104 c 128,-1,11
 204 -110 204 -110 197 -116 c 128,-1,12
 190 -122 190 -122 190 -129 c 0,13,14
 190 -140 190 -140 193 -143.5 c 128,-1,15
 196 -147 196 -147 204 -147 c 0,16,17
 239 -147 239 -147 278 -112.5 c 128,-1,18
 317 -78 317 -78 315 -26 c 0,0,1
336 600 m 0,19,20
 265 600 265 600 198.5 564.5 c 128,-1,21
 132 529 132 529 86 454.5 c 128,-1,22
 40 380 40 380 40 284 c 0,23,24
 40 129 40 129 103.5 64.5 c 128,-1,25
 167 0 167 0 314 0 c 0,26,27
 376 0 376 0 424.5 16 c 128,-1,28
 473 32 473 32 498.5 55 c 128,-1,29
 524 78 524 78 537 99 c 128,-1,30
 550 120 550 120 550 136 c 0,31,32
 550 158 550 158 544.5 165 c 128,-1,33
 539 172 539 172 514 172 c 0,34,35
 498 172 498 172 488 160.5 c 128,-1,36
 478 149 478 149 468.5 132.5 c 128,-1,37
 459 116 459 116 443 99.5 c 128,-1,38
 427 83 427 83 389 71.5 c 128,-1,39
 351 60 351 60 294 60 c 0,40,41
 272 60 272 60 251.5 63 c 128,-1,42
 231 66 231 66 202 78 c 128,-1,43
 173 90 173 90 152.5 111 c 128,-1,44
 132 132 132 132 117 172 c 128,-1,45
 102 212 102 212 102 266 c 0,46,47
 102 370 102 370 171 453.5 c 128,-1,48
 240 537 240 537 322 537 c 0,49,50
 372 537 372 537 403.5 526 c 128,-1,51
 435 515 435 515 446.5 499.5 c 128,-1,52
 458 484 458 484 464 468 c 128,-1,53
 470 452 470 452 478 441 c 128,-1,54
 486 430 486 430 502 430 c 0,55,56
 516 430 516 430 522.5 439 c 128,-1,57
 529 448 529 448 529.5 455.5 c 128,-1,58
 530 463 530 463 530 482 c 0,59,60
 530 525 530 525 477 562.5 c 128,-1,61
 424 600 424 600 336 600 c 0,19,20
EndSplineSet
EndChar

StartChar: Egrave
Encoding: 200 200 131
Width: 376
Flags: W
LayerCount: 2
Fore
SplineSet
256 663 m 0,0,1
 256 675 256 675 252.5 681.5 c 128,-1,2
 249 688 249 688 234 707 c 0,3,4
 172 785 172 785 128 785 c 0,5,6
 120 785 120 785 113.5 776 c 128,-1,7
 107 767 107 767 107 759 c 0,8,9
 107 749 107 749 110.5 739.5 c 128,-1,10
 114 730 114 730 117.5 724 c 128,-1,11
 121 718 121 718 131 708.5 c 128,-1,12
 141 699 141 699 146.5 694.5 c 128,-1,13
 152 690 152 690 167 679 c 128,-1,14
 182 668 182 668 188 663 c 0,15,16
 206 649 206 649 222.5 646.5 c 128,-1,17
 239 644 239 644 247.5 649.5 c 128,-1,18
 256 655 256 655 256 663 c 0,0,1
295 0 m 0,19,20
 267 0 267 0 194 0 c 128,-1,21
 121 0 121 0 97 0 c 0,22,23
 84 0 84 0 78 1 c 128,-1,24
 72 2 72 2 64.5 6.5 c 128,-1,25
 57 11 57 11 53 21 c 128,-1,26
 49 31 49 31 46 48 c 0,27,28
 41 78 41 78 39 111.5 c 128,-1,29
 37 145 37 145 35 198.5 c 128,-1,30
 33 252 33 252 31 288 c 0,31,32
 25 394 25 394 25 546 c 0,33,34
 25 579 25 579 85 592.5 c 128,-1,35
 145 606 145 606 202 606 c 0,36,37
 294 606 294 606 330 599.5 c 128,-1,38
 366 593 366 593 366 566 c 0,39,40
 366 534 366 534 336 534 c 0,41,42
 330 534 330 534 319.5 536 c 128,-1,43
 309 538 309 538 279 540.5 c 128,-1,44
 249 543 249 543 198 544 c 0,45,46
 179 544 179 544 165.5 543 c 128,-1,47
 152 542 152 542 141 539.5 c 128,-1,48
 130 537 130 537 125 535.5 c 128,-1,49
 120 534 120 534 111 530.5 c 128,-1,50
 102 527 102 527 99 526 c 0,51,52
 99 507 99 507 97 489 c 128,-1,53
 95 471 95 471 96 447 c 0,54,55
 99 391 99 391 107 340 c 1,56,57
 184 352 184 352 310 352 c 0,58,59
 350 352 350 352 361 342.5 c 128,-1,60
 372 333 372 333 372 300 c 0,61,62
 372 291 372 291 362.5 286 c 128,-1,63
 353 281 353 281 335.5 280 c 128,-1,64
 318 279 318 279 301 279.5 c 128,-1,65
 284 280 284 280 261.5 281 c 128,-1,66
 239 282 239 282 228 282 c 0,67,68
 146 282 146 282 101 268 c 1,69,70
 103 257 103 257 104.5 219 c 128,-1,71
 106 181 106 181 110 148 c 0,72,73
 116 98 116 98 115 68 c 1,74,75
 147 70 147 70 213 70 c 0,76,77
 313 70 313 70 344.5 64 c 128,-1,78
 376 58 376 58 376 32 c 0,79,80
 376 9 376 9 362.5 4.5 c 128,-1,81
 349 0 349 0 295 0 c 0,19,20
EndSplineSet
EndChar

